Monoto-Condensed.ufo
<glyph name="quotedbl" format="2">
  <advance width="300"/>
  <unicode hex="0022"/>
  <outline>
    <contour>
      <point x="180" y="456" type="line"/>
      <point x="233" y="456" type="line"/>
      <point x="242" y="714" type="line"/>
      <point x="170" y="714" type="line"/>
    </contour>
    <contour>
      <point x="67" y="456" type="line"/>
      <point x="120" y="456" type="line"/>
      <point x="130" y="714" type="line"/>
      <point x="58" y="714" type="line"/>
    </contour>
  </outline>
</glyph>
<glyph name="numbersign" format="2">
  <advance width="300"/>
  <unicode hex="0023"/>
  <outline>
    <contour>
      <point x="52" y="0" type="line"/>
      <point x="99" y="0" type="line"/>
      <point x="114" y="218" type="line"/>
      <point x="161" y="218" type="line"/>
      <point x="145" y="0" type="line"/>
      <point x="192" y="0" type="line"/>
      <point x="209" y="218" type="line"/>
      <point x="268" y="218" type="line"/>
      <point x="268" y="279" type="line"/>
      <point x="215" y="279" type="line"/>
      <point x="225" y="451" type="line"/>
      <point x="282" y="451" type="line"/>
      <point x="282" y="511" type="line"/>
      <point x="232" y="511" type="line"/>
      <point x="247" y="714" type="line"/>
      <point x="201" y="714" type="line"/>
      <point x="185" y="511" type="line"/>
      <point x="138" y="511" type="line"/>
      <point x="154" y="714" type="line"/>
      <point x="108" y="714" type="line"/>
      <point x="92" y="511" type="line"/>
      <point x="32" y="511" type="line"/>
      <point x="32" y="451" type="line"/>
      <point x="85" y="451" type="line"/>
      <point x="74" y="279" type="line"/>
      <point x="18" y="279" type="line"/>
      <point x="18" y="218" type="line"/>
      <point x="68" y="218" type="line"/>
    </contour>
    <contour>
      <point x="121" y="279" type="line"/>
      <point x="132" y="451" type="line"/>
      <point x="179" y="451" type="line"/>
      <point x="168" y="279" type="line"/>
    </contour>
  </outline>
</glyph>
<glyph name="ampersand" format="2">
  <advance width="300"/>
  <unicode hex="0026"/>
  <outline>
    <contour>
      <point x="121" y="-10" type="curve" smooth="yes"/>
      <point x="226" y="-10"/>
      <point x="264" y="183"/>
      <point x="277" y="338" type="curve"/>
      <point x="225" y="338" type="line"/>
      <point x="218" y="228"/>
      <point x="186" y="56"/>
      <point x="129" y="56" type="curve" smooth="yes"/>
      <point x="102" y="56"/>
      <point x="81" y="96"/>
      <point x="81" y="165" type="curve" smooth="yes"/>
      <point x="81" y="252"/>
      <point x="104" y="308"/>
      <point x="138" y="356" type="curve" smooth="yes"/>
      <point x="178" y="412"/>
      <point x="216" y="485"/>
      <point x="216" y="578" type="curve" smooth="yes"/>
      <point x="216" y="667"/>
      <point x="189" y="724"/>
      <point x="135" y="724" type="curve" smooth="yes"/>
      <point x="82" y="724"/>
      <point x="51" y="666"/>
      <point x="51" y="580" type="curve" smooth="yes"/>
      <point x="51" y="506"/>
      <point x="72" y="433"/>
      <point x="97" y="360" type="curve" smooth="yes"/>
      <point x="217" y="0" type="line"/>
      <point x="277" y="0" type="line"/>
      <point x="138" y="412" type="line" smooth="yes"/>
      <point x="124" y="453"/>
      <point x="105" y="517"/>
      <point x="105" y="582" type="curve" smooth="yes"/>
      <point x="105" y="633"/>
      <point x="116" y="662"/>
      <point x="135" y="662" type="curve" smooth="yes"/>
      <point x="153" y="662"/>
      <point x="164" y="636"/>
      <point x="164" y="581" type="curve" smooth="yes"/>
      <point x="164" y="487"/>
      <point x="131" y="432"/>
      <point x="109" y="406" type="curve" smooth="yes"/>
      <point x="54" y="341"/>
      <point x="24" y="272"/>
      <point x="24" y="166" type="curve" smooth="yes"/>
      <point x="24" y="71"/>
      <point x="55" y="-10"/>
    </contour>
  </outline>
</glyph>
<glyph name="plus" format="2">
  <advance width="300"/>
  <unicode hex="002B"/>
  <outline>
    <contour>
      <point x="122" y="119" type="line"/>
      <point x="176" y="119" type="line"/>
      <point x="176" y="321" type="line"/>
      <point x="263" y="321" type="line"/>
      <point x="263" y="385" type="line"/>
      <point x="176" y="385" type="line"/>
      <point x="176" y="588" type="line"/>
      <point x="122" y="588" type="line"/>
      <point x="122" y="385" type="line"/>
      <point x="34" y="385" type="line"/>
      <point x="34" y="321" type="line"/>
      <point x="122" y="321" type="line"/>
    </contour>
  </outline>
</glyph>
<glyph name="period" format="2">
  <advance width="300"/>
  <unicode hex="002E"/>
  <outline>
    <contour>
      <point x="150" y="-12" type="curve" smooth="yes"/>
      <point x="175" y="-12"/>
      <point x="190" y="9"/>
      <point x="190" y="52" type="curve" smooth="yes"/>
      <point x="190" y="96"/>
      <point x="176" y="114"/>
      <point x="150" y="114" type="curve" smooth="yes"/>
      <point x="124" y="114"/>
      <point x="110" y="94"/>
      <point x="110" y="52" type="curve" smooth="yes"/>
      <point x="110" y="9"/>
      <point x="125" y="-12"/>
    </contour>
  </outline>
</glyph>
<glyph name="slash" format="2">
  <advance width="300"/>
  <unicode hex="002F"/>
  <outline>
    <contour>
      <point x="40" y="-3" type="line"/>
      <point x="99" y="-3" type="line"/>
      <point x="251" y="717" type="line"/>
      <point x="193" y="717" type="line"/>
    </contour>
  </outline>
</glyph>
<glyph name="zero" format="2">
  <advance width="300"/>
  <unicode hex="0030"/>
  <outline>
    <contour>
      <point x="150" y="-10" type="curve" smooth="yes"/>
      <point x="246" y="-10"/>
      <point x="274" y="127"/>
      <point x="274" y="358" type="curve" smooth="yes"/>
      <point x="274" y="588"/>
      <point x="234" y="725"/>
      <point x="150" y="725" type="curve" smooth="yes"/>
      <point x="63" y="725"/>
      <point x="25" y="587"/>
      <point x="25" y="358" type="curve" smooth="yes"/>
      <point x="25" y="127"/>
      <point x="66" y="-10"/>
    </contour>
    <contour>
      <point x="98" y="98" type="line"/>
      <point x="248" y="567" type="line"/>
      <point x="201" y="619" type="line"/>
      <point x="56" y="138" type="line"/>
    </contour>
    <contour>
      <point x="150" y="58" type="curve" smooth="yes"/>
      <point x="109" y="58"/>
      <point x="95" y="172"/>
      <point x="95" y="358" type="curve" smooth="yes"/>
      <point x="95" y="553"/>
      <point x="110" y="657"/>
      <point x="150" y="657" type="curve" smooth="yes"/>
      <point x="192" y="657"/>
      <point x="204" y="548"/>
      <point x="204" y="358" type="curve" smooth="yes"/>
      <point x="204" y="159"/>
      <point x="191" y="58"/>
    </contour>
  </outline>
</glyph>
<glyph name="two" format="2">
  <advance width="300"/>
  <unicode hex="0032"/>
  <outline>
    <contour>
      <point x="35" y="0" type="line"/>
      <point x="261" y="0" type="line"/>
      <point x="261" y="74" type="line"/>
      <point x="125" y="74" type="line"/>
      <point x="125" y="79" type="line"/>
      <point x="184" y="228" type="line" smooth="yes"/>
      <point x="230" y="344"/>
      <point x="253" y="422"/>
      <point x="253" y="536" type="curve" smooth="yes"/>
      <point x="253" y="652"/>
      <point x="208" y="724"/>
      <point x="144" y="724" type="curve" smooth="yes"/>
      <point x="100" y="724"/>
      <point x="64" y="692"/>
      <point x="30" y="645" type="curve"/>
      <point x="67" y="592" type="line"/>
      <point x="91" y="625"/>
      <point x="113" y="656"/>
      <point x="136" y="656" type="curve" smooth="yes"/>
      <point x="164" y="656"/>
      <point x="179" y="612"/>
      <point x="179" y="529" type="curve" smooth="yes"/>
      <point x="179" y="428"/>
      <point x="160" y="359"/>
      <point x="118" y="262" type="curve" smooth="yes"/>
      <point x="35" y="70" type="line"/>
    </contour>
  </outline>
</glyph>
<glyph name="four" format="2">
  <advance width="300"/>
  <unicode hex="0034"/>
  <outline>
    <contour>
      <point x="160" y="0" type="line"/>
      <point x="230" y="0" type="line"/>
      <point x="230" y="163" type="line"/>
      <point x="274" y="163" type="line"/>
      <point x="274" y="237" type="line"/>
      <point x="230" y="237" type="line"/>
      <point x="230" y="718" type="line"/>
      <point x="159" y="718" type="line"/>
      <point x="25" y="234" type="line"/>
      <point x="25" y="163" type="line"/>
      <point x="160" y="163" type="line"/>
    </contour>
    <contour>
      <point x="86" y="237" type="line"/>
      <point x="139" y="510" type="line" smooth="yes"/>
      <point x="145" y="542"/>
      <point x="154" y="593"/>
      <point x="159" y="628" type="curve"/>
      <point x="161" y="628" type="line"/>
      <point x="161" y="582"/>
      <point x="160" y="496"/>
      <point x="160" y="424" type="curve" smooth="yes"/>
      <point x="160" y="237" type="line"/>
    </contour>
  </outline>
</glyph>
<glyph name="five" format="2">
  <advance width="300"/>
  <unicode hex="0035"/>
  <outline>
    <contour>
      <point x="126" y="-10" type="curve" smooth="yes"/>
      <point x="215" y="-10"/>
      <point x="259" y="80"/>
      <point x="259" y="228" type="curve" smooth="yes"/>
      <point x="259" y="363"/>
      <point x="218" y="436"/>
      <point x="158" y="436" type="curve" smooth="yes"/>
      <point x="146" y="436"/>
      <point x="131" y="430"/>
      <point x="116" y="425" type="curve"/>
      <point x="122" y="640" type="line"/>
      <point x="238" y="640" type="line"/>
      <point x="238" y="714" type="line"/>
      <point x="58" y="714" type="line"/>
      <point x="46" y="380" type="line"/>
      <point x="71" y="354" type="line"/>
      <point x="88" y="359"/>
      <point x="104" y="367"/>
      <point x="121" y="367" type="curve" smooth="yes"/>
      <point x="163" y="367"/>
      <point x="183" y="315"/>
      <point x="183" y="219" type="curve" smooth="yes"/>
      <point x="183" y="112"/>
      <point x="161" y="59"/>
      <point x="121" y="59" type="curve" smooth="yes"/>
      <point x="95" y="59"/>
      <point x="64" y="77"/>
      <point x="40" y="106" type="curve"/>
      <point x="40" y="29" type="line"/>
      <point x="63" y="3"/>
      <point x="92" y="-10"/>
    </contour>
  </outline>
</glyph>
<glyph name="eight" format="2">
  <advance width="300"/>
  <unicode hex="0038"/>
  <outline>
    <contour>
      <point x="148" y="-10" type="curve" smooth="yes"/>
      <point x="221" y="-10"/>
      <point x="266" y="66"/>
      <point x="266" y="186" type="curve" smooth="yes"/>
      <point x="266" y="281"/>
      <point x="246" y="337"/>
      <point x="197" y="378" type="curve"/>
      <point x="236" y="414"/>
      <point x="256" y="467"/>
      <point x="256" y="552" type="curve" smooth="yes"/>
      <point x="256" y="668"/>
      <point x="216" y="725"/>
      <point x="150" y="725" type="curve" smooth="yes"/>
      <point x="84" y="725"/>
      <point x="42" y="669"/>
      <point x="42" y="551" type="curve" smooth="yes"/>
      <point x="42" y="469"/>
      <point x="61" y="413"/>
      <point x="98" y="375" type="curve"/>
      <point x="54" y="336"/>
      <point x="32" y="279"/>
      <point x="32" y="182" type="curve" smooth="yes"/>
      <point x="32" y="54"/>
      <point x="76" y="-10"/>
    </contour>
    <contour>
      <point x="149" y="59" type="curve" smooth="yes"/>
      <point x="119" y="59"/>
      <point x="103" y="107"/>
      <point x="103" y="182" type="curve" smooth="yes"/>
      <point x="103" y="255"/>
      <point x="118" y="304"/>
      <point x="148" y="343" type="curve"/>
      <point x="182" y="292"/>
      <point x="195" y="255"/>
      <point x="195" y="187" type="curve" smooth="yes"/>
      <point x="195" y="107"/>
      <point x="179" y="59"/>
    </contour>
    <contour>
      <point x="149" y="411" type="curve"/>
      <point x="125" y="444"/>
      <point x="113" y="477"/>
      <point x="113" y="549" type="curve" smooth="yes"/>
      <point x="113" y="620"/>
      <point x="128" y="656"/>
      <point x="149" y="656" type="curve" smooth="yes"/>
      <point x="171" y="656"/>
      <point x="186" y="620"/>
      <point x="186" y="549" type="curve" smooth="yes"/>
      <point x="186" y="482"/>
      <point x="174" y="441"/>
    </contour>
  </outline>
</glyph>
<glyph name="nine" format="2">
  <advance width="300"/>
  <unicode hex="0039"/>
  <outline>
    <contour>
      <point x="106" y="-10" type="curve" smooth="yes"/>
      <point x="223" y="-10"/>
      <point x="265" y="193"/>
      <point x="265" y="410" type="curve" smooth="yes"/>
      <point x="265" y="620"/>
      <point x="221" y="724"/>
      <point x="145" y="724" type="curve" smooth="yes"/>
      <point x="74" y="724"/>
      <point x="32" y="633"/>
      <point x="32" y="486" type="curve" smooth="yes"/>
      <point x="32" y="348"/>
      <point x="65" y="269"/>
      <point x="124" y="269" type="curve" smooth="yes"/>
      <point x="158" y="269"/>
      <point x="180" y="303"/>
      <point x="193" y="354" type="curve"/>
      <point x="196" y="354" type="line"/>
      <point x="193" y="189"/>
      <point x="161" y="57"/>
      <point x="99" y="57" type="curve"/>
      <point x="83" y="57"/>
      <point x="66" y="61"/>
      <point x="52" y="70" type="curve"/>
      <point x="52" y="-1" type="line"/>
      <point x="68" y="-7"/>
      <point x="87" y="-10"/>
    </contour>
    <contour>
      <point x="145" y="333" type="curve" smooth="yes"/>
      <point x="119" y="333"/>
      <point x="106" y="391"/>
      <point x="106" y="489" type="curve" smooth="yes"/>
      <point x="106" y="597"/>
      <point x="120" y="656"/>
      <point x="146" y="656" type="curve" smooth="yes"/>
      <point x="176" y="656"/>
      <point x="189" y="550"/>
      <point x="189" y="480" type="curve" smooth="yes"/>
      <point x="189" y="384"/>
      <point x="175" y="333"/>
    </contour>
  </outline>
</glyph>
<glyph name="colon" format="2">
  <advance width="300"/>
  <unicode hex="003A"/>
  <outline>
    <contour>
      <point x="151" y="418" type="curve" smooth="yes"/>
      <point x="175" y="418"/>
      <point x="190" y="437"/>
      <point x="190" y="481" type="curve" smooth="yes"/>
      <point x="190" y="524"/>
      <point x="177" y="544"/>
      <point x="151" y="544" type="curve" smooth="yes"/>
      <point x="124" y="544"/>
      <point x="110" y="524"/>
      <point x="110" y="481" type="curve" smooth="yes"/>
      <point x="110" y="438"/>
      <point x="125" y="418"/>
    </contour>
    <contour>
      <point x="151" y="-12" type="curve" smooth="yes"/>
      <point x="175" y="-12"/>
      <point x="190" y="9"/>
      <point x="190" y="52" type="curve" smooth="yes"/>
      <point x="190" y="96"/>
      <point x="176" y="114"/>
      <point x="151" y="114" type="curve" smooth="yes"/>
      <point x="124" y="114"/>
      <point x="110" y="94"/>
      <point x="110" y="52" type="curve" smooth="yes"/>
      <point x="110" y="9"/>
      <point x="125" y="-12"/>
    </contour>
  </outline>
</glyph>
<glyph name="semicolon" format="2">
  <advance width="300"/>
  <unicode hex="003B"/>
  <outline>
    <contour>
      <point x="100" y="-131" type="curve"/>
      <point x="154" y="-131" type="line"/>
      <point x="170" y="-59"/>
      <point x="184" y="27"/>
      <point x="192" y="103" type="curve"/>
      <point x="189" y="114" type="line"/>
      <point x="124" y="114" type="line"/>
      <point x="120" y="43"/>
      <point x="111" y="-49"/>
    </contour>
    <contour>
      <point x="154" y="418" type="curve" smooth="yes"/>
      <point x="178" y="418"/>
      <point x="193" y="437"/>
      <point x="193" y="481" type="curve" smooth="yes"/>
      <point x="193" y="524"/>
      <point x="180" y="544"/>
      <point x="154" y="544" type="curve" smooth="yes"/>
      <point x="127" y="544"/>
      <point x="114" y="524"/>
      <point x="114" y="481" type="curve" smooth="yes"/>
      <point x="114" y="438"/>
      <point x="129" y="418"/>
    </contour>
  </outline>
</glyph>
<glyph name="question" format="2">
  <advance width="300"/>
  <unicode hex="003F"/>
  <outline>
    <contour>
      <point x="108" y="198" type="line"/>
      <point x="164" y="198" type="line"/>
      <point x="164" y="217" type="line" smooth="yes"/>
      <point x="164" y="274"/>
      <point x="167" y="304"/>
      <point x="194" y="358" type="curve" smooth="yes"/>
      <point x="227" y="424"/>
      <point x="247" y="466"/>
      <point x="247" y="555" type="curve" smooth="yes"/>
      <point x="247" y="662"/>
      <point x="211" y="724"/>
      <point x="145" y="724" type="curve" smooth="yes"/>
      <point x="113" y="724"/>
      <point x="82" y="707"/>
      <point x="52" y="678" type="curve"/>
      <point x="74" y="616" type="line"/>
      <point x="97" y="637"/>
      <point x="118" y="654"/>
      <point x="140" y="654" type="curve" smooth="yes"/>
      <point x="167" y="654"/>
      <point x="182" y="618"/>
      <point x="182" y="551" type="curve" smooth="yes"/>
      <point x="182" y="489"/>
      <point x="171" y="456"/>
      <point x="143" y="394" type="curve" smooth="yes"/>
      <point x="119" y="340"/>
      <point x="108" y="299"/>
      <point x="108" y="225" type="curve" smooth="yes"/>
    </contour>
    <contour>
      <point x="136" y="-12" type="curve" smooth="yes"/>
      <point x="161" y="-12"/>
      <point x="176" y="8"/>
      <point x="176" y="52" type="curve" smooth="yes"/>
      <point x="176" y="96"/>
      <point x="162" y="114"/>
      <point x="136" y="114" type="curve" smooth="yes"/>
      <point x="110" y="114"/>
      <point x="96" y="94"/>
      <point x="96" y="52" type="curve" smooth="yes"/>
      <point x="96" y="9"/>
      <point x="111" y="-12"/>
    </contour>
  </outline>
</glyph>
<glyph name="A" format="2">
  <advance width="300"/>
  <unicode hex="0041"/>
  <anchor x="150" y="0" name="bottom"/>
  <anchor x="261" y="10" name="ogonek"/>
  <anchor x="150" y="714" name="top"/>
  <anchor x="278" y="714" name="topright"/>
  <outline>
    <contour>
      <point x="15" y="0" type="line"/>
      <point x="83" y="0" type="line"/>
      <point x="136" y="542" type="line" smooth="yes"/>
      <point x="139" y="577"/>
      <point x="146" y="620"/>
      <point x="149" y="651" type="curve"/>
      <point x="153" y="620"/>
      <point x="159" y="577"/>
      <point x="163" y="542" type="curve" smooth="yes"/>
      <point x="217" y="0" type="line"/>
      <point x="284" y="0" type="line"/>
      <point x="198" y="714" type="line"/>
      <point x="99" y="714" type="line"/>
    </contour>
    <contour>
      <point x="79" y="231" type="line"/>
      <point x="225" y="231" type="line"/>
      <point x="224" y="301" type="line"/>
      <point x="80" y="301" type="line"/>
    </contour>
  </outline>
</glyph>
<glyph name="B" format="2">
  <advance width="300"/>
  <unicode hex="0042"/>
  <anchor x="150" y="0" name="bottom"/>
  <anchor x="150" y="714" name="top"/>
  <anchor x="278" y="714" name="topright"/>
  <outline>
    <contour>
      <point x="41" y="0" type="line"/>
      <point x="149" y="0" type="line" smooth="yes"/>
      <point x="224" y="0"/>
      <point x="272" y="75"/>
      <point x="272" y="205" type="curve" smooth="yes"/>
      <point x="272" y="309"/>
      <point x="253" y="358"/>
      <point x="210" y="374" type="curve"/>
      <point x="210" y="379" type="line"/>
      <point x="243" y="394"/>
      <point x="265" y="453"/>
      <point x="265" y="541" type="curve" smooth="yes"/>
      <point x="265" y="662"/>
      <point x="223" y="714"/>
      <point x="143" y="714" type="curve" smooth="yes"/>
      <point x="41" y="714" type="line"/>
    </contour>
    <contour>
      <point x="108" y="70" type="line"/>
      <point x="108" y="339" type="line"/>
      <point x="143" y="339" type="line" smooth="yes"/>
      <point x="184" y="339"/>
      <point x="205" y="292"/>
      <point x="205" y="206" type="curve" smooth="yes"/>
      <point x="205" y="120"/>
      <point x="186" y="70"/>
      <point x="145" y="70" type="curve" smooth="yes"/>
    </contour>
    <contour>
      <point x="108" y="409" type="line"/>
      <point x="108" y="644" type="line"/>
      <point x="138" y="644" type="line" smooth="yes"/>
      <point x="178" y="644"/>
      <point x="198" y="609"/>
      <point x="198" y="528" type="curve" smooth="yes"/>
      <point x="198" y="449"/>
      <point x="177" y="409"/>
      <point x="141" y="409" type="curve" smooth="yes"/>
    </contour>
  </outline>
</glyph>
<glyph name="C" format="2">
  <advance width="300"/>
  <unicode hex="0043"/>
  <anchor x="179" y="0" name="bottom"/>
  <anchor x="178" y="714" name="top"/>
  <anchor x="278" y="714" name="topright"/>
  <outline>
    <contour>
      <point x="179" y="-10" type="curve" smooth="yes"/>
      <point x="211" y="-10"/>
      <point x="242" y="-3"/>
      <point x="267" y="16" type="curve"/>
      <point x="267" y="87" type="line"/>
      <point x="244" y="72"/>
      <point x="219" y="60"/>
      <point x="190" y="60" type="curve" smooth="yes"/>
      <point x="132" y="60"/>
      <point x="100" y="177"/>
      <point x="100" y="357" type="curve" smooth="yes"/>
      <point x="100" y="524"/>
      <point x="131" y="656"/>
      <point x="193" y="656" type="curve" smooth="yes"/>
      <point x="214" y="656"/>
      <point x="236" y="643"/>
      <point x="258" y="623" type="curve"/>
      <point x="279" y="688" type="line"/>
      <point x="251" y="712"/>
      <point x="224" y="726"/>
      <point x="183" y="726" type="curve" smooth="yes"/>
      <point x="85" y="726"/>
      <point x="30" y="566"/>
      <point x="30" y="358" type="curve" smooth="yes"/>
      <point x="30" y="130"/>
      <point x="82" y="-10"/>
    </contour>
  </outline>
</glyph>
<glyph name="D" format="2">
  <advance width="300"/>
  <unicode hex="0044"/>
  <anchor x="133" y="0" name="bottom"/>
  <anchor x="150" y="357" name="center"/>
  <anchor x="144" y="714" name="top"/>
  <anchor x="289" y="714" name="topright"/>
  <outline>
    <contour>
      <point x="29" y="0" type="line"/>
      <point x="133" y="0" type="line" smooth="yes"/>
      <point x="218" y="0"/>
      <point x="277" y="125"/>
      <point x="277" y="366" type="curve" smooth="yes"/>
      <point x="277" y="593"/>
      <point x="227" y="714"/>
      <point x="134" y="714" type="curve" smooth="yes"/>
      <point x="29" y="714" type="line"/>
    </contour>
    <contour>
      <point x="98" y="73" type="line"/>
      <point x="98" y="641" type="line"/>
      <point x="127" y="641" type="line" smooth="yes"/>
      <point x="182" y="641"/>
      <point x="206" y="561"/>
      <point x="206" y="365" type="curve" smooth="yes"/>
      <point x="206" y="173"/>
      <point x="182" y="73"/>
      <point x="124" y="73" type="curve" smooth="yes"/>
    </contour>
  </outline>
</glyph>
<glyph name="F" format="2">
  <advance width="300"/>
  <unicode hex="0046"/>
  <anchor x="153" y="0" name="bottom"/>
  <anchor x="153" y="714" name="top"/>
  <anchor x="278" y="714" name="topright"/>
  <outline>
    <contour>
      <point x="41" y="0" type="line"/>
      <point x="111" y="0" type="line"/>
      <point x="111" y="307" type="line"/>
      <point x="251" y="307" type="line"/>
      <point x="251" y="380" type="line"/>
      <point x="111" y="380" type="line"/>
      <point x="111" y="641" type="line"/>
      <point x="260" y="641" type="line"/>
      <point x="260" y="714" type="line"/>
      <point x="41" y="714" type="line"/>
    </contour>
  </outline>
</glyph>
<glyph name="G" format="2">
  <advance width="300"/>
  <unicode hex="0047"/>
  <anchor x="170" y="0" name="bottom"/>
  <anchor x="167" y="714" name="top"/>
  <anchor x="278" y="714" name="topright"/>
  <outline>
    <contour>
      <point x="178" y="-10" type="curve" smooth="yes"/>
      <point x="210" y="-10"/>
      <point x="241" y="2"/>
      <point x="270" y="25" type="curve"/>
      <point x="270" y="375" type="line"/>
      <point x="162" y="375" type="line"/>
      <point x="162" y="302" type="line"/>
      <point x="206" y="302" type="line"/>
      <point x="206" y="76" type="line"/>
      <point x="197" y="66"/>
      <point x="183" y="60"/>
      <point x="169" y="60" type="curve" smooth="yes"/>
      <point x="115" y="60"/>
      <point x="91" y="190"/>
      <point x="91" y="357" type="curve" smooth="yes"/>
      <point x="91" y="546"/>
      <point x="119" y="656"/>
      <point x="186" y="656" type="curve" smooth="yes"/>
      <point x="207" y="656"/>
      <point x="226" y="646"/>
      <point x="247" y="618" type="curve"/>
      <point x="267" y="682" type="line"/>
      <point x="245" y="712"/>
      <point x="216" y="726"/>
      <point x="180" y="726" type="curve" smooth="yes"/>
      <point x="80" y="726"/>
      <point x="22" y="572"/>
      <point x="22" y="359" type="curve" smooth="yes"/>
      <point x="22" y="147"/>
      <point x="71" y="-10"/>
    </contour>
  </outline>
</glyph>
<glyph name="L" format="2">
  <advance width="300"/>
  <unicode hex="004C"/>
  <anchor x="160" y="0" name="bottom"/>
  <anchor x="150" y="357" name="center"/>
  <anchor x="80" y="714" name="top"/>
  <anchor x="219" y="714" name="topright"/>
  <outline>
    <contour>
      <point x="46" y="0" type="line"/>
      <point x="261" y="0" type="line"/>
      <point x="261" y="75" type="line"/>
      <point x="116" y="75" type="line"/>
      <point x="116" y="714" type="line"/>
      <point x="46" y="714" type="line"/>
    </contour>
  </outline>
</glyph>
<glyph name="N" format="2">
  <advance width="300"/>
  <unicode hex="004E"/>
  <anchor x="150" y="0" name="bottom"/>
  <anchor x="152" y="714" name="top"/>
  <anchor x="289" y="714" name="topright"/>
  <outline>
    <contour>
      <point x="29" y="0" type="line"/>
      <point x="92" y="0" type="line"/>
      <point x="92" y="447" type="line" smooth="yes"/>
      <point x="92" y="518"/>
      <point x="87" y="574"/>
      <point x="84" y="634" type="curve"/>
      <point x="88" y="634" type="line"/>
      <point x="176" y="0" type="line"/>
      <point x="270" y="0" type="line"/>
      <point x="270" y="714" type="line"/>
      <point x="207" y="714" type="line"/>
      <point x="207" y="249" type="line" smooth="yes"/>
      <point x="207" y="186"/>
      <point x="212" y="108"/>
      <point x="214" y="83" type="curve"/>
      <point x="211" y="83" type="line"/>
      <point x="125" y="714" type="line"/>
      <point x="29" y="714" type="line"/>
    </contour>
  </outline>
</glyph>
<glyph name="P" format="2">
  <advance width="300"/>
  <unicode hex="0050"/>
  <anchor x="150" y="0" name="bottom"/>
  <anchor x="152" y="714" name="top"/>
  <anchor x="289" y="714" name="topright"/>
  <outline>
    <contour>
      <point x="41" y="0" type="line"/>
      <point x="111" y="0" type="line"/>
      <point x="111" y="281" type="line"/>
      <point x="147" y="281" type="line" smooth="yes"/>
      <point x="236" y="281"/>
      <point x="272" y="374"/>
      <point x="272" y="506" type="curve" smooth="yes"/>
      <point x="272" y="640"/>
      <point x="232" y="714"/>
      <point x="148" y="714" type="curve" smooth="yes"/>
      <point x="41" y="714" type="line"/>
    </contour>
    <contour>
      <point x="111" y="353" type="line"/>
      <point x="111" y="642" type="line"/>
      <point x="145" y="642" type="line" smooth="yes"/>
      <point x="185" y="642"/>
      <point x="205" y="598"/>
      <point x="205" y="502" type="curve" smooth="yes"/>
      <point x="205" y="393"/>
      <point x="186" y="353"/>
      <point x="139" y="353" type="curve" smooth="yes"/>
    </contour>
  </outline>
</glyph>
<glyph name="Q" format="2">
  <advance width="300"/>
  <unicode hex="0051"/>
  <anchor x="150" y="-219" name="bottom"/>
  <anchor x="150" y="714" name="top"/>
  <anchor x="289" y="714" name="topright"/>
  <anchor x="31" y="714" name="topleft"/>
  <anchor x="166" y="10" name="ogonek"/>
  <anchor x="159" y="357" name="center"/>
  <outline>
    <contour>
      <point x="202" y="-179" type="line"/>
      <point x="274" y="-179" type="line"/>
      <point x="214" y="85" type="line"/>
      <point x="160" y="26" type="line"/>
    </contour>
    <component base="O" xOffset="10"/>
  </outline>
</glyph>
<glyph name="S" format="2">
  <advance width="300"/>
  <unicode hex="0053"/>
  <anchor x="149" y="0" name="bottom"/>
  <anchor x="154" y="714" name="top"/>
  <anchor x="278" y="714" name="topright"/>
  <outline>
    <contour>
      <point x="135" y="-10" type="curve" smooth="yes"/>
      <point x="213" y="-10"/>
      <point x="261" y="61"/>
      <point x="261" y="193" type="curve" smooth="yes"/>
      <point x="261" y="310"/>
      <point x="231" y="347"/>
      <point x="170" y="399" type="curve" smooth="yes"/>
      <point x="127" y="435"/>
      <point x="108" y="465"/>
      <point x="108" y="544" type="curve" smooth="yes"/>
      <point x="108" y="612"/>
      <point x="125" y="656"/>
      <point x="161" y="656" type="curve" smooth="yes"/>
      <point x="181" y="656"/>
      <point x="204" y="643"/>
      <point x="233" y="622" type="curve"/>
      <point x="254" y="688" type="line"/>
      <point x="222" y="713"/>
      <point x="191" y="726"/>
      <point x="157" y="726" type="curve" smooth="yes"/>
      <point x="83" y="726"/>
      <point x="38" y="668"/>
      <point x="38" y="540" type="curve" smooth="yes"/>
      <point x="38" y="426"/>
      <point x="74" y="378"/>
      <point x="124" y="334" type="curve" smooth="yes"/>
      <point x="171" y="292"/>
      <point x="192" y="265"/>
      <point x="192" y="187" type="curve" smooth="yes"/>
      <point x="192" y="117"/>
      <point x="178" y="60"/>
      <point x="132" y="60" type="curve" smooth="yes"/>
      <point x="99" y="60"/>
      <point x="69" y="74"/>
      <point x="41" y="96" type="curve"/>
      <point x="41" y="23" type="line"/>
      <point x="72" y="2"/>
      <point x="103" y="-10"/>
    </contour>
  </outline>
</glyph>
<glyph name="V" format="2">
  <advance width="300"/>
  <unicode hex="0056"/>
  <anchor x="149" y="0" name="bottom"/>
  <anchor x="149" y="714" name="top"/>
  <anchor x="278" y="714" name="topright"/>
  <outline>
    <contour>
      <point x="106" y="0" type="line"/>
      <point x="190" y="0" type="line"/>
      <point x="284" y="714" type="line"/>
      <point x="212" y="714" type="line"/>
      <point x="164" y="243" type="line" smooth="yes"/>
      <point x="158" y="183"/>
      <point x="153" y="121"/>
      <point x="150" y="77" type="curve"/>
      <point x="149" y="77" type="line"/>
      <point x="146" y="122"/>
      <point x="141" y="184"/>
      <point x="135" y="241" type="curve" smooth="yes"/>
      <point x="86" y="714" type="line"/>
      <point x="15" y="714" type="line"/>
    </contour>
  </outline>
</glyph>
<glyph name="Z" format="2">
  <advance width="300"/>
  <unicode hex="005A"/>
  <anchor x="160" y="0" name="bottom"/>
  <anchor x="153" y="714" name="top"/>
  <anchor x="278" y="714" name="topright"/>
  <outline>
    <contour>
      <point x="41" y="0" type="line"/>
      <point x="264" y="0" type="line"/>
      <point x="264" y="73" type="line"/>
      <point x="120" y="73" type="line"/>
      <point x="262" y="649" type="line"/>
      <point x="262" y="714" type="line"/>
      <point x="45" y="714" type="line"/>
      <point x="45" y="641" type="line"/>
      <point x="187" y="641" type="line"/>
      <point x="41" y="65" type="line"/>
    </contour>
  </outline>
</glyph>
<glyph name="grave" format="2">
  <advance width="300"/>
  <unicode hex="0060"/>
  <outline>
    <contour>
      <point x="152" y="606" type="curve"/>
      <point x="198" y="606" type="line"/>
      <point x="198" y="617" type="line"/>
      <point x="184" y="654"/>
      <point x="160" y="720"/>
      <point x="148" y="766" type="curve"/>
      <point x="75" y="766" type="line"/>
      <point x="75" y="757" type="line"/>
      <point x="90" y="714"/>
      <point x="132" y="641"/>
    </contour>
  </outline>
</glyph>
<glyph name="a" format="2">
  <advance width="300"/>
  <unicode hex="0061"/>
  <anchor x="154" y="0" name="bottom"/>
  <anchor x="261" y="10" name="ogonek"/>
  <anchor x="156" y="535" name="top"/>
  <anchor x="284" y="535" name="topright"/>
  <outline>
    <contour>
      <point x="119" y="-10" type="curve" smooth="yes"/>
      <point x="156" y="-10"/>
      <point x="180" y="24"/>
      <point x="196" y="78" type="curve"/>
      <point x="198" y="78" type="line"/>
      <point x="207" y="0" type="line"/>
      <point x="260" y="0" type="line"/>
      <point x="260" y="366" type="line" smooth="yes"/>
      <point x="260" y="490"/>
      <point x="223" y="546"/>
      <point x="153" y="546" type="curve" smooth="yes"/>
      <point x="116" y="546"/>
      <point x="85" y="528"/>
      <point x="56" y="499" type="curve"/>
      <point x="80" y="437" type="line"/>
      <point x="101" y="460"/>
      <point x="121" y="478"/>
      <point x="144" y="478" type="curve" smooth="yes"/>
      <point x="175" y="478"/>
      <point x="193" y="445"/>
      <point x="193" y="356" type="curve" smooth="yes"/>
      <point x="194" y="320" type="line"/>
      <point x="145" y="317" type="line" smooth="yes"/>
      <point x="78" y="313"/>
      <point x="37" y="259"/>
      <point x="37" y="148" type="curve" smooth="yes"/>
      <point x="37" y="42"/>
      <point x="67" y="-10"/>
    </contour>
    <contour>
      <point x="142" y="58" type="curve" smooth="yes"/>
      <point x="120" y="58"/>
      <point x="103" y="85"/>
      <point x="103" y="150" type="curve" smooth="yes"/>
      <point x="103" y="221"/>
      <point x="126" y="255"/>
      <point x="163" y="260" type="curve" smooth="yes"/>
      <point x="194" y="264" type="line"/>
      <point x="194" y="215" type="line" smooth="yes"/>
      <point x="193" y="109"/>
      <point x="172" y="58"/>
    </contour>
  </outline>
</glyph>
<glyph name="c" format="2">
  <advance width="300"/>
  <unicode hex="0063"/>
  <anchor x="177" y="0" name="bottom"/>
  <anchor x="172" y="535" name="top"/>
  <anchor x="279" y="535" name="topright"/>
  <outline>
    <contour>
      <point x="178" y="-10" type="curve" smooth="yes"/>
      <point x="206" y="-10"/>
      <point x="237" y="1"/>
      <point x="258" y="19" type="curve"/>
      <point x="258" y="90" type="line"/>
      <point x="236" y="71"/>
      <point x="209" y="59"/>
      <point x="187" y="59" type="curve" smooth="yes"/>
      <point x="140" y="59"/>
      <point x="114" y="125"/>
      <point x="114" y="265" type="curve" smooth="yes"/>
      <point x="114" y="409"/>
      <point x="138" y="478"/>
      <point x="186" y="478" type="curve" smooth="yes"/>
      <point x="208" y="478"/>
      <point x="228" y="472"/>
      <point x="245" y="452" type="curve"/>
      <point x="266" y="517" type="line"/>
      <point x="242" y="536"/>
      <point x="211" y="546"/>
      <point x="180" y="546" type="curve" smooth="yes"/>
      <point x="85" y="546"/>
      <point x="42" y="465"/>
      <point x="42" y="264" type="curve" smooth="yes"/>
      <point x="42" y="73"/>
      <point x="98" y="-10"/>
    </contour>
  </outline>
</glyph>
<glyph name="g" format="2">
  <advance width="300"/>
  <unicode hex="0067"/>
  <anchor x="149" y="-245" name="bottom"/>
  <anchor x="149" y="535" name="top"/>
  <anchor x="286" y="535" name="topright"/>
  <outline>
    <contour>
      <point x="130" y="-245" type="curve" smooth="yes"/>
      <point x="223" y="-245"/>
      <point x="263" y="-167"/>
      <point x="263" y="-16" type="curve" smooth="yes"/>
      <point x="263" y="535" type="line"/>
      <point x="205" y="535" type="line"/>
      <point x="199" y="463" type="line"/>
      <point x="195" y="463" type="line"/>
      <point x="177" y="517"/>
      <point x="157" y="546"/>
      <point x="126" y="546" type="curve" smooth="yes"/>
      <point x="62" y="546"/>
      <point x="26" y="438"/>
      <point x="26" y="265" type="curve" smooth="yes"/>
      <point x="26" y="91"/>
      <point x="62" y="-9"/>
      <point x="125" y="-9" type="curve" smooth="yes"/>
      <point x="155" y="-9"/>
      <point x="177" y="18"/>
      <point x="193" y="75" type="curve"/>
      <point x="196" y="75" type="line"/>
      <point x="195" y="60"/>
      <point x="194" y="24"/>
      <point x="194" y="6" type="curve" smooth="yes"/>
      <point x="194" y="-22" type="line" smooth="yes"/>
      <point x="194" y="-117"/>
      <point x="171" y="-176"/>
      <point x="125" y="-176" type="curve" smooth="yes"/>
      <point x="100" y="-176"/>
      <point x="71" y="-161"/>
      <point x="41" y="-136" type="curve"/>
      <point x="41" y="-211" type="line"/>
      <point x="68" y="-233"/>
      <point x="94" y="-245"/>
    </contour>
    <contour>
      <point x="149" y="59" type="curve" smooth="yes"/>
      <point x="113" y="59"/>
      <point x="100" y="130"/>
      <point x="100" y="266" type="curve" smooth="yes"/>
      <point x="100" y="401"/>
      <point x="113" y="478"/>
      <point x="151" y="478" type="curve" smooth="yes"/>
      <point x="185" y="478"/>
      <point x="196" y="411"/>
      <point x="196" y="271" type="curve" smooth="yes"/>
      <point x="196" y="245" type="line" smooth="yes"/>
      <point x="196" y="121"/>
      <point x="182" y="59"/>
    </contour>
  </outline>
</glyph>
<glyph name="j" format="2">
  <advance width="300"/>
  <unicode hex="006A"/>
  <anchor x="110" y="-245" name="bottom"/>
  <anchor x="173" y="761" name="top"/>
  <anchor x="279" y="761" name="topright"/>
  <outline>
    <contour>
      <point x="106" y="-245" type="curve" smooth="yes"/>
      <point x="181" y="-245"/>
      <point x="211" y="-187"/>
      <point x="211" y="-64" type="curve" smooth="yes"/>
      <point x="211" y="535" type="line"/>
      <point x="56" y="535" type="line"/>
      <point x="56" y="480" type="line"/>
      <point x="142" y="467" type="line"/>
      <point x="142" y="-69" type="line" smooth="yes"/>
      <point x="142" y="-139"/>
      <point x="131" y="-177"/>
      <point x="96" y="-177" type="curve" smooth="yes"/>
      <point x="81" y="-177"/>
      <point x="48" y="-167"/>
      <point x="28" y="-158" type="curve"/>
      <point x="28" y="-228" type="line"/>
      <point x="49" y="-238"/>
      <point x="83" y="-245"/>
    </contour>
    <contour>
      <point x="173" y="635" type="curve" smooth="yes"/>
      <point x="202" y="635"/>
      <point x="215" y="655"/>
      <point x="215" y="697" type="curve" smooth="yes"/>
      <point x="215" y="740"/>
      <point x="201" y="761"/>
      <point x="173" y="761" type="curve" smooth="yes"/>
      <point x="144" y="761"/>
      <point x="130" y="740"/>
      <point x="130" y="697" type="curve" smooth="yes"/>
      <point x="130" y="656"/>
      <point x="144" y="635"/>
    </contour>
  </outline>
</glyph>
<glyph name="k" format="2">
  <advance width="300"/>
  <unicode hex="006B"/>
  <anchor x="155" y="0" name="bottom"/>
  <anchor x="167" y="760" name="top"/>
  <anchor x="279" y="760" name="topright"/>
  <outline>
    <contour>
      <point x="40" y="0" type="line"/>
      <point x="108" y="0" type="line"/>
      <point x="108" y="200" type="line"/>
      <point x="133" y="246" type="line"/>
      <point x="202" y="0" type="line"/>
      <point x="282" y="0" type="line"/>
      <point x="181" y="304" type="line"/>
      <point x="280" y="535" type="line"/>
      <point x="202" y="535" type="line"/>
      <point x="131" y="337" type="line" smooth="yes"/>
      <point x="123" y="313"/>
      <point x="113" y="294"/>
      <point x="104" y="270" type="curve"/>
      <point x="103" y="270" type="line"/>
      <point x="105" y="320"/>
      <point x="108" y="359"/>
      <point x="108" y="407" type="curve" smooth="yes"/>
      <point x="108" y="760" type="line"/>
      <point x="40" y="760" type="line"/>
    </contour>
  </outline>
</glyph>
<glyph name="l" format="2">
  <advance width="300"/>
  <unicode hex="006C"/>
  <anchor x="153" y="0" name="bottom"/>
  <anchor x="153" y="371" name="center"/>
  <anchor x="150" y="760" name="top"/>
  <anchor x="243" y="760" name="topright"/>
  <outline>
    <contour>
      <point x="37" y="0" type="line"/>
      <point x="264" y="0" type="line"/>
      <point x="264" y="55" type="line"/>
      <point x="186" y="65" type="line"/>
      <point x="186" y="760" type="line"/>
      <point x="48" y="760" type="line"/>
      <point x="48" y="705" type="line"/>
      <point x="118" y="695" type="line"/>
      <point x="118" y="65" type="line"/>
      <point x="37" y="55" type="line"/>
    </contour>
  </outline>
</glyph>
<glyph name="n" format="2">
  <advance width="300"/>
  <unicode hex="006E"/>
  <anchor x="153" y="0" name="bottom"/>
  <anchor x="155" y="535" name="top"/>
  <anchor x="287" y="535" name="topright"/>
  <outline>
    <contour>
      <point x="36" y="0" type="line"/>
      <point x="106" y="0" type="line"/>
      <point x="106" y="282" type="line" smooth="yes"/>
      <point x="106" y="408"/>
      <point x="123" y="478"/>
      <point x="157" y="478" type="curve" smooth="yes"/>
      <point x="183" y="478"/>
      <point x="197" y="433"/>
      <point x="197" y="347" type="curve" smooth="yes"/>
      <point x="197" y="0" type="line"/>
      <point x="266" y="0" type="line"/>
      <point x="266" y="351" type="line" smooth="yes"/>
      <point x="266" y="487"/>
      <point x="234" y="546"/>
      <point x="178" y="546" type="curve" smooth="yes"/>
      <point x="140" y="546"/>
      <point x="117" y="516"/>
      <point x="104" y="460" type="curve"/>
      <point x="101" y="460" type="line"/>
      <point x="93" y="535" type="line"/>
      <point x="36" y="535" type="line"/>
    </contour>
  </outline>
</glyph>
<glyph name="o" format="2">
  <advance width="300"/>
  <unicode hex="006F"/>
  <anchor x="149" y="0" name="bottom"/>
  <anchor x="149" y="268" name="center"/>
  <anchor x="151" y="10" name="ogonek"/>
  <anchor x="149" y="535" name="top"/>
  <anchor x="286" y="535" name="topright"/>
  <outline>
    <contour>
      <point x="150" y="-10" type="curve" smooth="yes"/>
      <point x="243" y="-10"/>
      <point x="273" y="91"/>
      <point x="273" y="267" type="curve" smooth="yes"/>
      <point x="273" y="444"/>
      <point x="226" y="546"/>
      <point x="150" y="546" type="curve" smooth="yes"/>
      <point x="65" y="546"/>
      <point x="26" y="445"/>
      <point x="26" y="270" type="curve" smooth="yes"/>
      <point x="26" y="91"/>
      <point x="60" y="-10"/>
    </contour>
    <contour>
      <point x="150" y="57" type="curve" smooth="yes"/>
      <point x="114" y="57"/>
      <point x="98" y="130"/>
      <point x="98" y="269" type="curve" smooth="yes"/>
      <point x="98" y="408"/>
      <point x="114" y="479"/>
      <point x="150" y="479" type="curve" smooth="yes"/>
      <point x="186" y="479"/>
      <point x="201" y="406"/>
      <point x="201" y="268" type="curve" smooth="yes"/>
      <point x="201" y="130"/>
      <point x="186" y="57"/>
    </contour>
  </outline>
</glyph>
<glyph name="q" format="2">
  <advance width="300"/>
  <unicode hex="0071"/>
  <anchor x="140" y="-239" name="bottom"/>
  <anchor x="140" y="535" name="top"/>
  <anchor x="278" y="535" name="topright"/>
  <outline>
    <contour>
      <point x="196" y="-239" type="line"/>
      <point x="263" y="-239" type="line"/>
      <point x="263" y="535" type="line"/>
      <point x="207" y="535" type="line"/>
      <point x="200" y="460" type="line"/>
      <point x="196" y="460" type="line"/>
      <point x="181" y="507"/>
      <point x="155" y="546"/>
      <point x="127" y="546" type="curve" smooth="yes"/>
      <point x="67" y="546"/>
      <point x="26" y="448"/>
      <point x="26" y="266" type="curve" smooth="yes"/>
      <point x="26" y="85"/>
      <point x="59" y="-10"/>
      <point x="123" y="-10" type="curve" smooth="yes"/>
      <point x="156" y="-10"/>
      <point x="184" y="29"/>
      <point x="197" y="76" type="curve"/>
      <point x="201" y="76" type="line"/>
      <point x="199" y="46"/>
      <point x="196" y="19"/>
      <point x="196" y="-8" type="curve" smooth="yes"/>
    </contour>
    <contour>
      <point x="148" y="59" type="curve" smooth="yes"/>
      <point x="115" y="59"/>
      <point x="100" y="128"/>
      <point x="100" y="266" type="curve" smooth="yes"/>
      <point x="100" y="402"/>
      <point x="115" y="477"/>
      <point x="150" y="477" type="curve" smooth="yes"/>
      <point x="184" y="477"/>
      <point x="197" y="397"/>
      <point x="197" y="270" type="curve" smooth="yes"/>
      <point x="197" y="246" type="line" smooth="yes"/>
      <point x="197" y="138"/>
      <point x="182" y="59"/>
    </contour>
  </outline>
</glyph>
<glyph name="v" format="2">
  <advance width="300"/>
  <unicode hex="0076"/>
  <anchor x="150" y="0" name="bottom"/>
  <anchor x="150" y="535" name="top"/>
  <anchor x="278" y="535" name="topright"/>
  <outline>
    <contour>
      <point x="106" y="0" type="line"/>
      <point x="189" y="0" type="line"/>
      <point x="279" y="535" type="line"/>
      <point x="206" y="535" type="line"/>
      <point x="163" y="216" type="line" smooth="yes"/>
      <point x="157" y="173"/>
      <point x="154" y="110"/>
      <point x="151" y="66" type="curve"/>
      <point x="149" y="66" type="line"/>
      <point x="145" y="110"/>
      <point x="142" y="173"/>
      <point x="136" y="216" type="curve" smooth="yes"/>
      <point x="92" y="535" type="line"/>
      <point x="20" y="535" type="line"/>
    </contour>
  </outline>
</glyph>
<glyph name="w" format="2">
  <advance width="300"/>
  <unicode hex="0077"/>
  <anchor x="150" y="0" name="bottom"/>
  <anchor x="150" y="535" name="top"/>
  <anchor x="288" y="535" name="topright"/>
  <outline>
    <contour>
      <point x="50" y="0" type="line"/>
      <point x="121" y="0" type="line"/>
      <point x="138" y="207" type="line" smooth="yes"/>
      <point x="142" y="259"/>
      <point x="146" y="317"/>
      <point x="148" y="369" type="curve"/>
      <point x="150" y="369" type="line"/>
      <point x="153" y="317"/>
      <point x="156" y="261"/>
      <point x="160" y="209" type="curve" smooth="yes"/>
      <point x="176" y="0" type="line"/>
      <point x="248" y="0" type="line"/>
      <point x="286" y="535" type="line"/>
      <point x="225" y="535" type="line"/>
      <point x="215" y="251" type="line" smooth="yes"/>
      <point x="213" y="191"/>
      <point x="212" y="101"/>
      <point x="212" y="67" type="curve"/>
      <point x="209" y="67" type="line"/>
      <point x="207" y="104"/>
      <point x="204" y="193"/>
      <point x="199" y="236" type="curve" smooth="yes"/>
      <point x="177" y="442" type="line"/>
      <point x="123" y="442" type="line"/>
      <point x="99" y="236" type="line" smooth="yes"/>
      <point x="94" y="193"/>
      <point x="91" y="105"/>
      <point x="90" y="67" type="curve"/>
      <point x="87" y="67" type="line"/>
      <point x="86" y="104"/>
      <point x="86" y="194"/>
      <point x="84" y="251" type="curve" smooth="yes"/>
      <point x="74" y="535" type="line"/>
      <point x="12" y="535" type="line"/>
    </contour>
  </outline>
</glyph>
<glyph name="z" format="2">
  <advance width="300"/>
  <unicode hex="007A"/>
  <anchor x="149" y="0" name="bottom"/>
  <anchor x="149" y="535" name="top"/>
  <anchor x="278" y="535" name="topright"/>
  <outline>
    <contour>
      <point x="41" y="0" type="line"/>
      <point x="258" y="0" type="line"/>
      <point x="258" y="68" type="line"/>
      <point x="127" y="68" type="line"/>
      <point x="252" y="470" type="line"/>
      <point x="252" y="535" type="line"/>
      <point x="47" y="535" type="line"/>
      <point x="47" y="468" type="line"/>
      <point x="171" y="468" type="line"/>
      <point x="41" y="56" type="line"/>
    </contour>
  </outline>
</glyph>
<glyph name="asciitilde" format="2">
  <advance width="300"/>
  <unicode hex="007E"/>
  <outline>
    <contour>
      <point x="33" y="290" type="line"/>
      <point x="52" y="328"/>
      <point x="71" y="349"/>
      <point x="89" y="349" type="curve" smooth="yes"/>
      <point x="106" y="349"/>
      <point x="124" y="339"/>
      <point x="143" y="322" type="curve" smooth="yes"/>
      <point x="165" y="303"/>
      <point x="183" y="293"/>
      <point x="206" y="293" type="curve" smooth="yes"/>
      <point x="230" y="293"/>
      <point x="251" y="311"/>
      <point x="266" y="342" type="curve"/>
      <point x="266" y="414" type="line"/>
      <point x="249" y="380"/>
      <point x="228" y="357"/>
      <point x="211" y="357" type="curve" smooth="yes"/>
      <point x="194" y="357"/>
      <point x="178" y="366"/>
      <point x="157" y="384" type="curve" smooth="yes"/>
      <point x="136" y="402"/>
      <point x="117" y="414"/>
      <point x="94" y="414" type="curve" smooth="yes"/>
      <point x="69" y="414"/>
      <point x="49" y="396"/>
      <point x="33" y="363" type="curve"/>
    </contour>
  </outline>
</glyph>
<glyph name="cent" format="2">
  <advance width="300"/>
  <unicode hex="00A2"/>
  <outline>
    <contour>
      <point x="157" y="-10" type="line"/>
      <point x="195" y="-10" type="line"/>
      <point x="195" y="89" type="line"/>
      <point x="215" y="93"/>
      <point x="235" y="102"/>
      <point x="249" y="115" type="curve"/>
      <point x="249" y="181" type="line"/>
      <point x="230" y="165"/>
      <point x="206" y="155"/>
      <point x="185" y="155" type="curve" smooth="yes"/>
      <point x="137" y="155"/>
      <point x="116" y="223"/>
      <point x="116" y="364" type="curve" smooth="yes"/>
      <point x="116" y="504"/>
      <point x="140" y="577"/>
      <point x="187" y="577" type="curve" smooth="yes"/>
      <point x="202" y="577"/>
      <point x="220" y="571"/>
      <point x="237" y="557" type="curve"/>
      <point x="255" y="619" type="line"/>
      <point x="238" y="633"/>
      <point x="215" y="641"/>
      <point x="194" y="643" type="curve"/>
      <point x="194" y="724" type="line"/>
      <point x="157" y="724" type="line"/>
      <point x="157" y="641" type="line"/>
      <point x="87" y="624"/>
      <point x="52" y="524"/>
      <point x="52" y="363" type="curve" smooth="yes"/>
      <point x="52" y="202"/>
      <point x="84" y="104"/>
      <point x="157" y="90" type="curve"/>
    </contour>
  </outline>
</glyph>
<glyph name="currency" format="2">
  <advance width="300"/>
  <unicode hex="00A4"/>
  <outline>
    <contour>
      <point x="247" y="132" type="line"/>
      <point x="277" y="170" type="line"/>
      <point x="241" y="236" type="line"/>
      <point x="253" y="271"/>
      <point x="259" y="310"/>
      <point x="259" y="353" type="curve" smooth="yes"/>
      <point x="259" y="396"/>
      <point x="252" y="435"/>
      <point x="241" y="469" type="curve"/>
      <point x="277" y="536" type="line"/>
      <point x="247" y="573" type="line"/>
      <point x="209" y="507" type="line"/>
      <point x="191" y="534"/>
      <point x="171" y="546"/>
      <point x="150" y="546" type="curve" smooth="yes"/>
      <point x="128" y="546"/>
      <point x="107" y="533"/>
      <point x="89" y="506" type="curve"/>
      <point x="53" y="573" type="line"/>
      <point x="22" y="535" type="line"/>
      <point x="59" y="468" type="line"/>
      <point x="47" y="434"/>
      <point x="40" y="395"/>
      <point x="40" y="353" type="curve" smooth="yes"/>
      <point x="40" y="311"/>
      <point x="47" y="272"/>
      <point x="59" y="237" type="curve"/>
      <point x="23" y="172" type="line"/>
      <point x="53" y="133" type="line"/>
      <point x="89" y="199" type="line"/>
      <point x="106" y="173"/>
      <point x="126" y="160"/>
      <point x="150" y="160" type="curve" smooth="yes"/>
      <point x="171" y="160"/>
      <point x="192" y="173"/>
      <point x="210" y="198" type="curve"/>
    </contour>
    <contour>
      <point x="150" y="218" type="curve" smooth="yes"/>
      <point x="111" y="218"/>
      <point x="84" y="279"/>
      <point x="84" y="352" type="curve" smooth="yes"/>
      <point x="84" y="427"/>
      <point x="112" y="489"/>
      <point x="150" y="489" type="curve" smooth="yes"/>
      <point x="188" y="489"/>
      <point x="216" y="430"/>
      <point x="216" y="354" type="curve" smooth="yes"/>
      <point x="216" y="280"/>
      <point x="189" y="218"/>
    </contour>
  </outline>
</glyph>
<glyph name="brokenbar" format="2">
  <advance width="300"/>
  <unicode hex="00A6"/>
  <outline>
    <contour>
      <point x="118" y="370" type="line"/>
      <point x="176" y="370" type="line"/>
      <point x="176" y="759" type="line"/>
      <point x="118" y="759" type="line"/>
    </contour>
    <contour>
      <point x="118" y="-238" type="line"/>
      <point x="176" y="-238" type="line"/>
      <point x="176" y="153" type="line"/>
      <point x="118" y="153" type="line"/>
    </contour>
  </outline>
</glyph>
<glyph name="section" format="2">
  <advance width="300"/>
  <unicode hex="00A7"/>
  <outline>
    <contour>
      <point x="131" y="-9" type="curve" smooth="yes"/>
      <point x="198" y="-9"/>
      <point x="239" y="44"/>
      <point x="239" y="133" type="curve" smooth="yes"/>
      <point x="239" y="178"/>
      <point x="229" y="208"/>
      <point x="206" y="246" type="curve"/>
      <point x="233" y="268"/>
      <point x="249" y="319"/>
      <point x="249" y="379" type="curve" smooth="yes"/>
      <point x="249" y="469"/>
      <point x="218" y="499"/>
      <point x="170" y="537" type="curve" smooth="yes"/>
      <point x="143" y="559"/>
      <point x="122" y="589"/>
      <point x="122" y="639" type="curve" smooth="yes"/>
      <point x="122" y="684"/>
      <point x="139" y="709"/>
      <point x="166" y="709" type="curve" smooth="yes"/>
      <point x="188" y="709"/>
      <point x="209" y="701"/>
      <point x="229" y="681" type="curve"/>
      <point x="247" y="735" type="line"/>
      <point x="221" y="757"/>
      <point x="196" y="766"/>
      <point x="167" y="766" type="curve" smooth="yes"/>
      <point x="107" y="766"/>
      <point x="67" y="720"/>
      <point x="67" y="635" type="curve" smooth="yes"/>
      <point x="67" y="581"/>
      <point x="80" y="545"/>
      <point x="104" y="515" type="curve"/>
      <point x="72" y="494"/>
      <point x="55" y="453"/>
      <point x="55" y="389" type="curve" smooth="yes"/>
      <point x="55" y="326"/>
      <point x="85" y="292"/>
      <point x="133" y="242" type="curve" smooth="yes"/>
      <point x="165" y="209"/>
      <point x="184" y="184"/>
      <point x="184" y="131" type="curve" smooth="yes"/>
      <point x="184" y="75"/>
      <point x="163" y="48"/>
      <point x="132" y="48" type="curve" smooth="yes"/>
      <point x="104" y="48"/>
      <point x="73" y="65"/>
      <point x="51" y="89" type="curve"/>
      <point x="51" y="22" type="line"/>
      <point x="72" y="2"/>
      <point x="99" y="-9"/>
    </contour>
    <contour>
      <point x="172" y="277" type="curve"/>
      <point x="151" y="298" type="line" smooth="yes"/>
      <point x="125" y="324"/>
      <point x="107" y="343"/>
      <point x="107" y="400" type="curve" smooth="yes"/>
      <point x="107" y="440"/>
      <point x="118" y="474"/>
      <point x="138" y="486" type="curve"/>
      <point x="182" y="442"/>
      <point x="197" y="417"/>
      <point x="197" y="368" type="curve" smooth="yes"/>
      <point x="197" y="328"/>
      <point x="188" y="292"/>
    </contour>
  </outline>
</glyph>
<glyph name="dieresis" format="2">
  <advance width="300"/>
  <unicode hex="00A8"/>
  <anchor x="150" y="535" name="_top"/>
  <anchor x="150" y="645" name="top"/>
  <outline>
    <contour>
      <point x="200" y="626" type="curve" smooth="yes"/>
      <point x="220" y="626"/>
      <point x="232" y="645"/>
      <point x="232" y="685" type="curve" smooth="yes"/>
      <point x="232" y="724"/>
      <point x="220" y="742"/>
      <point x="200" y="742" type="curve" smooth="yes"/>
      <point x="181" y="742"/>
      <point x="169" y="724"/>
      <point x="169" y="685" type="curve" smooth="yes"/>
      <point x="169" y="646"/>
      <point x="181" y="626"/>
    </contour>
    <contour>
      <point x="98" y="626" type="curve" smooth="yes"/>
      <point x="118" y="626"/>
      <point x="130" y="645"/>
      <point x="130" y="685" type="curve" smooth="yes"/>
      <point x="130" y="723"/>
      <point x="118" y="742"/>
      <point x="98" y="742" type="curve" smooth="yes"/>
      <point x="80" y="742"/>
      <point x="67" y="724"/>
      <point x="67" y="685" type="curve" smooth="yes"/>
      <point x="67" y="646"/>
      <point x="80" y="626"/>
    </contour>
  </outline>
</glyph>
<glyph name="copyright" format="2">
  <advance width="300"/>
  <unicode hex="00A9"/>
  <outline>
    <contour>
      <point x="149" y="133" type="curve"/>
      <point x="220" y="133"/>
      <point x="278" y="224"/>
      <point x="278" y="360" type="curve" smooth="yes"/>
      <point x="278" y="494"/>
      <point x="222" y="587"/>
      <point x="150" y="587" type="curve" smooth="yes"/>
      <point x="79" y="587"/>
      <point x="20" y="494"/>
      <point x="20" y="359" type="curve" smooth="yes"/>
      <point x="20" y="226"/>
      <point x="72" y="133"/>
    </contour>
    <contour>
      <point x="150" y="217" type="curve" smooth="yes"/>
      <point x="166" y="217"/>
      <point x="180" y="222"/>
      <point x="194" y="230" type="curve"/>
      <point x="194" y="273" type="line"/>
      <point x="180" y="264"/>
      <point x="166" y="259"/>
      <point x="153" y="259" type="curve" smooth="yes"/>
      <point x="127" y="259"/>
      <point x="112" y="294"/>
      <point x="112" y="356" type="curve" smooth="yes"/>
      <point x="112" y="423"/>
      <point x="128" y="458"/>
      <point x="152" y="458" type="curve" smooth="yes"/>
      <point x="164" y="458"/>
      <point x="176" y="454"/>
      <point x="188" y="443" type="curve"/>
      <point x="200" y="483" type="line"/>
      <point x="184" y="495"/>
      <point x="168" y="502"/>
      <point x="150" y="502" type="curve" smooth="yes"/>
      <point x="103" y="502"/>
      <point x="76" y="442"/>
      <point x="76" y="356" type="curve" smooth="yes"/>
      <point x="76" y="274"/>
      <point x="104" y="217"/>
    </contour>
    <contour>
      <point x="149" y="173" type="curve"/>
      <point x="94" y="173"/>
      <point x="52" y="248"/>
      <point x="52" y="360" type="curve" smooth="yes"/>
      <point x="52" y="475"/>
      <point x="93" y="545"/>
      <point x="149" y="545" type="curve" smooth="yes"/>
      <point x="204" y="545"/>
      <point x="246" y="472"/>
      <point x="246" y="358" type="curve" smooth="yes"/>
      <point x="246" y="243"/>
      <point x="205" y="173"/>
    </contour>
  </outline>
</glyph>
<glyph name="ordfeminine" format="2">
  <advance width="300"/>
  <unicode hex="00AA"/>
  <outline>
    <contour>
      <point x="129" y="383" type="curve" smooth="yes"/>
      <point x="157" y="383"/>
      <point x="173" y="399"/>
      <point x="183" y="436" type="curve"/>
      <point x="191" y="389" type="line"/>
      <point x="225" y="389" type="line"/>
      <point x="225" y="611" type="line" smooth="yes"/>
      <point x="225" y="685"/>
      <point x="201" y="722"/>
      <point x="153" y="722" type="curve" smooth="yes"/>
      <point x="130" y="722"/>
      <point x="107" y="713"/>
      <point x="86" y="695" type="curve"/>
      <point x="100" y="652" type="line"/>
      <point x="116" y="666"/>
      <point x="131" y="674"/>
      <point x="148" y="674" type="curve" smooth="yes"/>
      <point x="169" y="674"/>
      <point x="179" y="657"/>
      <point x="179" y="616" type="curve" smooth="yes"/>
      <point x="179" y="594" type="line"/>
      <point x="154" y="590" type="line" smooth="yes"/>
      <point x="111" y="583"/>
      <point x="75" y="549"/>
      <point x="75" y="481" type="curve" smooth="yes"/>
      <point x="75" y="419"/>
      <point x="95" y="383"/>
    </contour>
    <contour>
      <point x="144" y="434" type="curve" smooth="yes"/>
      <point x="130" y="434"/>
      <point x="121" y="450"/>
      <point x="121" y="484" type="curve" smooth="yes"/>
      <point x="121" y="526"/>
      <point x="133" y="537"/>
      <point x="158" y="542" type="curve" smooth="yes"/>
      <point x="179" y="546" type="line"/>
      <point x="179" y="519" type="line" smooth="yes"/>
      <point x="179" y="467"/>
      <point x="166" y="434"/>
    </contour>
  </outline>
</glyph>
<glyph name="logicalnot" format="2">
  <advance width="300"/>
  <unicode hex="00AC"/>
  <outline>
    <contour>
      <point x="206" y="121" type="line"/>
      <point x="261" y="121" type="line"/>
      <point x="261" y="385" type="line"/>
      <point x="36" y="385" type="line"/>
      <point x="36" y="321" type="line"/>
      <point x="206" y="321" type="line"/>
    </contour>
  </outline>
</glyph>
<glyph name="degree" format="2">
  <advance width="300"/>
  <unicode hex="00B0"/>
  <outline>
    <contour>
      <point x="150" y="455" type="curve" smooth="yes"/>
      <point x="194" y="455"/>
      <point x="231" y="506"/>
      <point x="231" y="588" type="curve" smooth="yes"/>
      <point x="231" y="671"/>
      <point x="194" y="723"/>
      <point x="150" y="723" type="curve" smooth="yes"/>
      <point x="105" y="723"/>
      <point x="69" y="672"/>
      <point x="69" y="589" type="curve" smooth="yes"/>
      <point x="69" y="506"/>
      <point x="105" y="455"/>
    </contour>
    <contour>
      <point x="150" y="505" type="curve" smooth="yes"/>
      <point x="127" y="505"/>
      <point x="109" y="535"/>
      <point x="109" y="588" type="curve" smooth="yes"/>
      <point x="109" y="639"/>
      <point x="126" y="674"/>
      <point x="150" y="674" type="curve" smooth="yes"/>
      <point x="173" y="674"/>
      <point x="191" y="642"/>
      <point x="191" y="589" type="curve" smooth="yes"/>
      <point x="191" y="536"/>
      <point x="173" y="505"/>
    </contour>
  </outline>
</glyph>
<glyph name="twosuperior" format="2">
  <advance width="300"/>
  <unicode hex="00B2"/>
  <outline>
    <contour>
      <point x="75" y="415" type="line"/>
      <point x="230" y="415" type="line"/>
      <point x="230" y="469" type="line"/>
      <point x="130" y="469" type="line"/>
      <point x="153" y="532" type="line" smooth="yes"/>
      <point x="190" y="634"/>
      <point x="224" y="668"/>
      <point x="224" y="739" type="curve" smooth="yes"/>
      <point x="224" y="808"/>
      <point x="196" y="853"/>
      <point x="150" y="853" type="curve" smooth="yes"/>
      <point x="115" y="853"/>
      <point x="88" y="832"/>
      <point x="74" y="798" type="curve"/>
      <point x="97" y="756" type="line"/>
      <point x="113" y="784"/>
      <point x="127" y="797"/>
      <point x="143" y="797" type="curve" smooth="yes"/>
      <point x="163" y="797"/>
      <point x="174" y="772"/>
      <point x="174" y="736" type="curve" smooth="yes"/>
      <point x="174" y="682"/>
      <point x="161" y="649"/>
      <point x="127" y="577" type="curve" smooth="yes"/>
      <point x="75" y="467" type="line"/>
    </contour>
  </outline>
</glyph>
<glyph name="acute" format="2">
  <advance width="300"/>
  <unicode hex="00B4"/>
  <outline>
    <contour>
      <point x="104" y="606" type="line"/>
      <point x="150" y="606" type="line"/>
      <point x="175" y="642"/>
      <point x="211" y="715"/>
      <point x="227" y="757" type="curve"/>
      <point x="227" y="766" type="line"/>
      <point x="154" y="766" type="line"/>
      <point x="141" y="721"/>
      <point x="124" y="670"/>
      <point x="104" y="617" type="curve"/>
    </contour>
  </outline>
</glyph>
<glyph name="micro" format="2">
  <advance width="300"/>
  <unicode hex="00B5"/>
  <anchor x="160" y="535" name="top"/>
  <anchor x="271" y="10" name="ogonek"/>
  <anchor x="288" y="535" name="topright"/>
  <anchor x="160" y="0" name="bottom"/>
  <outline>
    <contour>
      <point x="33" y="-240" type="line"/>
      <point x="101" y="-240" type="line"/>
      <point x="101" y="227" type="line"/>
      <point x="33" y="227" type="line"/>
    </contour>
    <component base="u" xOffset="10"/>
  </outline>
</glyph>
<glyph name="onesuperior" format="2">
  <advance width="300"/>
  <unicode hex="00B9"/>
  <outline>
    <contour>
      <point x="140" y="415" type="line"/>
      <point x="187" y="415" type="line"/>
      <point x="187" y="843" type="line"/>
      <point x="147" y="843" type="line"/>
      <point x="69" y="748" type="line"/>
      <point x="92" y="706" type="line"/>
      <point x="117" y="748" type="line" smooth="yes"/>
      <point x="123" y="757"/>
      <point x="133" y="764"/>
      <point x="141" y="772" type="curve"/>
      <point x="140" y="741"/>
      <point x="140" y="710"/>
      <point x="140" y="680" type="curve" smooth="yes"/>
    </contour>
    <contour>
      <point x="84" y="415" type="line"/>
      <point x="238" y="415" type="line"/>
      <point x="238" y="459" type="line"/>
      <point x="175" y="464" type="line"/>
      <point x="152" y="464" type="line"/>
      <point x="84" y="459" type="line"/>
    </contour>
  </outline>
</glyph>
<glyph name="multiply" format="2">
  <advance width="300"/>
  <unicode hex="00D7"/>
  <outline>
    <contour>
      <point x="72" y="170" type="line"/>
      <point x="147" y="309" type="line"/>
      <point x="222" y="171" type="line"/>
      <point x="260" y="214" type="line"/>
      <point x="185" y="353" type="line"/>
      <point x="261" y="494" type="line"/>
      <point x="223" y="537" type="line"/>
      <point x="147" y="397" type="line"/>
      <point x="73" y="536" type="line"/>
      <point x="36" y="491" type="line"/>
      <point x="110" y="353" type="line"/>
      <point x="36" y="214" type="line"/>
    </contour>
  </outline>
</glyph>
<glyph name="Oslash" format="2">
  <advance width="300"/>
  <unicode hex="00D8"/>
  <anchor x="150" y="0" name="bottom"/>
  <anchor x="150" y="714" name="top"/>
  <anchor x="31" y="714" name="topleft"/>
  <anchor x="166" y="10" name="ogonek"/>
  <anchor x="159" y="357" name="center"/>
  <anchor x="299" y="714" name="topright"/>
  <outline>
    <contour>
      <point x="57" y="-39" type="line"/>
      <point x="279" y="718" type="line"/>
      <point x="245" y="749" type="line"/>
      <point x="22" y="-9" type="line"/>
    </contour>
    <component base="O" xOffset="10"/>
  </outline>
</glyph>
<glyph name="Thorn" format="2">
  <advance width="300"/>
  <unicode hex="00DE"/>
  <anchor x="150" y="0" name="bottom"/>
  <anchor x="150" y="714" name="top"/>
  <outline>
    <contour>
      <point x="41" y="0" type="line"/>
      <point x="111" y="0" type="line"/>
      <point x="111" y="160" type="line"/>
      <point x="147" y="160" type="line" smooth="yes"/>
      <point x="236" y="160"/>
      <point x="272" y="253"/>
      <point x="272" y="385" type="curve" smooth="yes"/>
      <point x="272" y="519"/>
      <point x="232" y="593"/>
      <point x="148" y="593" type="curve" smooth="yes"/>
      <point x="111" y="593" type="line"/>
      <point x="111" y="714" type="line"/>
      <point x="41" y="714" type="line"/>
    </contour>
    <contour>
      <point x="111" y="232" type="line"/>
      <point x="111" y="521" type="line"/>
      <point x="145" y="521" type="line" smooth="yes"/>
      <point x="185" y="521"/>
      <point x="205" y="477"/>
      <point x="205" y="381" type="curve" smooth="yes"/>
      <point x="205" y="272"/>
      <point x="186" y="232"/>
      <point x="139" y="232" type="curve" smooth="yes"/>
    </contour>
  </outline>
</glyph>
<glyph name="germandbls" format="2">
  <advance width="300"/>
  <unicode hex="00DF"/>
  <anchor x="150" y="0" name="bottom"/>
  <anchor x="150" y="765" name="top"/>
  <outline>
    <contour>
      <point x="184" y="-10" type="curve" smooth="yes"/>
      <point x="243" y="-10"/>
      <point x="276" y="50"/>
      <point x="276" y="146" type="curve" smooth="yes"/>
      <point x="276" y="215"/>
      <point x="256" y="246"/>
      <point x="234" y="313" type="curve" smooth="yes"/>
      <point x="219" y="356"/>
      <point x="209" y="377"/>
      <point x="209" y="410" type="curve" smooth="yes"/>
      <point x="209" y="495"/>
      <point x="249" y="509"/>
      <point x="249" y="620" type="curve" smooth="yes"/>
      <point x="249" y="710"/>
      <point x="208" y="765"/>
      <point x="149" y="765" type="curve" smooth="yes"/>
      <point x="78" y="765"/>
      <point x="37" y="693"/>
      <point x="37" y="587" type="curve" smooth="yes"/>
      <point x="37" y="0" type="line"/>
      <point x="103" y="0" type="line"/>
      <point x="103" y="571" type="line" smooth="yes"/>
      <point x="103" y="655"/>
      <point x="114" y="698"/>
      <point x="146" y="698" type="curve" smooth="yes"/>
      <point x="172" y="698"/>
      <point x="182" y="668"/>
      <point x="182" y="617" type="curve" smooth="yes"/>
      <point x="182" y="522"/>
      <point x="142" y="507"/>
      <point x="142" y="408" type="curve" smooth="yes"/>
      <point x="142" y="345"/>
      <point x="162" y="303"/>
      <point x="182" y="264" type="curve" smooth="yes"/>
      <point x="204" y="222"/>
      <point x="209" y="196"/>
      <point x="209" y="144" type="curve" smooth="yes"/>
      <point x="209" y="90"/>
      <point x="198" y="59"/>
      <point x="175" y="59" type="curve" smooth="yes"/>
      <point x="158" y="59"/>
      <point x="144" y="73"/>
      <point x="126" y="91" type="curve"/>
      <point x="126" y="17" type="line"/>
      <point x="145" y="-2"/>
      <point x="162" y="-10"/>
    </contour>
  </outline>
</glyph>
<glyph name="ae" format="2">
  <advance width="300"/>
  <unicode hex="00E6"/>
  <anchor x="149" y="0" name="bottom"/>
  <anchor x="149" y="535" name="top"/>
  <outline>
    <contour>
      <point x="86" y="-10" type="curve" smooth="yes"/>
      <point x="117" y="-10"/>
      <point x="134" y="22"/>
      <point x="150" y="106" type="curve"/>
      <point x="167" y="21"/>
      <point x="190" y="-10"/>
      <point x="221" y="-10" type="curve" smooth="yes"/>
      <point x="241" y="-10"/>
      <point x="258" y="-1"/>
      <point x="274" y="26" type="curve"/>
      <point x="274" y="99" type="line"/>
      <point x="257" y="69"/>
      <point x="245" y="59"/>
      <point x="231" y="59" type="curve" smooth="yes"/>
      <point x="201" y="59"/>
      <point x="182" y="107"/>
      <point x="182" y="254" type="curve"/>
      <point x="284" y="254" type="line"/>
      <point x="284" y="305" type="line" smooth="yes"/>
      <point x="284" y="457"/>
      <point x="266" y="545"/>
      <point x="210" y="545" type="curve" smooth="yes"/>
      <point x="187" y="545"/>
      <point x="168" y="510"/>
      <point x="154" y="457" type="curve"/>
      <point x="141" y="520"/>
      <point x="120" y="545"/>
      <point x="94" y="545" type="curve" smooth="yes"/>
      <point x="70" y="545"/>
      <point x="45" y="525"/>
      <point x="23" y="499" type="curve"/>
      <point x="45" y="441" type="line"/>
      <point x="59" y="463"/>
      <point x="73" y="477"/>
      <point x="86" y="477" type="curve" smooth="yes"/>
      <point x="106" y="477"/>
      <point x="119" y="445"/>
      <point x="121" y="357" type="curve" smooth="yes"/>
      <point x="122" y="321" type="line"/>
      <point x="96" y="318" type="line" smooth="yes"/>
      <point x="43" y="312"/>
      <point x="15" y="255"/>
      <point x="15" y="145" type="curve" smooth="yes"/>
      <point x="15" y="44"/>
      <point x="39" y="-10"/>
    </contour>
    <contour>
      <point x="95" y="59" type="curve" smooth="yes"/>
      <point x="80" y="59"/>
      <point x="72" y="85"/>
      <point x="72" y="146" type="curve" smooth="yes"/>
      <point x="72" y="221"/>
      <point x="85" y="254"/>
      <point x="108" y="257" type="curve" smooth="yes"/>
      <point x="121" y="259" type="line"/>
      <point x="121" y="213" type="line" smooth="yes"/>
      <point x="121" y="103"/>
      <point x="114" y="59"/>
    </contour>
    <contour>
      <point x="182" y="320" type="line"/>
      <point x="183" y="424"/>
      <point x="193" y="477"/>
      <point x="208" y="477" type="curve" smooth="yes"/>
      <point x="223" y="477"/>
      <point x="230" y="423"/>
      <point x="230" y="320" type="curve"/>
    </contour>
  </outline>
</glyph>
<glyph name="eth" format="2">
  <advance width="300"/>
  <unicode hex="00F0"/>
  <anchor x="149" y="0" name="bottom"/>
  <anchor x="149" y="268" name="center"/>
  <anchor x="149" y="764" name="top"/>
  <anchor x="278" y="760" name="topright"/>
  <outline>
    <contour>
      <point x="149" y="-10" type="curve" smooth="yes"/>
      <point x="228" y="-10"/>
      <point x="273" y="84"/>
      <point x="273" y="267" type="curve" smooth="yes"/>
      <point x="273" y="486"/>
      <point x="217" y="668"/>
      <point x="112" y="763" type="curve"/>
      <point x="83" y="713" type="line"/>
      <point x="126" y="647"/>
      <point x="176" y="548"/>
      <point x="188" y="421" type="curve"/>
      <point x="187" y="419" type="line"/>
      <point x="176" y="456"/>
      <point x="160" y="473"/>
      <point x="138" y="473" type="curve" smooth="yes"/>
      <point x="76" y="473"/>
      <point x="26" y="384"/>
      <point x="26" y="232" type="curve" smooth="yes"/>
      <point x="26" y="92"/>
      <point x="71" y="-10"/>
    </contour>
    <contour>
      <point x="149" y="57" type="curve" smooth="yes"/>
      <point x="111" y="57"/>
      <point x="93" y="131"/>
      <point x="93" y="230" type="curve" smooth="yes"/>
      <point x="93" y="344"/>
      <point x="112" y="406"/>
      <point x="150" y="406" type="curve" smooth="yes"/>
      <point x="189" y="406"/>
      <point x="206" y="334"/>
      <point x="206" y="245" type="curve" smooth="yes"/>
      <point x="206" y="123"/>
      <point x="188" y="57"/>
    </contour>
    <contour>
      <point x="103" y="559" type="line"/>
      <point x="228" y="714" type="line"/>
      <point x="202" y="764" type="line"/>
      <point x="78" y="610" type="line"/>
    </contour>
  </outline>
</glyph>
<glyph name="divide" format="2">
  <advance width="300"/>
  <unicode hex="00F7"/>
  <outline>
    <contour>
      <point x="35" y="321" type="line"/>
      <point x="264" y="321" type="line"/>
      <point x="264" y="385" type="line"/>
      <point x="35" y="385" type="line"/>
    </contour>
    <contour>
      <point x="150" y="115" type="curve" smooth="yes"/>
      <point x="172" y="115"/>
      <point x="185" y="134"/>
      <point x="185" y="174" type="curve" smooth="yes"/>
      <point x="185" y="213"/>
      <point x="173" y="233"/>
      <point x="150" y="233" type="curve" smooth="yes"/>
      <point x="127" y="233"/>
      <point x="115" y="213"/>
      <point x="115" y="174" type="curve" smooth="yes"/>
      <point x="115" y="135"/>
      <point x="128" y="115"/>
    </contour>
    <contour>
      <point x="150" y="472" type="curve" smooth="yes"/>
      <point x="172" y="472"/>
      <point x="185" y="491"/>
      <point x="185" y="531" type="curve" smooth="yes"/>
      <point x="185" y="570"/>
      <point x="173" y="590"/>
      <point x="150" y="590" type="curve" smooth="yes"/>
      <point x="127" y="590"/>
      <point x="115" y="570"/>
      <point x="115" y="531" type="curve" smooth="yes"/>
      <point x="115" y="492"/>
      <point x="128" y="472"/>
    </contour>
  </outline>
</glyph>
<glyph name="ij" format="2">
  <advance width="300"/>
  <unicode hex="0133"/>
  <anchor x="159" y="-245" name="bottom"/>
  <anchor x="10" y="0" name="caret_1"/>
  <anchor x="153" y="761" name="top"/>
  <outline>
    <contour>
      <point x="146" y="-245" type="curve" smooth="yes"/>
      <point x="218" y="-245"/>
      <point x="249" y="-187"/>
      <point x="249" y="-64" type="curve" smooth="yes"/>
      <point x="249" y="535" type="line"/>
      <point x="180" y="535" type="line"/>
      <point x="180" y="-69" type="line" smooth="yes"/>
      <point x="180" y="-139"/>
      <point x="168" y="-177"/>
      <point x="133" y="-177" type="curve" smooth="yes"/>
      <point x="116" y="-177"/>
      <point x="92" y="-167"/>
      <point x="73" y="-158" type="curve"/>
      <point x="73" y="-228" type="line"/>
      <point x="95" y="-238"/>
      <point x="122" y="-245"/>
    </contour>
    <contour>
      <point x="53" y="0" type="line"/>
      <point x="121" y="0" type="line"/>
      <point x="121" y="535" type="line"/>
      <point x="53" y="535" type="line"/>
    </contour>
    <contour>
      <point x="88" y="635" type="curve" smooth="yes"/>
      <point x="117" y="635"/>
      <point x="129" y="655"/>
      <point x="129" y="698" type="curve" smooth="yes"/>
      <point x="129" y="740"/>
      <point x="116" y="761"/>
      <point x="88" y="761" type="curve" smooth="yes"/>
      <point x="59" y="761"/>
      <point x="45" y="740"/>
      <point x="45" y="698" type="curve" smooth="yes"/>
      <point x="45" y="656"/>
      <point x="60" y="635"/>
    </contour>
    <contour>
      <point x="211" y="635" type="curve" smooth="yes"/>
      <point x="240" y="635"/>
      <point x="254" y="655"/>
      <point x="254" y="698" type="curve" smooth="yes"/>
      <point x="254" y="740"/>
      <point x="240" y="761"/>
      <point x="211" y="761" type="curve" smooth="yes"/>
      <point x="183" y="761"/>
      <point x="169" y="740"/>
      <point x="169" y="698" type="curve" smooth="yes"/>
      <point x="169" y="656"/>
      <point x="183" y="635"/>
    </contour>
  </outline>
</glyph>
<glyph name="kgreenlandic" format="2">
  <advance width="300"/>
  <unicode hex="0138"/>
  <anchor x="150" y="0" name="bottom"/>
  <anchor x="150" y="535" name="top"/>
  <outline>
    <contour>
      <point x="40" y="0" type="line"/>
      <point x="108" y="0" type="line"/>
      <point x="108" y="200" type="line"/>
      <point x="133" y="246" type="line"/>
      <point x="202" y="0" type="line"/>
      <point x="282" y="0" type="line"/>
      <point x="181" y="304" type="line"/>
      <point x="280" y="535" type="line"/>
      <point x="202" y="535" type="line"/>
      <point x="131" y="337" type="line" smooth="yes"/>
      <point x="123" y="313"/>
      <point x="113" y="294"/>
      <point x="104" y="270" type="curve"/>
      <point x="103" y="270" type="line"/>
      <point x="105" y="320"/>
      <point x="108" y="359"/>
      <point x="108" y="407" type="curve" smooth="yes"/>
      <point x="108" y="535" type="line"/>
      <point x="40" y="535" type="line"/>
    </contour>
  </outline>
</glyph>
<glyph name="Lslash" format="2">
  <advance width="300"/>
  <unicode hex="0141"/>
  <anchor x="181" y="0" name="bottom"/>
  <anchor x="100" y="714" name="top"/>
  <anchor x="219" y="714" name="topright"/>
  <anchor x="150" y="357" name="center"/>
  <outline>
    <contour>
      <point x="7" y="284" type="line"/>
      <point x="214" y="452" type="line"/>
      <point x="214" y="518" type="line"/>
      <point x="7" y="350" type="line"/>
    </contour>
    <component base="L"/>
  </outline>
</glyph>
<glyph name="napostrophe" format="2">
  <advance width="300"/>
  <unicode hex="0149"/>
  <anchor x="156" y="0" name="bottom"/>
  <anchor x="158" y="535" name="top"/>
  <outline>
    <contour>
      <point x="42" y="0" type="line"/>
      <point x="112" y="0" type="line"/>
      <point x="112" y="282" type="line" smooth="yes"/>
      <point x="112" y="408"/>
      <point x="128" y="478"/>
      <point x="159" y="478" type="curve" smooth="yes"/>
      <point x="184" y="478"/>
      <point x="197" y="433"/>
      <point x="197" y="347" type="curve" smooth="yes"/>
      <point x="197" y="0" type="line"/>
      <point x="267" y="0" type="line"/>
      <point x="267" y="351" type="line" smooth="yes"/>
      <point x="267" y="487"/>
      <point x="235" y="546"/>
      <point x="183" y="546" type="curve" smooth="yes"/>
      <point x="145" y="546"/>
      <point x="124" y="516"/>
      <point x="111" y="460" type="curve"/>
      <point x="107" y="460" type="line"/>
      <point x="99" y="535" type="line"/>
      <point x="42" y="535" type="line"/>
    </contour>
    <component base="quoteright" xOffset="-141"/>
  </outline>
</glyph>
<glyph name="Eng" format="2">
  <advance width="300"/>
  <unicode hex="014A"/>
  <anchor x="145" y="-190" name="bottom"/>
  <anchor x="142" y="714" name="top"/>
  <anchor x="289" y="714" name="topright"/>
  <outline>
    <contour>
      <point x="173" y="-190" type="curve" smooth="yes"/>
      <point x="240" y="-190"/>
      <point x="270" y="-128"/>
      <point x="270" y="4" type="curve" smooth="yes"/>
      <point x="270" y="63" type="line"/>
      <point x="214" y="63" type="line"/>
      <point x="214" y="1" type="line" smooth="yes"/>
      <point x="214" y="-93"/>
      <point x="198" y="-131"/>
      <point x="163" y="-131" type="curve" smooth="yes"/>
      <point x="151" y="-131"/>
      <point x="140" y="-127"/>
      <point x="131" y="-121" type="curve"/>
      <point x="131" y="-178" type="line"/>
      <point x="143" y="-186"/>
      <point x="158" y="-190"/>
    </contour>
    <component base="N"/>
  </outline>
</glyph>
<glyph name="eng" format="2">
  <advance width="300"/>
  <unicode hex="014B"/>
  <anchor x="153" y="-240" name="bottom"/>
  <anchor x="155" y="535" name="top"/>
  <anchor x="287" y="535" name="topright"/>
  <outline>
    <contour>
      <point x="179" y="-240" type="curve" smooth="yes"/>
      <point x="237" y="-240"/>
      <point x="266" y="-182"/>
      <point x="266" y="-84" type="curve" smooth="yes"/>
      <point x="266" y="261" type="line"/>
      <point x="196" y="257" type="line"/>
      <point x="196" y="-86" type="line" smooth="yes"/>
      <point x="196" y="-147"/>
      <point x="183" y="-172"/>
      <point x="165" y="-172" type="curve" smooth="yes"/>
      <point x="157" y="-172"/>
      <point x="148" y="-169"/>
      <point x="139" y="-163" type="curve"/>
      <point x="139" y="-230" type="line"/>
      <point x="151" y="-236"/>
      <point x="165" y="-240"/>
    </contour>
    <component base="n"/>
  </outline>
</glyph>
<glyph name="OE" format="2">
  <advance width="300"/>
  <unicode hex="0152"/>
  <anchor x="149" y="0" name="bottom"/>
  <anchor x="149" y="714" name="top"/>
  <outline>
    <contour>
      <point x="133" y="-9" type="curve" smooth="yes"/>
      <point x="145" y="-9"/>
      <point x="158" y="-5"/>
      <point x="170" y="0" type="curve"/>
      <point x="279" y="0" type="line"/>
      <point x="279" y="75" type="line"/>
      <point x="211" y="75" type="line"/>
      <point x="211" y="335" type="line"/>
      <point x="270" y="335" type="line"/>
      <point x="270" y="410" type="line"/>
      <point x="211" y="410" type="line"/>
      <point x="211" y="639" type="line"/>
      <point x="279" y="639" type="line"/>
      <point x="279" y="714" type="line"/>
      <point x="168" y="714" type="line"/>
      <point x="151" y="719"/>
      <point x="139" y="723"/>
      <point x="128" y="723" type="curve" smooth="yes"/>
      <point x="45" y="723"/>
      <point x="22" y="578"/>
      <point x="22" y="359" type="curve" smooth="yes"/>
      <point x="22" y="136"/>
      <point x="48" y="-9"/>
    </contour>
    <contour>
      <point x="136" y="62" type="curve" smooth="yes"/>
      <point x="98" y="62"/>
      <point x="84" y="177"/>
      <point x="84" y="358" type="curve" smooth="yes"/>
      <point x="84" y="538"/>
      <point x="97" y="655"/>
      <point x="138" y="655" type="curve" smooth="yes"/>
      <point x="142" y="655"/>
      <point x="146" y="652"/>
      <point x="151" y="641" type="curve"/>
      <point x="151" y="74" type="line"/>
      <point x="146" y="65"/>
      <point x="142" y="62"/>
    </contour>
  </outline>
</glyph>
<glyph name="tbar" format="2">
  <advance width="300"/>
  <unicode hex="0167"/>
  <anchor x="175" y="0" name="bottom"/>
  <anchor x="140" y="677" name="top"/>
  <anchor x="278" y="677" name="topright"/>
  <anchor x="129" y="290" name="center"/>
  <outline>
    <contour>
      <point x="25" y="278" type="line"/>
      <point x="273" y="278" type="line"/>
      <point x="273" y="338" type="line"/>
      <point x="25" y="338" type="line"/>
    </contour>
    <component base="t"/>
  </outline>
</glyph>
<glyph name="Uogonek" format="2">
  <advance width="300"/>
  <unicode hex="0172"/>
  <anchor x="160" y="-223" name="bottom"/>
  <anchor x="140" y="714" name="top"/>
  <anchor x="261" y="10" name="ogonek"/>
  <anchor x="278" y="714" name="topright"/>
  <outline>
    <contour>
      <point x="159" y="-223" type="curve" smooth="yes"/>
      <point x="174" y="-223"/>
      <point x="186" y="-220"/>
      <point x="194" y="-215" type="curve"/>
      <point x="194" y="-163" type="line"/>
      <point x="188" y="-166"/>
      <point x="182" y="-169"/>
      <point x="174" y="-169" type="curve" smooth="yes"/>
      <point x="156" y="-169"/>
      <point x="148" y="-150"/>
      <point x="148" y="-119" type="curve" smooth="yes"/>
      <point x="148" y="-67"/>
      <point x="169" y="-27"/>
      <point x="205" y="15" type="curve"/>
      <point x="168" y="26" type="line"/>
      <point x="121" y="-7"/>
      <point x="98" y="-65"/>
      <point x="98" y="-136" type="curve" smooth="yes"/>
      <point x="98" y="-190"/>
      <point x="119" y="-223"/>
    </contour>
    <component base="U"/>
  </outline>
</glyph>
<glyph name="uni0187" format="2">
  <advance width="300"/>
  <unicode hex="0187"/>
  <anchor x="176" y="0" name="bottom"/>
  <anchor x="176" y="865" name="top"/>
  <anchor x="288" y="714" name="topright"/>
  <outline>
    <contour>
      <point x="219" y="688" type="line"/>
      <point x="279" y="688" type="line"/>
      <point x="279" y="741" type="line" smooth="yes"/>
      <point x="279" y="786"/>
      <point x="288" y="797"/>
      <point x="302" y="797" type="curve" smooth="yes"/>
      <point x="311" y="797"/>
      <point x="316" y="790"/>
      <point x="321" y="786" type="curve"/>
      <point x="321" y="853" type="line"/>
      <point x="314" y="859"/>
      <point x="305" y="865"/>
      <point x="288" y="865" type="curve" smooth="yes"/>
      <point x="253" y="865"/>
      <point x="219" y="834"/>
      <point x="219" y="752" type="curve" smooth="yes"/>
    </contour>
    <component base="C" xOffset="10"/>
  </outline>
</glyph>
<glyph name="uni0188" format="2">
  <advance width="300"/>
  <unicode hex="0188"/>
  <anchor x="149" y="0" name="bottom"/>
  <anchor x="149" y="767" name="top"/>
  <anchor x="289" y="535" name="topright"/>
  <outline>
    <contour>
      <point x="206" y="517" type="line"/>
      <point x="265" y="517" type="line"/>
      <point x="265" y="645" type="line" smooth="yes"/>
      <point x="265" y="690"/>
      <point x="273" y="702"/>
      <point x="286" y="702" type="curve" smooth="yes"/>
      <point x="295" y="702"/>
      <point x="303" y="695"/>
      <point x="309" y="691" type="curve"/>
      <point x="309" y="755" type="line"/>
      <point x="304" y="761"/>
      <point x="291" y="767"/>
      <point x="273" y="767" type="curve" smooth="yes"/>
      <point x="234" y="767"/>
      <point x="206" y="732"/>
      <point x="206" y="649" type="curve" smooth="yes"/>
    </contour>
    <component base="c" xOffset="10"/>
  </outline>
</glyph>
<glyph name="uni0191" format="2">
  <advance width="300"/>
  <unicode hex="0191"/>
  <anchor x="155" y="-189" name="bottom"/>
  <anchor x="158" y="714" name="top"/>
  <outline>
    <contour>
      <point x="14" y="-189" type="curve" smooth="yes"/>
      <point x="72" y="-189"/>
      <point x="111" y="-143"/>
      <point x="111" y="-16" type="curve" smooth="yes"/>
      <point x="111" y="307" type="line"/>
      <point x="252" y="307" type="line"/>
      <point x="252" y="380" type="line"/>
      <point x="111" y="380" type="line"/>
      <point x="111" y="641" type="line"/>
      <point x="261" y="641" type="line"/>
      <point x="261" y="714" type="line"/>
      <point x="41" y="714" type="line"/>
      <point x="41" y="1" type="line" smooth="yes"/>
      <point x="41" y="-89"/>
      <point x="32" y="-123"/>
      <point x="3" y="-123" type="curve" smooth="yes"/>
      <point x="-9" y="-123"/>
      <point x="-19" y="-118"/>
      <point x="-28" y="-112" type="curve"/>
      <point x="-28" y="-178" type="line"/>
      <point x="-15" y="-186"/>
      <point x="-1" y="-189"/>
    </contour>
  </outline>
</glyph>
<glyph name="uni0193" format="2">
  <advance width="300"/>
  <unicode hex="0193"/>
  <anchor x="150" y="0" name="bottom"/>
  <anchor x="150" y="865" name="top"/>
  <anchor x="288" y="714" name="topright"/>
  <outline>
    <contour>
      <point x="207" y="682" type="line"/>
      <point x="268" y="682" type="line"/>
      <point x="268" y="741" type="line" smooth="yes"/>
      <point x="268" y="786"/>
      <point x="276" y="797"/>
      <point x="288" y="797" type="curve" smooth="yes"/>
      <point x="298" y="797"/>
      <point x="307" y="790"/>
      <point x="312" y="786" type="curve"/>
      <point x="312" y="853" type="line"/>
      <point x="306" y="859"/>
      <point x="293" y="865"/>
      <point x="276" y="865" type="curve" smooth="yes"/>
      <point x="242" y="865"/>
      <point x="207" y="834"/>
      <point x="207" y="752" type="curve" smooth="yes"/>
    </contour>
    <component base="G" xOffset="10"/>
  </outline>
</glyph>
<glyph name="uni0195" format="2">
  <advance width="300"/>
  <unicode hex="0195"/>
  <anchor x="152" y="0" name="bottom"/>
  <anchor x="62" y="760" name="top"/>
  <outline>
    <contour>
      <point x="196" y="-11" type="curve" smooth="yes"/>
      <point x="244" y="-11"/>
      <point x="267" y="34"/>
      <point x="267" y="112" type="curve" smooth="yes"/>
      <point x="267" y="535" type="line"/>
      <point x="213" y="535" type="line"/>
      <point x="213" y="118" type="line" smooth="yes"/>
      <point x="213" y="72"/>
      <point x="206" y="51"/>
      <point x="196" y="51" type="curve" smooth="yes"/>
      <point x="185" y="51"/>
      <point x="180" y="70"/>
      <point x="180" y="125" type="curve" smooth="yes"/>
      <point x="180" y="421" type="line" smooth="yes"/>
      <point x="180" y="512"/>
      <point x="161" y="544"/>
      <point x="133" y="544" type="curve" smooth="yes"/>
      <point x="110" y="544"/>
      <point x="95" y="524"/>
      <point x="89" y="490" type="curve"/>
      <point x="86" y="490" type="line"/>
      <point x="89" y="510"/>
      <point x="90" y="532"/>
      <point x="90" y="555" type="curve" smooth="yes"/>
      <point x="90" y="760" type="line"/>
      <point x="35" y="760" type="line"/>
      <point x="35" y="0" type="line"/>
      <point x="89" y="0" type="line"/>
      <point x="89" y="358" type="line" smooth="yes"/>
      <point x="89" y="455"/>
      <point x="98" y="482"/>
      <point x="110" y="482" type="curve" smooth="yes"/>
      <point x="120" y="482"/>
      <point x="126" y="460"/>
      <point x="126" y="402" type="curve" smooth="yes"/>
      <point x="126" y="120" type="line" smooth="yes"/>
      <point x="126" y="22"/>
      <point x="148" y="-11"/>
    </contour>
  </outline>
</glyph>
<glyph name="uni0197" format="2">
  <advance width="300"/>
  <unicode hex="0197"/>
  <anchor x="151" y="0" name="bottom"/>
  <anchor x="151" y="714" name="top"/>
  <anchor x="31" y="714" name="topleft"/>
  <anchor x="205" y="10" name="ogonek"/>
  <anchor x="288" y="714" name="topright"/>
  <outline>
    <contour>
      <point x="57" y="336" type="line"/>
      <point x="242" y="336" type="line"/>
      <point x="242" y="404" type="line"/>
      <point x="57" y="404" type="line"/>
    </contour>
    <component base="I" xOffset="10"/>
  </outline>
</glyph>
<glyph name="uni0198" format="2">
  <advance width="300"/>
  <unicode hex="0198"/>
  <anchor x="150" y="0" name="bottom"/>
  <anchor x="150" y="714" name="top"/>
  <outline>
    <contour>
      <point x="29" y="0" type="line"/>
      <point x="97" y="0" type="line"/>
      <point x="97" y="266" type="line"/>
      <point x="131" y="339" type="line"/>
      <point x="200" y="0" type="line"/>
      <point x="278" y="0" type="line"/>
      <point x="184" y="396" type="line"/>
      <point x="237" y="600" type="line" smooth="yes"/>
      <point x="247" y="641"/>
      <point x="254" y="651"/>
      <point x="266" y="651" type="curve" smooth="yes"/>
      <point x="274" y="651"/>
      <point x="282" y="648"/>
      <point x="287" y="645" type="curve"/>
      <point x="287" y="713" type="line"/>
      <point x="278" y="718"/>
      <point x="268" y="722"/>
      <point x="251" y="722" type="curve" smooth="yes"/>
      <point x="218" y="722"/>
      <point x="201" y="702"/>
      <point x="180" y="630" type="curve" smooth="yes"/>
      <point x="134" y="466" type="line" smooth="yes"/>
      <point x="121" y="418"/>
      <point x="107" y="382"/>
      <point x="97" y="351" type="curve"/>
      <point x="97" y="714" type="line"/>
      <point x="29" y="714" type="line"/>
    </contour>
  </outline>
</glyph>
<glyph name="uni0199" format="2">
  <advance width="300"/>
  <unicode hex="0199"/>
  <anchor x="150" y="0" name="bottom"/>
  <anchor x="150" y="765" name="top"/>
  <outline>
    <contour>
      <point x="40" y="0" type="line"/>
      <point x="108" y="0" type="line"/>
      <point x="108" y="200" type="line"/>
      <point x="133" y="246" type="line"/>
      <point x="202" y="0" type="line"/>
      <point x="282" y="0" type="line"/>
      <point x="181" y="304" type="line"/>
      <point x="280" y="535" type="line"/>
      <point x="202" y="535" type="line"/>
      <point x="131" y="337" type="line" smooth="yes"/>
      <point x="123" y="313"/>
      <point x="113" y="294"/>
      <point x="104" y="270" type="curve"/>
      <point x="103" y="270" type="line"/>
      <point x="105" y="320"/>
      <point x="108" y="359"/>
      <point x="108" y="407" type="curve" smooth="yes"/>
      <point x="108" y="624" type="line" smooth="yes"/>
      <point x="108" y="679"/>
      <point x="116" y="697"/>
      <point x="136" y="697" type="curve" smooth="yes"/>
      <point x="145" y="697"/>
      <point x="152" y="694"/>
      <point x="159" y="689" type="curve"/>
      <point x="159" y="756" type="line"/>
      <point x="151" y="761"/>
      <point x="136" y="765"/>
      <point x="119" y="765" type="curve" smooth="yes"/>
      <point x="67" y="765"/>
      <point x="40" y="716"/>
      <point x="40" y="628" type="curve" smooth="yes"/>
    </contour>
  </outline>
</glyph>
<glyph name="uni019B" format="2">
  <advance width="300"/>
  <unicode hex="019B"/>
  <anchor x="155" y="0" name="bottom"/>
  <anchor x="159" y="766" name="top"/>
  <outline>
    <contour>
      <point x="70" y="533" type="line"/>
      <point x="218" y="612" type="line"/>
      <point x="201" y="664" type="line"/>
      <point x="53" y="586" type="line"/>
    </contour>
    <component base="lambda" xOffset="8"/>
  </outline>
</glyph>
<glyph name="uni019C" format="2">
  <advance width="300"/>
  <unicode hex="019C"/>
  <anchor x="150" y="0" name="bottom"/>
  <anchor x="150" y="357" name="center"/>
  <anchor x="150" y="714" name="top"/>
  <anchor x="21" y="714" name="topleft"/>
  <outline>
    <contour>
      <point x="70" y="-11" type="curve" smooth="yes"/>
      <point x="98" y="-11"/>
      <point x="112" y="12"/>
      <point x="123" y="59" type="curve"/>
      <point x="125" y="59" type="line"/>
      <point x="131" y="14"/>
      <point x="144" y="-11"/>
      <point x="172" y="-11" type="curve" smooth="yes"/>
      <point x="195" y="-11"/>
      <point x="210" y="12"/>
      <point x="219" y="56" type="curve"/>
      <point x="221" y="56" type="line"/>
      <point x="229" y="0" type="line"/>
      <point x="280" y="0" type="line"/>
      <point x="280" y="714" type="line"/>
      <point x="222" y="714" type="line"/>
      <point x="222" y="201" type="line" smooth="yes"/>
      <point x="222" y="131"/>
      <point x="217" y="58"/>
      <point x="198" y="58" type="curve" smooth="yes"/>
      <point x="181" y="58"/>
      <point x="177" y="87"/>
      <point x="177" y="145" type="curve" smooth="yes"/>
      <point x="177" y="714" type="line"/>
      <point x="122" y="714" type="line"/>
      <point x="122" y="192" type="line" smooth="yes"/>
      <point x="122" y="115"/>
      <point x="117" y="58"/>
      <point x="97" y="58" type="curve" smooth="yes"/>
      <point x="81" y="58"/>
      <point x="77" y="88"/>
      <point x="77" y="143" type="curve" smooth="yes"/>
      <point x="77" y="714" type="line"/>
      <point x="20" y="714" type="line"/>
      <point x="20" y="134" type="line" smooth="yes"/>
      <point x="20" y="30"/>
      <point x="28" y="-11"/>
    </contour>
  </outline>
</glyph>
<glyph name="uni01A2" format="2">
  <advance width="300"/>
  <unicode hex="01A2"/>
  <anchor x="58" y="0" name="bottom"/>
  <anchor x="68" y="10" name="ogonek"/>
  <anchor x="166" y="714" name="top"/>
  <anchor x="-76" y="714" name="topleft"/>
  <anchor x="417" y="714" name="topright"/>
  <outline>
    <contour>
      <point x="57" y="-10" type="curve" smooth="yes"/>
      <point x="163" y="-10"/>
      <point x="212" y="153"/>
      <point x="212" y="356" type="curve" smooth="yes"/>
      <point x="212" y="544"/>
      <point x="170" y="724"/>
      <point x="58" y="724" type="curve" smooth="yes"/>
      <point x="-43" y="724"/>
      <point x="-100" y="607"/>
      <point x="-100" y="356" type="curve" smooth="yes"/>
      <point x="-100" y="158"/>
      <point x="-50" y="-10"/>
    </contour>
    <contour>
      <point x="57" y="62" type="curve" smooth="yes"/>
      <point x="2" y="62"/>
      <point x="-28" y="165"/>
      <point x="-28" y="356" type="curve" smooth="yes"/>
      <point x="-28" y="550"/>
      <point x="2" y="653"/>
      <point x="58" y="653" type="curve" smooth="yes"/>
      <point x="112" y="653"/>
      <point x="140" y="555"/>
      <point x="140" y="361" type="curve" smooth="yes"/>
      <point x="140" y="161"/>
      <point x="112" y="62"/>
    </contour>
    <contour>
      <point x="331" y="0" type="line"/>
      <point x="400" y="0" type="line"/>
      <point x="400" y="513" type="line" smooth="yes"/>
      <point x="400" y="659"/>
      <point x="352" y="724"/>
      <point x="280" y="724" type="curve" smooth="yes"/>
      <point x="231" y="724"/>
      <point x="189" y="683"/>
      <point x="155" y="615" type="curve"/>
      <point x="177" y="563" type="line"/>
      <point x="198" y="615"/>
      <point x="226" y="653"/>
      <point x="257" y="653" type="curve" smooth="yes"/>
      <point x="306" y="653"/>
      <point x="331" y="606"/>
      <point x="331" y="499" type="curve" smooth="yes"/>
    </contour>
  </outline>
</glyph>
<glyph name="uni01A3" format="2">
  <advance width="300"/>
  <unicode hex="01A3"/>
  <anchor x="101" y="0" name="bottom"/>
  <anchor x="101" y="277" name="center"/>
  <anchor x="102" y="10" name="ogonek"/>
  <anchor x="157" y="535" name="top"/>
  <outline>
    <contour>
      <point x="213" y="-239" type="line"/>
      <point x="272" y="-239" type="line"/>
      <point x="272" y="405" type="line" smooth="yes"/>
      <point x="272" y="510"/>
      <point x="252" y="547"/>
      <point x="214" y="547" type="curve" smooth="yes"/>
      <point x="183" y="547"/>
      <point x="168" y="515"/>
      <point x="160" y="485" type="curve"/>
      <point x="149" y="526"/>
      <point x="133" y="547"/>
      <point x="101" y="547" type="curve" smooth="yes"/>
      <point x="41" y="547"/>
      <point x="21" y="468"/>
      <point x="21" y="269" type="curve" smooth="yes"/>
      <point x="21" y="80"/>
      <point x="42" y="-10"/>
      <point x="100" y="-10" type="curve" smooth="yes"/>
      <point x="162" y="-10"/>
      <point x="179" y="81"/>
      <point x="179" y="269" type="curve" smooth="yes"/>
      <point x="179" y="328"/>
      <point x="176" y="400"/>
      <point x="173" y="439" type="curve"/>
      <point x="176" y="454"/>
      <point x="183" y="479"/>
      <point x="194" y="479" type="curve" smooth="yes"/>
      <point x="206" y="479"/>
      <point x="213" y="462"/>
      <point x="213" y="412" type="curve" smooth="yes"/>
    </contour>
    <contour>
      <point x="100" y="57" type="curve" smooth="yes"/>
      <point x="87" y="57"/>
      <point x="80" y="109"/>
      <point x="80" y="269" type="curve" smooth="yes"/>
      <point x="80" y="430"/>
      <point x="87" y="480"/>
      <point x="100" y="480" type="curve" smooth="yes"/>
      <point x="115" y="480"/>
      <point x="121" y="427"/>
      <point x="121" y="269" type="curve" smooth="yes"/>
      <point x="121" y="107"/>
      <point x="114" y="57"/>
    </contour>
  </outline>
</glyph>
<glyph name="uni01AB" format="2">
  <advance width="300"/>
  <unicode hex="01AB"/>
  <anchor x="188" y="-240" name="bottom"/>
  <anchor x="149" y="677" name="top"/>
  <anchor x="288" y="677" name="topright"/>
  <anchor x="139" y="290" name="center"/>
  <outline>
    <contour>
      <point x="191" y="-240" type="curve" smooth="yes"/>
      <point x="244" y="-240"/>
      <point x="273" y="-191"/>
      <point x="273" y="-103" type="curve" smooth="yes"/>
      <point x="273" y="40" type="line"/>
      <point x="208" y="20" type="line"/>
      <point x="208" y="-100" type="line" smooth="yes"/>
      <point x="208" y="-153"/>
      <point x="195" y="-172"/>
      <point x="175" y="-172" type="curve" smooth="yes"/>
      <point x="166" y="-172"/>
      <point x="158" y="-169"/>
      <point x="150" y="-163" type="curve"/>
      <point x="150" y="-231" type="line"/>
      <point x="159" y="-236"/>
      <point x="178" y="-240"/>
    </contour>
    <component base="t" xOffset="10"/>
  </outline>
</glyph>
<glyph name="uni01AD" format="2">
  <advance width="300"/>
  <unicode hex="01AD"/>
  <anchor x="149" y="0" name="bottom"/>
  <anchor x="149" y="765" name="top"/>
  <outline>
    <contour>
      <point x="193" y="-10" type="curve" smooth="yes"/>
      <point x="220" y="-10"/>
      <point x="250" y="-5"/>
      <point x="273" y="4" type="curve"/>
      <point x="273" y="72" type="line"/>
      <point x="250" y="63"/>
      <point x="230" y="59"/>
      <point x="214" y="59" type="curve" smooth="yes"/>
      <point x="185" y="59"/>
      <point x="164" y="90"/>
      <point x="164" y="159" type="curve" smooth="yes"/>
      <point x="164" y="468" type="line"/>
      <point x="270" y="468" type="line"/>
      <point x="270" y="535" type="line"/>
      <point x="164" y="535" type="line"/>
      <point x="164" y="618" type="line" smooth="yes"/>
      <point x="164" y="677"/>
      <point x="174" y="697"/>
      <point x="195" y="697" type="curve" smooth="yes"/>
      <point x="205" y="697"/>
      <point x="213" y="693"/>
      <point x="221" y="688" type="curve"/>
      <point x="221" y="756" type="line"/>
      <point x="212" y="761"/>
      <point x="197" y="765"/>
      <point x="178" y="765" type="curve" smooth="yes"/>
      <point x="123" y="765"/>
      <point x="94" y="713"/>
      <point x="94" y="622" type="curve" smooth="yes"/>
      <point x="94" y="535" type="line"/>
      <point x="25" y="516" type="line"/>
      <point x="25" y="468" type="line"/>
      <point x="94" y="468" type="line"/>
      <point x="94" y="146" type="line" smooth="yes"/>
      <point x="94" y="30"/>
      <point x="132" y="-10"/>
    </contour>
  </outline>
</glyph>
<glyph name="uni01AE" format="2">
  <advance width="300"/>
  <unicode hex="01AE"/>
  <anchor x="185" y="-189" name="bottom"/>
  <anchor x="150" y="714" name="top"/>
  <outline>
    <contour>
      <point x="206" y="-189" type="curve" smooth="yes"/>
      <point x="222" y="-189"/>
      <point x="235" y="-186"/>
      <point x="249" y="-178" type="curve"/>
      <point x="249" y="-108" type="line"/>
      <point x="239" y="-114"/>
      <point x="230" y="-118"/>
      <point x="219" y="-118" type="curve" smooth="yes"/>
      <point x="190" y="-118"/>
      <point x="185" y="-84"/>
      <point x="185" y="-8" type="curve" smooth="yes"/>
      <point x="185" y="641" type="line"/>
      <point x="277" y="641" type="line"/>
      <point x="277" y="714" type="line"/>
      <point x="23" y="714" type="line"/>
      <point x="23" y="641" type="line"/>
      <point x="116" y="641" type="line"/>
      <point x="116" y="-18" type="line" smooth="yes"/>
      <point x="116" y="-138"/>
      <point x="141" y="-189"/>
    </contour>
  </outline>
</glyph>
<glyph name="uni01B2" format="2">
  <advance width="300"/>
  <unicode hex="01B2"/>
  <anchor x="150" y="0" name="bottom"/>
  <anchor x="261" y="10" name="ogonek"/>
  <anchor x="150" y="714" name="top"/>
  <anchor x="278" y="714" name="topright"/>
  <outline>
    <contour>
      <point x="149" y="-10" type="curve" smooth="yes"/>
      <point x="235" y="-10"/>
      <point x="270" y="63"/>
      <point x="270" y="220" type="curve" smooth="yes"/>
      <point x="270" y="614" type="line" smooth="yes"/>
      <point x="270" y="685"/>
      <point x="249" y="724"/>
      <point x="208" y="724" type="curve" smooth="yes"/>
      <point x="188" y="724"/>
      <point x="173" y="716"/>
      <point x="160" y="706" type="curve"/>
      <point x="160" y="639" type="line"/>
      <point x="166" y="646"/>
      <point x="174" y="653"/>
      <point x="182" y="653" type="curve" smooth="yes"/>
      <point x="192" y="653"/>
      <point x="201" y="637"/>
      <point x="201" y="602" type="curve" smooth="yes"/>
      <point x="201" y="224" type="line" smooth="yes"/>
      <point x="201" y="108"/>
      <point x="190" y="60"/>
      <point x="149" y="60" type="curve" smooth="yes"/>
      <point x="110" y="60"/>
      <point x="99" y="108"/>
      <point x="99" y="224" type="curve" smooth="yes"/>
      <point x="99" y="714" type="line"/>
      <point x="29" y="714" type="line"/>
      <point x="29" y="221" type="line" smooth="yes"/>
      <point x="29" y="64"/>
      <point x="63" y="-10"/>
    </contour>
  </outline>
</glyph>
<glyph name="uni01B3" format="2">
  <advance width="300"/>
  <unicode hex="01B3"/>
  <anchor x="150" y="0" name="bottom"/>
  <anchor x="150" y="714" name="top"/>
  <outline>
    <contour>
      <point x="124" y="0" type="line"/>
      <point x="193" y="0" type="line"/>
      <point x="193" y="278" type="line"/>
      <point x="283" y="714" type="line"/>
      <point x="212" y="714" type="line"/>
      <point x="159" y="353" type="line"/>
      <point x="117" y="627" type="line" smooth="yes"/>
      <point x="107" y="696"/>
      <point x="90" y="722"/>
      <point x="50" y="722" type="curve" smooth="yes"/>
      <point x="35" y="722"/>
      <point x="21" y="718"/>
      <point x="13" y="713" type="curve"/>
      <point x="13" y="645" type="line"/>
      <point x="18" y="648"/>
      <point x="23" y="652"/>
      <point x="35" y="652" type="curve" smooth="yes"/>
      <point x="51" y="652"/>
      <point x="59" y="638"/>
      <point x="66" y="597" type="curve" smooth="yes"/>
      <point x="123" y="276" type="line"/>
    </contour>
  </outline>
</glyph>
<glyph name="uni01B4" format="2">
  <advance width="300"/>
  <unicode hex="01B4"/>
  <anchor x="150" y="-245" name="bottom"/>
  <anchor x="150" y="535" name="top"/>
  <outline>
    <contour>
      <point x="57" y="-245" type="curve" smooth="yes"/>
      <point x="116" y="-245"/>
      <point x="155" y="-177"/>
      <point x="169" y="-74" type="curve" smooth="yes"/>
      <point x="242" y="408" type="line" smooth="yes"/>
      <point x="251" y="463"/>
      <point x="258" y="474"/>
      <point x="273" y="474" type="curve" smooth="yes"/>
      <point x="279" y="474"/>
      <point x="284" y="472"/>
      <point x="288" y="469" type="curve"/>
      <point x="288" y="536" type="line"/>
      <point x="281" y="540"/>
      <point x="269" y="544"/>
      <point x="254" y="544" type="curve" smooth="yes"/>
      <point x="207" y="544"/>
      <point x="193" y="515"/>
      <point x="186" y="453" type="curve" smooth="yes"/>
      <point x="161" y="219" type="line" smooth="yes"/>
      <point x="156" y="176"/>
      <point x="151" y="117"/>
      <point x="149" y="75" type="curve"/>
      <point x="147" y="75" type="line"/>
      <point x="144" y="118"/>
      <point x="140" y="166"/>
      <point x="133" y="219" type="curve" smooth="yes"/>
      <point x="92" y="535" type="line"/>
      <point x="16" y="535" type="line"/>
      <point x="117" y="-5" type="line"/>
      <point x="108" y="-82" type="line" smooth="yes"/>
      <point x="100" y="-153"/>
      <point x="68" y="-178"/>
      <point x="45" y="-178" type="curve" smooth="yes"/>
      <point x="37" y="-178"/>
      <point x="29" y="-174"/>
      <point x="21" y="-171" type="curve"/>
      <point x="21" y="-237" type="line"/>
      <point x="33" y="-241"/>
      <point x="44" y="-245"/>
    </contour>
  </outline>
</glyph>
<glyph name="uni01B5" format="2">
  <advance width="300"/>
  <unicode hex="01B5"/>
  <anchor x="152" y="0" name="bottom"/>
  <anchor x="152" y="714" name="top"/>
  <anchor x="288" y="714" name="topright"/>
  <outline>
    <contour>
      <point x="50" y="330" type="line"/>
      <point x="258" y="330" type="line"/>
      <point x="258" y="403" type="line"/>
      <point x="50" y="403" type="line"/>
    </contour>
    <component base="Z" xOffset="10"/>
  </outline>
</glyph>
<glyph name="uni01B6" format="2">
  <advance width="300"/>
  <unicode hex="01B6"/>
  <anchor x="151" y="0" name="bottom"/>
  <anchor x="151" y="535" name="top"/>
  <anchor x="288" y="535" name="topright"/>
  <outline>
    <contour>
      <point x="51" y="243" type="line"/>
      <point x="252" y="243" type="line"/>
      <point x="252" y="302" type="line"/>
      <point x="51" y="302" type="line"/>
    </contour>
    <component base="z" xOffset="10"/>
  </outline>
</glyph>
<glyph name="uni01BB" format="2">
  <advance width="300"/>
  <unicode hex="01BB"/>
  <anchor x="150" y="0" name="bottom"/>
  <anchor x="149" y="714" name="top"/>
  <outline>
    <contour>
      <point x="51" y="325" type="line"/>
      <point x="265" y="325" type="line"/>
      <point x="265" y="383" type="line"/>
      <point x="51" y="383" type="line"/>
    </contour>
    <component base="two" xOffset="10"/>
  </outline>
</glyph>
<glyph name="uni01BC" format="2">
  <advance width="300"/>
  <unicode hex="01BC"/>
  <anchor x="150" y="0" name="bottom"/>
  <anchor x="150" y="714" name="top"/>
  <outline>
    <contour>
      <point x="131" y="-10" type="curve" smooth="yes"/>
      <point x="229" y="-10"/>
      <point x="275" y="88"/>
      <point x="275" y="229" type="curve" smooth="yes"/>
      <point x="275" y="353"/>
      <point x="237" y="437"/>
      <point x="155" y="437" type="curve"/>
      <point x="147" y="437" type="line"/>
      <point x="147" y="644" type="line"/>
      <point x="257" y="644" type="line"/>
      <point x="257" y="714" type="line"/>
      <point x="23" y="714" type="line"/>
      <point x="23" y="644" type="line"/>
      <point x="74" y="644" type="line"/>
      <point x="74" y="371" type="line"/>
      <point x="124" y="371" type="line"/>
      <point x="176" y="371"/>
      <point x="203" y="322"/>
      <point x="203" y="227" type="curve" smooth="yes"/>
      <point x="203" y="136"/>
      <point x="178" y="59"/>
      <point x="126" y="59" type="curve" smooth="yes"/>
      <point x="97" y="59"/>
      <point x="64" y="73"/>
      <point x="38" y="98" type="curve"/>
      <point x="38" y="20" type="line"/>
      <point x="63" y="0"/>
      <point x="94" y="-10"/>
    </contour>
  </outline>
</glyph>
<glyph name="uni01BE" format="2">
  <advance width="300"/>
  <unicode hex="01BE"/>
  <anchor x="158" y="0" name="bottom"/>
  <anchor x="142" y="677" name="top"/>
  <outline>
    <contour>
      <point x="136" y="-10" type="curve" smooth="yes"/>
      <point x="217" y="-10"/>
      <point x="257" y="44"/>
      <point x="257" y="143" type="curve" smooth="yes"/>
      <point x="257" y="238"/>
      <point x="235" y="268"/>
      <point x="189" y="296" type="curve" smooth="yes"/>
      <point x="167" y="310"/>
      <point x="164" y="335"/>
      <point x="164" y="371" type="curve" smooth="yes"/>
      <point x="164" y="468" type="line"/>
      <point x="271" y="468" type="line"/>
      <point x="271" y="535" type="line"/>
      <point x="164" y="535" type="line"/>
      <point x="164" y="677" type="line"/>
      <point x="120" y="677" type="line"/>
      <point x="99" y="538" type="line"/>
      <point x="26" y="516" type="line"/>
      <point x="26" y="468" type="line"/>
      <point x="95" y="468" type="line"/>
      <point x="95" y="349" type="line" smooth="yes"/>
      <point x="95" y="293"/>
      <point x="102" y="256"/>
      <point x="131" y="236" type="curve" smooth="yes"/>
      <point x="167" y="211"/>
      <point x="186" y="195"/>
      <point x="186" y="141" type="curve" smooth="yes"/>
      <point x="186" y="92"/>
      <point x="173" y="57"/>
      <point x="132" y="57" type="curve" smooth="yes"/>
      <point x="100" y="57"/>
      <point x="69" y="74"/>
      <point x="47" y="97" type="curve"/>
      <point x="47" y="24" type="line"/>
      <point x="67" y="2"/>
      <point x="96" y="-10"/>
    </contour>
  </outline>
</glyph>
<glyph name="uni01F7" format="2">
  <advance width="300"/>
  <unicode hex="01F7"/>
  <anchor x="159" y="-240" name="bottom"/>
  <anchor x="178" y="714" name="top"/>
  <outline>
    <contour>
      <point x="41" y="-239" type="line"/>
      <point x="110" y="-239" type="line"/>
      <point x="110" y="-1" type="line"/>
      <point x="187" y="54"/>
      <point x="272" y="211"/>
      <point x="272" y="451" type="curve" smooth="yes"/>
      <point x="272" y="628"/>
      <point x="245" y="724"/>
      <point x="179" y="724" type="curve" smooth="yes"/>
      <point x="143" y="724"/>
      <point x="121" y="696"/>
      <point x="108" y="638" type="curve"/>
      <point x="107" y="638" type="line"/>
      <point x="100" y="714" type="line"/>
      <point x="41" y="714" type="line"/>
    </contour>
    <contour>
      <point x="110" y="71" type="curve"/>
      <point x="110" y="504" type="line" smooth="yes"/>
      <point x="110" y="602"/>
      <point x="127" y="653"/>
      <point x="156" y="653" type="curve" smooth="yes"/>
      <point x="187" y="653"/>
      <point x="200" y="593"/>
      <point x="200" y="457" type="curve" smooth="yes"/>
      <point x="200" y="247"/>
      <point x="152" y="120"/>
    </contour>
  </outline>
</glyph>
<glyph name="uni021C" format="2">
  <advance width="300"/>
  <unicode hex="021C"/>
  <anchor x="149" y="-96" name="bottom"/>
  <anchor x="149" y="714" name="top"/>
  <outline>
    <contour>
      <point x="36" y="-180" type="line"/>
      <point x="195" y="-98"/>
      <point x="265" y="-5"/>
      <point x="265" y="176" type="curve" smooth="yes"/>
      <point x="265" y="278"/>
      <point x="241" y="338"/>
      <point x="210" y="372" type="curve"/>
      <point x="240" y="410"/>
      <point x="255" y="463"/>
      <point x="255" y="544" type="curve" smooth="yes"/>
      <point x="255" y="665"/>
      <point x="215" y="724"/>
      <point x="145" y="724" type="curve" smooth="yes"/>
      <point x="100" y="724"/>
      <point x="65" y="700"/>
      <point x="33" y="650" type="curve"/>
      <point x="61" y="594" type="line"/>
      <point x="81" y="633"/>
      <point x="109" y="653"/>
      <point x="134" y="653" type="curve" smooth="yes"/>
      <point x="161" y="653"/>
      <point x="185" y="621"/>
      <point x="185" y="539" type="curve" smooth="yes"/>
      <point x="185" y="442"/>
      <point x="158" y="404"/>
      <point x="83" y="359" type="curve"/>
      <point x="98" y="297" type="line"/>
      <point x="121" y="309"/>
      <point x="143" y="322"/>
      <point x="161" y="338" type="curve"/>
      <point x="181" y="301"/>
      <point x="194" y="257"/>
      <point x="194" y="176" type="curve" smooth="yes"/>
      <point x="194" y="52"/>
      <point x="166" y="-31"/>
      <point x="36" y="-106" type="curve"/>
    </contour>
  </outline>
</glyph>
<glyph name="uni021D" format="2">
  <advance width="300"/>
  <unicode hex="021D"/>
  <anchor x="144" y="-173" name="bottom"/>
  <anchor x="141" y="535" name="top"/>
  <outline>
    <contour>
      <point x="25" y="-240" type="line"/>
      <point x="167" y="-192"/>
      <point x="262" y="-111"/>
      <point x="262" y="57" type="curve" smooth="yes"/>
      <point x="262" y="148"/>
      <point x="241" y="197"/>
      <point x="208" y="226" type="curve"/>
      <point x="242" y="263"/>
      <point x="257" y="309"/>
      <point x="257" y="378" type="curve" smooth="yes"/>
      <point x="257" y="495"/>
      <point x="211" y="546"/>
      <point x="141" y="546" type="curve" smooth="yes"/>
      <point x="96" y="546"/>
      <point x="63" y="530"/>
      <point x="31" y="506" type="curve"/>
      <point x="55" y="443" type="line"/>
      <point x="80" y="465"/>
      <point x="105" y="477"/>
      <point x="136" y="477" type="curve" smooth="yes"/>
      <point x="171" y="477"/>
      <point x="189" y="447"/>
      <point x="189" y="378" type="curve" smooth="yes"/>
      <point x="189" y="296"/>
      <point x="155" y="257"/>
      <point x="76" y="219" type="curve"/>
      <point x="90" y="159" type="line"/>
      <point x="114" y="169"/>
      <point x="134" y="180"/>
      <point x="153" y="192" type="curve"/>
      <point x="178" y="164"/>
      <point x="192" y="126"/>
      <point x="192" y="57" type="curve" smooth="yes"/>
      <point x="192" y="-59"/>
      <point x="148" y="-126"/>
      <point x="25" y="-172" type="curve"/>
    </contour>
  </outline>
</glyph>
<glyph name="uni0220" format="2">
  <advance width="300"/>
  <unicode hex="0220"/>
  <anchor x="150" y="-240" name="bottom"/>
  <anchor x="150" y="357" name="center"/>
  <anchor x="150" y="714" name="top"/>
  <anchor x="21" y="714" name="topleft"/>
  <outline>
    <contour>
      <point x="194" y="-239" type="line"/>
      <point x="262" y="-239" type="line"/>
      <point x="262" y="542" type="line" smooth="yes"/>
      <point x="262" y="668"/>
      <point x="234" y="724"/>
      <point x="185" y="724" type="curve" smooth="yes"/>
      <point x="146" y="724"/>
      <point x="121" y="691"/>
      <point x="109" y="639" type="curve"/>
      <point x="106" y="639" type="line"/>
      <point x="99" y="714" type="line"/>
      <point x="40" y="714" type="line"/>
      <point x="40" y="0" type="line"/>
      <point x="109" y="0" type="line"/>
      <point x="109" y="511" type="line" smooth="yes"/>
      <point x="109" y="606"/>
      <point x="122" y="653"/>
      <point x="154" y="653" type="curve" smooth="yes"/>
      <point x="183" y="653"/>
      <point x="194" y="614"/>
      <point x="194" y="528" type="curve" smooth="yes"/>
    </contour>
  </outline>
</glyph>
<glyph name="uni0223" format="2">
  <advance width="300"/>
  <unicode hex="0223"/>
  <anchor x="150" y="0" name="bottom"/>
  <anchor x="150" y="760" name="top"/>
  <outline>
    <contour>
      <point x="150" y="-10" type="curve" smooth="yes"/>
      <point x="237" y="-10"/>
      <point x="273" y="87"/>
      <point x="273" y="236" type="curve" smooth="yes"/>
      <point x="273" y="354"/>
      <point x="249" y="426"/>
      <point x="219" y="449" type="curve"/>
      <point x="243" y="472"/>
      <point x="259" y="520"/>
      <point x="259" y="604" type="curve" smooth="yes"/>
      <point x="259" y="760" type="line"/>
      <point x="189" y="760" type="line"/>
      <point x="189" y="605" type="line" smooth="yes"/>
      <point x="189" y="516"/>
      <point x="177" y="479"/>
      <point x="150" y="479" type="curve" smooth="yes"/>
      <point x="122" y="479"/>
      <point x="111" y="514"/>
      <point x="111" y="605" type="curve" smooth="yes"/>
      <point x="111" y="760" type="line"/>
      <point x="41" y="760" type="line"/>
      <point x="41" y="607" type="line" smooth="yes"/>
      <point x="41" y="516"/>
      <point x="56" y="469"/>
      <point x="79" y="447" type="curve"/>
      <point x="48" y="422"/>
      <point x="27" y="351"/>
      <point x="27" y="236" type="curve" smooth="yes"/>
      <point x="27" y="87"/>
      <point x="68" y="-10"/>
    </contour>
    <contour>
      <point x="150" y="57" type="curve" smooth="yes"/>
      <point x="117" y="57"/>
      <point x="98" y="119"/>
      <point x="98" y="237" type="curve" smooth="yes"/>
      <point x="98" y="358"/>
      <point x="116" y="416"/>
      <point x="150" y="416" type="curve" smooth="yes"/>
      <point x="186" y="416"/>
      <point x="202" y="357"/>
      <point x="202" y="238" type="curve" smooth="yes"/>
      <point x="202" y="117"/>
      <point x="184" y="57"/>
    </contour>
  </outline>
</glyph>
<glyph name="uni0225" format="2">
  <advance width="300"/>
  <unicode hex="0225"/>
  <anchor x="159" y="-240" name="bottom"/>
  <anchor x="149" y="535" name="top"/>
  <anchor x="288" y="535" name="topright"/>
  <outline>
    <contour>
      <point x="193" y="-189" type="curve" smooth="yes"/>
      <point x="240" y="-189"/>
      <point x="270" y="-146"/>
      <point x="270" y="-61" type="curve" smooth="yes"/>
      <point x="270" y="68" type="line"/>
      <point x="205" y="68" type="line"/>
      <point x="205" y="0" type="line"/>
      <point x="210" y="0" type="line"/>
      <point x="210" y="-59" type="line" smooth="yes"/>
      <point x="210" y="-103"/>
      <point x="200" y="-123"/>
      <point x="175" y="-123" type="curve" smooth="yes"/>
      <point x="167" y="-123"/>
      <point x="159" y="-120"/>
      <point x="150" y="-114" type="curve"/>
      <point x="150" y="-180" type="line"/>
      <point x="161" y="-186"/>
      <point x="172" y="-189"/>
    </contour>
    <component base="z" xOffset="10"/>
  </outline>
</glyph>
<glyph name="uni0234" format="2">
  <advance width="300"/>
  <unicode hex="0234"/>
  <anchor x="189" y="0" name="bottom"/>
  <anchor x="110" y="760" name="top"/>
  <outline>
    <contour>
      <point x="81" y="-20" type="line"/>
      <point x="86" y="15"/>
      <point x="96" y="59"/>
      <point x="107" y="81" type="curve"/>
      <point x="119" y="38"/>
      <point x="138" y="-10"/>
      <point x="182" y="-10" type="curve" smooth="yes"/>
      <point x="239" y="-10"/>
      <point x="270" y="42"/>
      <point x="270" y="115" type="curve" smooth="yes"/>
      <point x="270" y="183"/>
      <point x="242" y="237"/>
      <point x="194" y="237" type="curve" smooth="yes"/>
      <point x="171" y="237"/>
      <point x="151" y="225"/>
      <point x="142" y="215" type="curve"/>
      <point x="142" y="760" type="line"/>
      <point x="74" y="760" type="line"/>
      <point x="74" y="222" type="line" smooth="yes"/>
      <point x="74" y="200"/>
      <point x="76" y="187"/>
      <point x="79" y="168" type="curve"/>
      <point x="63" y="130"/>
      <point x="47" y="64"/>
      <point x="39" y="2" type="curve"/>
    </contour>
    <contour>
      <point x="181" y="54" type="curve" smooth="yes"/>
      <point x="158" y="54"/>
      <point x="147" y="88"/>
      <point x="144" y="137" type="curve"/>
      <point x="152" y="149"/>
      <point x="166" y="163"/>
      <point x="183" y="163" type="curve" smooth="yes"/>
      <point x="203" y="163"/>
      <point x="214" y="142"/>
      <point x="214" y="111" type="curve" smooth="yes"/>
      <point x="214" y="80"/>
      <point x="201" y="54"/>
    </contour>
  </outline>
</glyph>
<glyph name="uni0236" format="2">
  <advance width="300"/>
  <unicode hex="0236"/>
  <anchor x="194" y="0" name="bottom"/>
  <anchor x="143" y="677" name="top"/>
  <outline>
    <contour>
      <point x="96" y="-25" type="line"/>
      <point x="101" y="9"/>
      <point x="111" y="43"/>
      <point x="119" y="67" type="curve"/>
      <point x="129" y="25"/>
      <point x="152" y="-10"/>
      <point x="192" y="-10" type="curve" smooth="yes"/>
      <point x="250" y="-10"/>
      <point x="279" y="43"/>
      <point x="279" y="113" type="curve" smooth="yes"/>
      <point x="279" y="177"/>
      <point x="254" y="227"/>
      <point x="205" y="227" type="curve" smooth="yes"/>
      <point x="186" y="227"/>
      <point x="170" y="217"/>
      <point x="160" y="205" type="curve"/>
      <point x="160" y="468" type="line"/>
      <point x="266" y="468" type="line"/>
      <point x="266" y="535" type="line"/>
      <point x="160" y="535" type="line"/>
      <point x="160" y="677" type="line"/>
      <point x="116" y="677" type="line"/>
      <point x="95" y="538" type="line"/>
      <point x="21" y="516" type="line"/>
      <point x="21" y="468" type="line"/>
      <point x="90" y="468" type="line"/>
      <point x="90" y="207" type="line" smooth="yes"/>
      <point x="90" y="183"/>
      <point x="92" y="165"/>
      <point x="94" y="149" type="curve"/>
      <point x="81" y="119"/>
      <point x="65" y="64"/>
      <point x="57" y="0" type="curve"/>
    </contour>
    <contour>
      <point x="198" y="54" type="curve" smooth="yes"/>
      <point x="178" y="54"/>
      <point x="167" y="90"/>
      <point x="165" y="136" type="curve"/>
      <point x="172" y="149"/>
      <point x="184" y="163"/>
      <point x="199" y="163" type="curve" smooth="yes"/>
      <point x="216" y="163"/>
      <point x="225" y="141"/>
      <point x="225" y="109" type="curve" smooth="yes"/>
      <point x="225" y="79"/>
      <point x="214" y="54"/>
    </contour>
  </outline>
</glyph>
<glyph name="uni0238" format="2">
  <advance width="300"/>
  <unicode hex="0238"/>
  <anchor x="149" y="0" name="bottom"/>
  <anchor x="150" y="760" name="top"/>
  <outline>
    <contour>
      <point x="94" y="-10" type="curve" smooth="yes"/>
      <point x="120" y="-10"/>
      <point x="140" y="24"/>
      <point x="149" y="93" type="curve"/>
      <point x="158" y="24"/>
      <point x="177" y="-10"/>
      <point x="203" y="-10" type="curve" smooth="yes"/>
      <point x="260" y="-10"/>
      <point x="278" y="90"/>
      <point x="278" y="268" type="curve" smooth="yes"/>
      <point x="278" y="474"/>
      <point x="257" y="544"/>
      <point x="216" y="544" type="curve" smooth="yes"/>
      <point x="196" y="544"/>
      <point x="183" y="522"/>
      <point x="176" y="489" type="curve"/>
      <point x="174" y="489" type="line"/>
      <point x="175" y="507"/>
      <point x="175" y="527"/>
      <point x="175" y="548" type="curve" smooth="yes"/>
      <point x="175" y="760" type="line"/>
      <point x="123" y="760" type="line"/>
      <point x="123" y="547" type="line" smooth="yes"/>
      <point x="123" y="526"/>
      <point x="123" y="509"/>
      <point x="124" y="489" type="curve"/>
      <point x="122" y="489" type="line"/>
      <point x="116" y="521"/>
      <point x="104" y="545"/>
      <point x="85" y="545" type="curve" smooth="yes"/>
      <point x="42" y="545"/>
      <point x="20" y="472"/>
      <point x="20" y="269" type="curve" smooth="yes"/>
      <point x="20" y="87"/>
      <point x="37" y="-10"/>
    </contour>
    <contour>
      <point x="99" y="55" type="curve" smooth="yes"/>
      <point x="85" y="55"/>
      <point x="76" y="106"/>
      <point x="76" y="268" type="curve" smooth="yes"/>
      <point x="76" y="428"/>
      <point x="84" y="479"/>
      <point x="99" y="479" type="curve" smooth="yes"/>
      <point x="115" y="479"/>
      <point x="123" y="436"/>
      <point x="123" y="268" type="curve" smooth="yes"/>
      <point x="123" y="101"/>
      <point x="116" y="55"/>
    </contour>
    <contour>
      <point x="199" y="56" type="curve" smooth="yes"/>
      <point x="183" y="56"/>
      <point x="175" y="102"/>
      <point x="175" y="268" type="curve" smooth="yes"/>
      <point x="175" y="434"/>
      <point x="183" y="479"/>
      <point x="199" y="479" type="curve" smooth="yes"/>
      <point x="215" y="479"/>
      <point x="222" y="430"/>
      <point x="222" y="269" type="curve" smooth="yes"/>
      <point x="222" y="101"/>
      <point x="214" y="56"/>
    </contour>
  </outline>
</glyph>
<glyph name="uni023C" format="2">
  <advance width="300"/>
  <unicode hex="023C"/>
  <anchor x="149" y="-206" name="bottom"/>
  <anchor x="166" y="760" name="top"/>
  <anchor x="289" y="535" name="topright"/>
  <outline>
    <contour>
      <point x="92" y="-206" type="line"/>
      <point x="132" y="-206" type="line"/>
      <point x="265" y="760" type="line"/>
      <point x="225" y="760" type="line"/>
    </contour>
    <component base="c" xOffset="10"/>
  </outline>
</glyph>
<glyph name="uni023D" format="2">
  <advance width="300"/>
  <unicode hex="023D"/>
  <anchor x="150" y="0" name="bottom"/>
  <anchor x="82" y="714" name="top"/>
  <anchor x="229" y="714" name="topright"/>
  <anchor x="160" y="357" name="center"/>
  <outline>
    <contour>
      <point x="10" y="331" type="line"/>
      <point x="188" y="331" type="line"/>
      <point x="188" y="384" type="line"/>
      <point x="10" y="384" type="line"/>
    </contour>
    <component base="L" xOffset="10"/>
  </outline>
</glyph>
<glyph name="uni023F" format="2">
  <advance width="300"/>
  <unicode hex="023F"/>
  <anchor x="167" y="-240" name="bottom"/>
  <anchor x="150" y="535" name="top"/>
  <anchor x="288" y="535" name="topright"/>
  <outline>
    <contour>
      <point x="189" y="-239" type="curve" smooth="yes"/>
      <point x="206" y="-239"/>
      <point x="218" y="-234"/>
      <point x="226" y="-229" type="curve"/>
      <point x="226" y="-170" type="line"/>
      <point x="220" y="-174"/>
      <point x="212" y="-178"/>
      <point x="203" y="-178" type="curve" smooth="yes"/>
      <point x="180" y="-178"/>
      <point x="170" y="-150"/>
      <point x="161" y="-78" type="curve" smooth="yes"/>
      <point x="157" y="-44"/>
      <point x="151" y="-19"/>
      <point x="143" y="-4" type="curve"/>
      <point x="67" y="10" type="line"/>
      <point x="87" y="-3"/>
      <point x="94" y="-24"/>
      <point x="104" y="-92" type="curve" smooth="yes"/>
      <point x="119" y="-192"/>
      <point x="133" y="-239"/>
    </contour>
    <component base="s" xOffset="10"/>
  </outline>
</glyph>
<glyph name="uni0241" format="2">
  <advance width="300"/>
  <unicode hex="0241"/>
  <anchor x="133" y="0" name="bottom"/>
  <anchor x="133" y="714" name="top"/>
  <outline>
    <contour>
      <point x="97" y="0" type="line"/>
      <point x="170" y="0" type="line"/>
      <point x="170" y="272" type="line"/>
      <point x="232" y="329"/>
      <point x="268" y="402"/>
      <point x="268" y="518" type="curve" smooth="yes"/>
      <point x="268" y="645"/>
      <point x="221" y="724"/>
      <point x="134" y="724" type="curve" smooth="yes"/>
      <point x="88" y="724"/>
      <point x="46" y="701"/>
      <point x="21" y="668" type="curve"/>
      <point x="45" y="600" type="line"/>
      <point x="64" y="631"/>
      <point x="94" y="650"/>
      <point x="126" y="650" type="curve" smooth="yes"/>
      <point x="170" y="650"/>
      <point x="192" y="596"/>
      <point x="192" y="515" type="curve" smooth="yes"/>
      <point x="192" y="412"/>
      <point x="158" y="357"/>
      <point x="97" y="320" type="curve"/>
    </contour>
  </outline>
</glyph>
<glyph name="uni0242" format="2">
  <advance width="300"/>
  <unicode hex="0242"/>
  <anchor x="148" y="0" name="bottom"/>
  <anchor x="150" y="535" name="top"/>
  <outline>
    <contour>
      <point x="101" y="0" type="line"/>
      <point x="163" y="0" type="line"/>
      <point x="163" y="121" type="line"/>
      <point x="217" y="194"/>
      <point x="245" y="247"/>
      <point x="245" y="367" type="curve" smooth="yes"/>
      <point x="245" y="481"/>
      <point x="207" y="545"/>
      <point x="140" y="545" type="curve" smooth="yes"/>
      <point x="107" y="545"/>
      <point x="76" y="534"/>
      <point x="47" y="503" type="curve"/>
      <point x="69" y="443" type="line"/>
      <point x="90" y="466"/>
      <point x="107" y="477"/>
      <point x="130" y="477" type="curve" smooth="yes"/>
      <point x="156" y="477"/>
      <point x="178" y="437"/>
      <point x="178" y="362" type="curve" smooth="yes"/>
      <point x="178" y="273"/>
      <point x="156" y="225"/>
      <point x="101" y="146" type="curve"/>
    </contour>
  </outline>
</glyph>
<glyph name="uni024A" format="2">
  <advance width="300"/>
  <unicode hex="024A"/>
  <anchor x="149" y="-240" name="bottom"/>
  <anchor x="149" y="714" name="top"/>
  <outline>
    <contour>
      <point x="278" y="-240" type="curve" smooth="yes"/>
      <point x="294" y="-240"/>
      <point x="310" y="-234"/>
      <point x="318" y="-228" type="curve"/>
      <point x="318" y="-161" type="line"/>
      <point x="311" y="-165"/>
      <point x="303" y="-171"/>
      <point x="294" y="-171" type="curve" smooth="yes"/>
      <point x="276" y="-171"/>
      <point x="270" y="-145"/>
      <point x="270" y="-84" type="curve" smooth="yes"/>
      <point x="270" y="146" type="line"/>
      <point x="201" y="120" type="line"/>
      <point x="200" y="91"/>
      <point x="199" y="59"/>
      <point x="199" y="27" type="curve" smooth="yes"/>
      <point x="199" y="-90" type="line" smooth="yes"/>
      <point x="199" y="-194"/>
      <point x="227" y="-240"/>
    </contour>
    <component base="uni2C6D" xOffset="10"/>
  </outline>
</glyph>
<glyph name="uni024B" format="2">
  <advance width="300"/>
  <unicode hex="024B"/>
  <anchor x="140" y="-240" name="bottom"/>
  <anchor x="139" y="535" name="top"/>
  <outline>
    <contour>
      <point x="267" y="-240" type="curve" smooth="yes"/>
      <point x="286" y="-240"/>
      <point x="302" y="-237"/>
      <point x="310" y="-229" type="curve"/>
      <point x="310" y="-162" type="line"/>
      <point x="304" y="-168"/>
      <point x="298" y="-171"/>
      <point x="288" y="-171" type="curve" smooth="yes"/>
      <point x="271" y="-171"/>
      <point x="263" y="-141"/>
      <point x="263" y="-77" type="curve" smooth="yes"/>
      <point x="263" y="535" type="line"/>
      <point x="207" y="535" type="line"/>
      <point x="200" y="460" type="line"/>
      <point x="196" y="460" type="line"/>
      <point x="181" y="507"/>
      <point x="155" y="546"/>
      <point x="127" y="546" type="curve" smooth="yes"/>
      <point x="67" y="546"/>
      <point x="26" y="448"/>
      <point x="26" y="266" type="curve" smooth="yes"/>
      <point x="26" y="85"/>
      <point x="59" y="-10"/>
      <point x="123" y="-10" type="curve" smooth="yes"/>
      <point x="156" y="-10"/>
      <point x="184" y="29"/>
      <point x="197" y="76" type="curve"/>
      <point x="201" y="76" type="line"/>
      <point x="199" y="46"/>
      <point x="196" y="19"/>
      <point x="196" y="-8" type="curve" smooth="yes"/>
      <point x="196" y="-83" type="line" smooth="yes"/>
      <point x="196" y="-184"/>
      <point x="214" y="-240"/>
    </contour>
    <contour>
      <point x="148" y="59" type="curve" smooth="yes"/>
      <point x="115" y="59"/>
      <point x="100" y="128"/>
      <point x="100" y="266" type="curve" smooth="yes"/>
      <point x="100" y="402"/>
      <point x="115" y="477"/>
      <point x="150" y="477" type="curve" smooth="yes"/>
      <point x="184" y="477"/>
      <point x="197" y="397"/>
      <point x="197" y="270" type="curve" smooth="yes"/>
      <point x="197" y="246" type="line" smooth="yes"/>
      <point x="197" y="138"/>
      <point x="182" y="59"/>
    </contour>
  </outline>
</glyph>
<glyph name="uni024C" format="2">
  <advance width="300"/>
  <unicode hex="024C"/>
  <anchor x="158" y="0" name="bottom"/>
  <anchor x="150" y="714" name="top"/>
  <anchor x="288" y="714" name="topright"/>
  <outline>
    <contour>
      <point x="10" y="297" type="line"/>
      <point x="116" y="297" type="line"/>
      <point x="116" y="367" type="line"/>
      <point x="10" y="367" type="line"/>
    </contour>
    <component base="R" xOffset="10"/>
  </outline>
</glyph>
<glyph name="uni0251" format="2">
  <advance width="300"/>
  <unicode hex="0251"/>
  <anchor x="149" y="0" name="bottom"/>
  <anchor x="149" y="535" name="top"/>
  <outline>
    <contour>
      <point x="121" y="-10" type="curve" smooth="yes"/>
      <point x="162" y="-10"/>
      <point x="184" y="14"/>
      <point x="198" y="76" type="curve"/>
      <point x="201" y="76" type="line"/>
      <point x="207" y="0" type="line"/>
      <point x="263" y="0" type="line"/>
      <point x="263" y="535" type="line"/>
      <point x="209" y="535" type="line"/>
      <point x="199" y="466" type="line"/>
      <point x="195" y="466" type="line"/>
      <point x="183" y="519"/>
      <point x="163" y="546"/>
      <point x="124" y="546" type="curve" smooth="yes"/>
      <point x="63" y="546"/>
      <point x="26" y="451"/>
      <point x="26" y="266" type="curve" smooth="yes"/>
      <point x="26" y="82"/>
      <point x="63" y="-10"/>
    </contour>
    <contour>
      <point x="145" y="59" type="curve" smooth="yes"/>
      <point x="112" y="59"/>
      <point x="95" y="119"/>
      <point x="95" y="263" type="curve" smooth="yes"/>
      <point x="95" y="411"/>
      <point x="114" y="478"/>
      <point x="147" y="478" type="curve" smooth="yes"/>
      <point x="182" y="478"/>
      <point x="196" y="409"/>
      <point x="196" y="276" type="curve" smooth="yes"/>
      <point x="196" y="250" type="line" smooth="yes"/>
      <point x="196" y="127"/>
      <point x="181" y="59"/>
    </contour>
  </outline>
</glyph>
<glyph name="uni0255" format="2">
  <advance width="300"/>
  <unicode hex="0255"/>
  <anchor x="150" y="0" name="bottom"/>
  <anchor x="150" y="535" name="top"/>
  <outline>
    <contour>
      <point x="85" y="-27" type="line"/>
      <point x="88" y="-6"/>
      <point x="94" y="16"/>
      <point x="99" y="31" type="curve"/>
      <point x="115" y="4"/>
      <point x="143" y="-10"/>
      <point x="176" y="-10" type="curve" smooth="yes"/>
      <point x="238" y="-10"/>
      <point x="272" y="40"/>
      <point x="272" y="114" type="curve" smooth="yes"/>
      <point x="272" y="180"/>
      <point x="244" y="223"/>
      <point x="190" y="223" type="curve" smooth="yes"/>
      <point x="158" y="223"/>
      <point x="131" y="190"/>
      <point x="118" y="155" type="curve"/>
      <point x="116" y="180"/>
      <point x="114" y="217"/>
      <point x="114" y="265" type="curve" smooth="yes"/>
      <point x="114" y="406"/>
      <point x="140" y="478"/>
      <point x="190" y="478" type="curve" smooth="yes"/>
      <point x="211" y="478"/>
      <point x="229" y="468"/>
      <point x="245" y="452" type="curve"/>
      <point x="265" y="517" type="line"/>
      <point x="243" y="533"/>
      <point x="215" y="546"/>
      <point x="179" y="546" type="curve" smooth="yes"/>
      <point x="84" y="546"/>
      <point x="42" y="441"/>
      <point x="42" y="264" type="curve" smooth="yes"/>
      <point x="42" y="190"/>
      <point x="49" y="127"/>
      <point x="60" y="83" type="curve"/>
      <point x="49" y="56"/>
      <point x="38" y="26"/>
      <point x="30" y="-8" type="curve"/>
    </contour>
    <contour>
      <point x="181" y="54" type="curve" smooth="yes"/>
      <point x="158" y="54"/>
      <point x="143" y="68"/>
      <point x="134" y="96" type="curve"/>
      <point x="144" y="139"/>
      <point x="160" y="162"/>
      <point x="181" y="162" type="curve" smooth="yes"/>
      <point x="201" y="162"/>
      <point x="213" y="142"/>
      <point x="213" y="108" type="curve" smooth="yes"/>
      <point x="213" y="78"/>
      <point x="200" y="54"/>
    </contour>
  </outline>
</glyph>
<glyph name="schwahook" format="2">
  <advance width="300"/>
  <unicode hex="025A"/>
  <anchor x="116" y="0" name="bottom"/>
  <anchor x="117" y="535" name="top"/>
  <outline>
    <contour>
      <point x="106" y="-10" type="curve" smooth="yes"/>
      <point x="169" y="-10"/>
      <point x="194" y="98"/>
      <point x="195" y="289" type="curve"/>
      <point x="203" y="295" type="line"/>
      <point x="211" y="206"/>
      <point x="228" y="180"/>
      <point x="253" y="180" type="curve" smooth="yes"/>
      <point x="270" y="180"/>
      <point x="281" y="193"/>
      <point x="291" y="209" type="curve"/>
      <point x="280" y="246" type="line"/>
      <point x="275" y="236"/>
      <point x="268" y="229"/>
      <point x="260" y="229" type="curve" smooth="yes"/>
      <point x="246" y="229"/>
      <point x="240" y="249"/>
      <point x="234" y="317" type="curve" smooth="yes"/>
      <point x="230" y="366" type="line"/>
      <point x="194" y="347" type="line"/>
      <point x="187" y="474"/>
      <point x="157" y="545"/>
      <point x="100" y="545" type="curve" smooth="yes"/>
      <point x="71" y="545"/>
      <point x="51" y="533"/>
      <point x="36" y="521" type="curve"/>
      <point x="36" y="455" type="line"/>
      <point x="48" y="470"/>
      <point x="65" y="481"/>
      <point x="86" y="481" type="curve" smooth="yes"/>
      <point x="120" y="481"/>
      <point x="135" y="432"/>
      <point x="138" y="328" type="curve"/>
      <point x="25" y="251" type="line"/>
      <point x="25" y="73"/>
      <point x="48" y="-10"/>
    </contour>
    <contour>
      <point x="109" y="52" type="curve" smooth="yes"/>
      <point x="89" y="52"/>
      <point x="82" y="119"/>
      <point x="82" y="215" type="curve"/>
      <point x="138" y="269" type="line"/>
      <point x="138" y="133"/>
      <point x="131" y="52"/>
    </contour>
  </outline>
</glyph>
<glyph name="eopenreversedhook" format="2">
  <advance width="300"/>
  <unicode hex="025D"/>
  <anchor x="112" y="0" name="bottom"/>
  <anchor x="108" y="536" name="top"/>
  <outline>
    <contour>
      <point x="262" y="278" type="curve" smooth="yes"/>
      <point x="279" y="278"/>
      <point x="290" y="292"/>
      <point x="300" y="308" type="curve"/>
      <point x="289" y="345" type="line"/>
      <point x="284" y="335"/>
      <point x="277" y="328"/>
      <point x="269" y="328" type="curve" smooth="yes"/>
      <point x="255" y="328"/>
      <point x="249" y="347"/>
      <point x="244" y="415" type="curve" smooth="yes"/>
      <point x="240" y="464" type="line"/>
      <point x="196" y="446" type="line"/>
      <point x="197" y="387" type="line"/>
      <point x="212" y="393" type="line"/>
      <point x="220" y="305"/>
      <point x="237" y="278"/>
    </contour>
    <component base="afii10073" xOffset="-25"/>
  </outline>
</glyph>
<glyph name="uni0260" format="2">
  <advance width="300"/>
  <unicode hex="0260"/>
  <anchor x="149" y="-245" name="bottom"/>
  <anchor x="149" y="768" name="top"/>
  <outline>
    <contour>
      <point x="130" y="-245" type="curve" smooth="yes"/>
      <point x="223" y="-245"/>
      <point x="263" y="-167"/>
      <point x="263" y="-16" type="curve" smooth="yes"/>
      <point x="263" y="628" type="line" smooth="yes"/>
      <point x="263" y="683"/>
      <point x="271" y="700"/>
      <point x="288" y="700" type="curve" smooth="yes"/>
      <point x="296" y="700"/>
      <point x="304" y="697"/>
      <point x="312" y="691" type="curve"/>
      <point x="312" y="759" type="line"/>
      <point x="303" y="764"/>
      <point x="284" y="768"/>
      <point x="272" y="768" type="curve" smooth="yes"/>
      <point x="220" y="768"/>
      <point x="194" y="720"/>
      <point x="194" y="631" type="curve" smooth="yes"/>
      <point x="194" y="527" type="line" smooth="yes"/>
      <point x="194" y="509"/>
      <point x="195" y="483"/>
      <point x="197" y="463" type="curve"/>
      <point x="195" y="463" type="line"/>
      <point x="179" y="517"/>
      <point x="158" y="546"/>
      <point x="126" y="546" type="curve" smooth="yes"/>
      <point x="62" y="546"/>
      <point x="26" y="438"/>
      <point x="26" y="265" type="curve" smooth="yes"/>
      <point x="26" y="91"/>
      <point x="62" y="-9"/>
      <point x="124" y="-9" type="curve" smooth="yes"/>
      <point x="156" y="-9"/>
      <point x="179" y="18"/>
      <point x="193" y="75" type="curve"/>
      <point x="196" y="75" type="line"/>
      <point x="195" y="60"/>
      <point x="194" y="24"/>
      <point x="194" y="6" type="curve" smooth="yes"/>
      <point x="194" y="-22" type="line" smooth="yes"/>
      <point x="194" y="-117"/>
      <point x="170" y="-176"/>
      <point x="125" y="-176" type="curve" smooth="yes"/>
      <point x="99" y="-176"/>
      <point x="71" y="-161"/>
      <point x="41" y="-136" type="curve"/>
      <point x="41" y="-211" type="line"/>
      <point x="68" y="-233"/>
      <point x="94" y="-245"/>
    </contour>
    <contour>
      <point x="148" y="59" type="curve" smooth="yes"/>
      <point x="113" y="59"/>
      <point x="100" y="130"/>
      <point x="100" y="266" type="curve" smooth="yes"/>
      <point x="100" y="401"/>
      <point x="113" y="478"/>
      <point x="151" y="478" type="curve" smooth="yes"/>
      <point x="185" y="478"/>
      <point x="196" y="411"/>
      <point x="196" y="271" type="curve" smooth="yes"/>
      <point x="196" y="245" type="line" smooth="yes"/>
      <point x="196" y="121"/>
      <point x="182" y="59"/>
    </contour>
  </outline>
</glyph>
<glyph name="uni0263" format="2">
  <advance width="300"/>
  <unicode hex="0263"/>
  <anchor x="150" y="-240" name="bottom"/>
  <anchor x="150" y="535" name="top"/>
  <outline>
    <contour>
      <point x="144" y="-240" type="curve" smooth="yes"/>
      <point x="192" y="-240"/>
      <point x="218" y="-190"/>
      <point x="218" y="-112" type="curve" smooth="yes"/>
      <point x="218" y="-60"/>
      <point x="207" y="20"/>
      <point x="185" y="92" type="curve"/>
      <point x="279" y="536" type="line"/>
      <point x="199" y="536" type="line"/>
      <point x="162" y="287" type="line" smooth="yes"/>
      <point x="156" y="248"/>
      <point x="149" y="178"/>
      <point x="148" y="145" type="curve"/>
      <point x="146" y="145" type="line"/>
      <point x="145" y="177"/>
      <point x="138" y="255"/>
      <point x="133" y="291" type="curve" smooth="yes"/>
      <point x="98" y="536" type="line"/>
      <point x="17" y="536" type="line"/>
      <point x="105" y="97" type="line"/>
      <point x="83" y="22"/>
      <point x="71" y="-54"/>
      <point x="71" y="-113" type="curve" smooth="yes"/>
      <point x="71" y="-193"/>
      <point x="96" y="-240"/>
    </contour>
    <contour>
      <point x="144" y="-182" type="curve" smooth="yes"/>
      <point x="134" y="-182"/>
      <point x="129" y="-162"/>
      <point x="129" y="-110" type="curve" smooth="yes"/>
      <point x="129" y="-79"/>
      <point x="133" y="-28"/>
      <point x="145" y="38" type="curve"/>
      <point x="156" y="-25"/>
      <point x="160" y="-77"/>
      <point x="160" y="-112" type="curve" smooth="yes"/>
      <point x="160" y="-163"/>
      <point x="155" y="-182"/>
    </contour>
  </outline>
</glyph>
<glyph name="uni0264" format="2">
  <advance width="300"/>
  <unicode hex="0264"/>
  <anchor x="150" y="0" name="bottom"/>
  <anchor x="150" y="535" name="top"/>
  <outline>
    <contour>
      <point x="150" y="-9" type="curve" smooth="yes"/>
      <point x="196" y="-9"/>
      <point x="223" y="41"/>
      <point x="223" y="108" type="curve" smooth="yes"/>
      <point x="223" y="161"/>
      <point x="210" y="207"/>
      <point x="189" y="264" type="curve"/>
      <point x="226" y="428" type="line" smooth="yes"/>
      <point x="234" y="464"/>
      <point x="242" y="477"/>
      <point x="263" y="477" type="curve" smooth="yes"/>
      <point x="270" y="477"/>
      <point x="271" y="474"/>
      <point x="278" y="470" type="curve"/>
      <point x="278" y="533" type="line"/>
      <point x="271" y="540"/>
      <point x="258" y="544"/>
      <point x="241" y="544" type="curve" smooth="yes"/>
      <point x="217" y="544"/>
      <point x="199" y="530"/>
      <point x="187" y="477" type="curve" smooth="yes"/>
      <point x="166" y="380" type="line" smooth="yes"/>
      <point x="158" y="345"/>
      <point x="154" y="325"/>
      <point x="152" y="310" type="curve"/>
      <point x="150" y="310" type="line"/>
      <point x="147" y="325"/>
      <point x="143" y="346"/>
      <point x="136" y="381" type="curve" smooth="yes"/>
      <point x="114" y="480" type="line" smooth="yes"/>
      <point x="104" y="526"/>
      <point x="87" y="545"/>
      <point x="57" y="545" type="curve" smooth="yes"/>
      <point x="44" y="545"/>
      <point x="29" y="541"/>
      <point x="22" y="533" type="curve"/>
      <point x="22" y="472" type="line"/>
      <point x="27" y="477"/>
      <point x="32" y="478"/>
      <point x="38" y="478" type="curve" smooth="yes"/>
      <point x="53" y="478"/>
      <point x="67" y="466"/>
      <point x="75" y="429" type="curve" smooth="yes"/>
      <point x="109" y="264" type="line"/>
      <point x="91" y="208"/>
      <point x="78" y="157"/>
      <point x="78" y="105" type="curve" smooth="yes"/>
      <point x="78" y="37"/>
      <point x="103" y="-9"/>
    </contour>
    <contour>
      <point x="150" y="47" type="curve" smooth="yes"/>
      <point x="140" y="47"/>
      <point x="134" y="65"/>
      <point x="134" y="107" type="curve" smooth="yes"/>
      <point x="134" y="137"/>
      <point x="139" y="180"/>
      <point x="151" y="221" type="curve"/>
      <point x="162" y="180"/>
      <point x="167" y="139"/>
      <point x="167" y="106" type="curve" smooth="yes"/>
      <point x="167" y="65"/>
      <point x="161" y="47"/>
    </contour>
  </outline>
</glyph>
<glyph name="uni0266" format="2">
  <advance width="300"/>
  <unicode hex="0266"/>
  <anchor x="150" y="0" name="bottom"/>
  <anchor x="94" y="760" name="top"/>
  <outline>
    <contour>
      <point x="36" y="0" type="line"/>
      <point x="106" y="0" type="line"/>
      <point x="106" y="281" type="line" smooth="yes"/>
      <point x="106" y="407"/>
      <point x="120" y="478"/>
      <point x="156" y="478" type="curve" smooth="yes"/>
      <point x="189" y="478"/>
      <point x="197" y="430"/>
      <point x="197" y="335" type="curve" smooth="yes"/>
      <point x="197" y="0" type="line"/>
      <point x="266" y="0" type="line"/>
      <point x="266" y="351" type="line" smooth="yes"/>
      <point x="266" y="486"/>
      <point x="234" y="546"/>
      <point x="179" y="546" type="curve" smooth="yes"/>
      <point x="141" y="546"/>
      <point x="116" y="510"/>
      <point x="104" y="459" type="curve"/>
      <point x="100" y="459" type="line"/>
      <point x="104" y="482"/>
      <point x="106" y="505"/>
      <point x="106" y="528" type="curve" smooth="yes"/>
      <point x="106" y="625" type="line" smooth="yes"/>
      <point x="106" y="679"/>
      <point x="114" y="697"/>
      <point x="133" y="697" type="curve" smooth="yes"/>
      <point x="140" y="697"/>
      <point x="149" y="694"/>
      <point x="158" y="688" type="curve"/>
      <point x="158" y="756" type="line"/>
      <point x="148" y="761"/>
      <point x="129" y="765"/>
      <point x="116" y="765" type="curve" smooth="yes"/>
      <point x="64" y="765"/>
      <point x="36" y="716"/>
      <point x="36" y="627" type="curve" smooth="yes"/>
    </contour>
  </outline>
</glyph>
<glyph name="uni0267" format="2">
  <advance width="300"/>
  <unicode hex="0267"/>
  <anchor x="150" y="-240" name="bottom"/>
  <anchor x="150" y="268" name="center"/>
  <anchor x="94" y="760" name="top"/>
  <outline>
    <contour>
      <point x="189" y="-240" type="curve" smooth="yes"/>
      <point x="240" y="-240"/>
      <point x="266" y="-193"/>
      <point x="266" y="-97" type="curve" smooth="yes"/>
      <point x="266" y="351" type="line" smooth="yes"/>
      <point x="266" y="486"/>
      <point x="234" y="546"/>
      <point x="179" y="546" type="curve" smooth="yes"/>
      <point x="141" y="546"/>
      <point x="116" y="510"/>
      <point x="104" y="459" type="curve"/>
      <point x="100" y="459" type="line"/>
      <point x="104" y="482"/>
      <point x="106" y="505"/>
      <point x="106" y="528" type="curve" smooth="yes"/>
      <point x="106" y="625" type="line" smooth="yes"/>
      <point x="106" y="679"/>
      <point x="114" y="697"/>
      <point x="133" y="697" type="curve" smooth="yes"/>
      <point x="140" y="697"/>
      <point x="149" y="694"/>
      <point x="158" y="688" type="curve"/>
      <point x="158" y="756" type="line"/>
      <point x="148" y="761"/>
      <point x="129" y="765"/>
      <point x="116" y="765" type="curve" smooth="yes"/>
      <point x="64" y="765"/>
      <point x="36" y="716"/>
      <point x="36" y="627" type="curve" smooth="yes"/>
      <point x="36" y="0" type="line"/>
      <point x="106" y="0" type="line"/>
      <point x="106" y="281" type="line" smooth="yes"/>
      <point x="106" y="407"/>
      <point x="120" y="478"/>
      <point x="156" y="478" type="curve" smooth="yes"/>
      <point x="189" y="478"/>
      <point x="197" y="430"/>
      <point x="197" y="335" type="curve" smooth="yes"/>
      <point x="197" y="-97" type="line" smooth="yes"/>
      <point x="197" y="-146"/>
      <point x="187" y="-172"/>
      <point x="168" y="-172" type="curve" smooth="yes"/>
      <point x="156" y="-172"/>
      <point x="146" y="-165"/>
      <point x="137" y="-158" type="curve"/>
      <point x="137" y="-227" type="line"/>
      <point x="150" y="-234"/>
      <point x="168" y="-240"/>
    </contour>
  </outline>
</glyph>
<glyph name="uni0268" format="2">
  <advance width="300"/>
  <unicode hex="0268"/>
  <anchor x="150" y="0" name="bottom"/>
  <anchor x="150" y="762" name="top"/>
  <anchor x="258" y="762" name="topright"/>
  <outline>
    <contour>
      <point x="53" y="234" type="line"/>
      <point x="256" y="234" type="line"/>
      <point x="256" y="293" type="line"/>
      <point x="53" y="293" type="line"/>
    </contour>
    <component base="i" xOffset="10"/>
  </outline>
</glyph>
<glyph name="uni026C" format="2">
  <advance width="300"/>
  <unicode hex="026C"/>
  <anchor x="149" y="0" name="bottom"/>
  <anchor x="153" y="760" name="top"/>
  <anchor x="253" y="760" name="topright"/>
  <anchor x="163" y="371" name="center"/>
  <outline>
    <contour>
      <point x="101" y="306" type="curve"/>
      <point x="233" y="306" type="line"/>
      <point x="233" y="362" type="line"/>
      <point x="185" y="362" type="line"/>
      <point x="117" y="465" type="line"/>
      <point x="110" y="483"/>
      <point x="101" y="491"/>
      <point x="91" y="491" type="curve" smooth="yes"/>
      <point x="58" y="491"/>
      <point x="37" y="455"/>
      <point x="37" y="401" type="curve" smooth="yes"/>
      <point x="37" y="339"/>
      <point x="57" y="306"/>
    </contour>
    <contour>
      <point x="104" y="362" type="line" smooth="yes"/>
      <point x="90" y="362"/>
      <point x="81" y="374"/>
      <point x="81" y="403" type="curve" smooth="yes"/>
      <point x="81" y="425"/>
      <point x="87" y="439"/>
      <point x="97" y="439" type="curve" smooth="yes"/>
      <point x="109" y="439"/>
      <point x="117" y="405"/>
      <point x="117" y="370" type="curve" smooth="yes"/>
      <point x="117" y="362" type="line"/>
    </contour>
    <component base="l" xOffset="10"/>
  </outline>
</glyph>
<glyph name="uni026E" format="2">
  <advance width="300"/>
  <unicode hex="026E"/>
  <anchor x="147" y="-240" name="bottom"/>
  <anchor x="71" y="760" name="top"/>
  <outline>
    <contour>
      <point x="148" y="-240" type="curve" smooth="yes"/>
      <point x="224" y="-240"/>
      <point x="272" y="-137"/>
      <point x="272" y="6" type="curve" smooth="yes"/>
      <point x="272" y="145"/>
      <point x="237" y="214"/>
      <point x="184" y="222" type="curve"/>
      <point x="262" y="483" type="line"/>
      <point x="262" y="536" type="line"/>
      <point x="98" y="536" type="line"/>
      <point x="98" y="760" type="line"/>
      <point x="36" y="760" type="line"/>
      <point x="36" y="0" type="line"/>
      <point x="98" y="0" type="line"/>
      <point x="98" y="470" type="line"/>
      <point x="190" y="470" type="line"/>
      <point x="119" y="217" type="line"/>
      <point x="119" y="161" type="line"/>
      <point x="135" y="161" type="line" smooth="yes"/>
      <point x="182" y="161"/>
      <point x="208" y="109"/>
      <point x="208" y="5" type="curve" smooth="yes"/>
      <point x="208" y="-105"/>
      <point x="182" y="-171"/>
      <point x="140" y="-171" type="curve" smooth="yes"/>
      <point x="114" y="-171"/>
      <point x="100" y="-153"/>
      <point x="86" y="-136" type="curve"/>
      <point x="86" y="-213" type="line"/>
      <point x="100" y="-227"/>
      <point x="119" y="-240"/>
    </contour>
  </outline>
</glyph>
<glyph name="uni0270" format="2">
  <advance width="300"/>
  <unicode hex="0270"/>
  <anchor x="249" y="-240" name="bottom"/>
  <anchor x="151" y="535" name="top"/>
  <outline>
    <contour>
      <point x="219" y="-240" type="line"/>
      <point x="277" y="-240" type="line"/>
      <point x="277" y="535" type="line"/>
      <point x="219" y="535" type="line"/>
      <point x="219" y="201" type="line" smooth="yes"/>
      <point x="219" y="134"/>
      <point x="215" y="58"/>
      <point x="195" y="58" type="curve" smooth="yes"/>
      <point x="181" y="58"/>
      <point x="177" y="85"/>
      <point x="177" y="145" type="curve" smooth="yes"/>
      <point x="177" y="535" type="line"/>
      <point x="122" y="535" type="line"/>
      <point x="122" y="192" type="line" smooth="yes"/>
      <point x="122" y="119"/>
      <point x="117" y="58"/>
      <point x="99" y="58" type="curve" smooth="yes"/>
      <point x="83" y="58"/>
      <point x="80" y="86"/>
      <point x="80" y="143" type="curve" smooth="yes"/>
      <point x="80" y="535" type="line"/>
      <point x="23" y="535" type="line"/>
      <point x="23" y="134" type="line" smooth="yes"/>
      <point x="23" y="31"/>
      <point x="31" y="-11"/>
      <point x="71" y="-11" type="curve" smooth="yes"/>
      <point x="98" y="-11"/>
      <point x="112" y="12"/>
      <point x="123" y="59" type="curve"/>
      <point x="125" y="59" type="line"/>
      <point x="131" y="14"/>
      <point x="140" y="-11"/>
      <point x="169" y="-11" type="curve" smooth="yes"/>
      <point x="194" y="-11"/>
      <point x="209" y="15"/>
      <point x="217" y="55" type="curve"/>
      <point x="219" y="55" type="line"/>
    </contour>
  </outline>
</glyph>
<glyph name="uni0271" format="2">
  <advance width="300"/>
  <unicode hex="0271"/>
  <anchor x="229" y="-240" name="bottom"/>
  <anchor x="151" y="535" name="top"/>
  <outline>
    <contour>
      <point x="206" y="-240" type="curve" smooth="yes"/>
      <point x="245" y="-240"/>
      <point x="277" y="-200"/>
      <point x="277" y="-106" type="curve" smooth="yes"/>
      <point x="277" y="401" type="line" smooth="yes"/>
      <point x="277" y="504"/>
      <point x="269" y="546"/>
      <point x="229" y="546" type="curve" smooth="yes"/>
      <point x="202" y="546"/>
      <point x="186" y="524"/>
      <point x="177" y="476" type="curve"/>
      <point x="175" y="476" type="line"/>
      <point x="169" y="521"/>
      <point x="159" y="546"/>
      <point x="132" y="546" type="curve" smooth="yes"/>
      <point x="106" y="546"/>
      <point x="91" y="523"/>
      <point x="82" y="480" type="curve"/>
      <point x="80" y="480" type="line"/>
      <point x="71" y="535" type="line"/>
      <point x="23" y="535" type="line"/>
      <point x="23" y="0" type="line"/>
      <point x="80" y="0" type="line"/>
      <point x="80" y="334" type="line" smooth="yes"/>
      <point x="80" y="401"/>
      <point x="85" y="478"/>
      <point x="105" y="478" type="curve" smooth="yes"/>
      <point x="118" y="478"/>
      <point x="122" y="450"/>
      <point x="122" y="390" type="curve" smooth="yes"/>
      <point x="122" y="0" type="line"/>
      <point x="178" y="0" type="line"/>
      <point x="178" y="343" type="line" smooth="yes"/>
      <point x="178" y="416"/>
      <point x="183" y="478"/>
      <point x="201" y="478" type="curve" smooth="yes"/>
      <point x="215" y="478"/>
      <point x="220" y="450"/>
      <point x="220" y="392" type="curve" smooth="yes"/>
      <point x="220" y="-110" type="line" smooth="yes"/>
      <point x="220" y="-156"/>
      <point x="211" y="-174"/>
      <point x="191" y="-174" type="curve" smooth="yes"/>
      <point x="180" y="-174"/>
      <point x="170" y="-169"/>
      <point x="163" y="-164" type="curve"/>
      <point x="163" y="-229" type="line"/>
      <point x="173" y="-234"/>
      <point x="187" y="-240"/>
    </contour>
  </outline>
</glyph>
<glyph name="uni0273" format="2">
  <advance width="300"/>
  <unicode hex="0273"/>
  <anchor x="153" y="-240" name="bottom"/>
  <anchor x="154" y="535" name="top"/>
  <outline>
    <contour>
      <point x="269" y="-240" type="curve" smooth="yes"/>
      <point x="284" y="-240"/>
      <point x="297" y="-234"/>
      <point x="307" y="-225" type="curve"/>
      <point x="307" y="-160" type="line"/>
      <point x="302" y="-166"/>
      <point x="295" y="-172"/>
      <point x="288" y="-172" type="curve" smooth="yes"/>
      <point x="273" y="-172"/>
      <point x="266" y="-154"/>
      <point x="266" y="-106" type="curve" smooth="yes"/>
      <point x="266" y="351" type="line" smooth="yes"/>
      <point x="266" y="487"/>
      <point x="234" y="546"/>
      <point x="178" y="546" type="curve" smooth="yes"/>
      <point x="140" y="546"/>
      <point x="117" y="516"/>
      <point x="104" y="460" type="curve"/>
      <point x="101" y="460" type="line"/>
      <point x="93" y="535" type="line"/>
      <point x="36" y="535" type="line"/>
      <point x="36" y="0" type="line"/>
      <point x="106" y="0" type="line"/>
      <point x="106" y="282" type="line" smooth="yes"/>
      <point x="106" y="408"/>
      <point x="122" y="478"/>
      <point x="157" y="478" type="curve" smooth="yes"/>
      <point x="182" y="478"/>
      <point x="197" y="433"/>
      <point x="197" y="347" type="curve" smooth="yes"/>
      <point x="197" y="-106" type="line" smooth="yes"/>
      <point x="197" y="-201"/>
      <point x="219" y="-240"/>
    </contour>
  </outline>
</glyph>
<glyph name="uni0274" format="2">
  <advance width="300"/>
  <unicode hex="0274"/>
  <anchor x="150" y="0" name="bottom"/>
  <anchor x="150" y="535" name="top"/>
  <outline>
    <contour>
      <point x="37" y="0" type="line"/>
      <point x="98" y="0" type="line"/>
      <point x="98" y="302" type="line" smooth="yes"/>
      <point x="98" y="343"/>
      <point x="97" y="385"/>
      <point x="95" y="427" type="curve"/>
      <point x="194" y="0" type="line"/>
      <point x="262" y="0" type="line"/>
      <point x="262" y="537" type="line"/>
      <point x="201" y="537" type="line"/>
      <point x="201" y="228" type="line" smooth="yes"/>
      <point x="201" y="189"/>
      <point x="202" y="153"/>
      <point x="204" y="109" type="curve"/>
      <point x="105" y="537" type="line"/>
      <point x="37" y="537" type="line"/>
    </contour>
  </outline>
</glyph>
<glyph name="omegaclosed" format="2">
  <advance width="300"/>
  <unicode hex="0277"/>
  <anchor x="150" y="0" name="bottom"/>
  <anchor x="151" y="535" name="top"/>
  <outline>
    <contour>
      <point x="93" y="-10" type="curve" smooth="yes"/>
      <point x="128" y="-10"/>
      <point x="142" y="24"/>
      <point x="149" y="81" type="curve"/>
      <point x="150" y="81" type="line"/>
      <point x="156" y="24"/>
      <point x="170" y="-10"/>
      <point x="205" y="-10" type="curve" smooth="yes"/>
      <point x="253" y="-10"/>
      <point x="277" y="78"/>
      <point x="277" y="246" type="curve" smooth="yes"/>
      <point x="277" y="436"/>
      <point x="241" y="546"/>
      <point x="151" y="546" type="curve" smooth="yes"/>
      <point x="66" y="546"/>
      <point x="22" y="429"/>
      <point x="22" y="246" type="curve" smooth="yes"/>
      <point x="22" y="78"/>
      <point x="48" y="-10"/>
    </contour>
    <contour>
      <point x="103" y="60" type="curve" smooth="yes"/>
      <point x="90" y="60"/>
      <point x="83" y="118"/>
      <point x="83" y="244" type="curve" smooth="yes"/>
      <point x="83" y="390"/>
      <point x="99" y="478"/>
      <point x="149" y="478" type="curve" smooth="yes"/>
      <point x="201" y="478"/>
      <point x="217" y="384"/>
      <point x="217" y="244" type="curve" smooth="yes"/>
      <point x="217" y="117"/>
      <point x="208" y="61"/>
      <point x="195" y="61" type="curve" smooth="yes"/>
      <point x="184" y="61"/>
      <point x="180" y="110"/>
      <point x="180" y="212" type="curve" smooth="yes"/>
      <point x="180" y="303" type="line"/>
      <point x="119" y="303" type="line"/>
      <point x="119" y="212" type="line" smooth="yes"/>
      <point x="119" y="111"/>
      <point x="114" y="60"/>
    </contour>
  </outline>
</glyph>
<glyph name="uni027A" format="2">
  <advance width="300"/>
  <unicode hex="027A"/>
  <anchor x="156" y="0" name="bottom"/>
  <anchor x="174" y="760" name="top"/>
  <outline>
    <contour>
      <point x="69" y="-11" type="curve" smooth="yes"/>
      <point x="111" y="-11"/>
      <point x="136" y="31"/>
      <point x="146" y="96" type="curve"/>
      <point x="150" y="96" type="line"/>
      <point x="156" y="0" type="line"/>
      <point x="265" y="0" type="line"/>
      <point x="265" y="55" type="line"/>
      <point x="206" y="69" type="line"/>
      <point x="206" y="760" type="line"/>
      <point x="141" y="760" type="line"/>
      <point x="141" y="265" type="line" smooth="yes"/>
      <point x="141" y="153"/>
      <point x="119" y="69"/>
      <point x="79" y="69" type="curve" smooth="yes"/>
      <point x="66" y="69"/>
      <point x="49" y="72"/>
      <point x="38" y="83" type="curve"/>
      <point x="20" y="6" type="line"/>
      <point x="38" y="-6"/>
      <point x="56" y="-11"/>
    </contour>
  </outline>
</glyph>
<glyph name="uni027B" format="2">
  <advance width="300"/>
  <unicode hex="027B"/>
  <anchor x="148" y="-240" name="bottom"/>
  <anchor x="179" y="535" name="top"/>
  <outline>
    <contour>
      <point x="224" y="-240" type="curve" smooth="yes"/>
      <point x="245" y="-240"/>
      <point x="257" y="-234"/>
      <point x="268" y="-225" type="curve"/>
      <point x="268" y="-160" type="line"/>
      <point x="261" y="-166"/>
      <point x="252" y="-172"/>
      <point x="240" y="-172" type="curve" smooth="yes"/>
      <point x="220" y="-172"/>
      <point x="211" y="-154"/>
      <point x="211" y="-106" type="curve" smooth="yes"/>
      <point x="211" y="535" type="line"/>
      <point x="145" y="535" type="line"/>
      <point x="145" y="263" type="line" smooth="yes"/>
      <point x="145" y="151"/>
      <point x="125" y="69"/>
      <point x="80" y="69" type="curve" smooth="yes"/>
      <point x="64" y="69"/>
      <point x="49" y="76"/>
      <point x="42" y="83" type="curve"/>
      <point x="24" y="6" type="line"/>
      <point x="33" y="-1"/>
      <point x="51" y="-11"/>
      <point x="69" y="-11" type="curve" smooth="yes"/>
      <point x="114" y="-11"/>
      <point x="137" y="27"/>
      <point x="146" y="91" type="curve"/>
      <point x="149" y="91" type="line"/>
      <point x="147" y="61"/>
      <point x="145" y="32"/>
      <point x="145" y="3" type="curve" smooth="yes"/>
      <point x="145" y="-106" type="line" smooth="yes"/>
      <point x="145" y="-201"/>
      <point x="174" y="-240"/>
    </contour>
  </outline>
</glyph>
<glyph name="rlongleg" format="2">
  <advance width="300"/>
  <unicode hex="027C"/>
  <anchor x="128" y="-240" name="bottom"/>
  <anchor x="163" y="535" name="top"/>
  <outline>
    <contour>
      <point x="94" y="-240" type="line"/>
      <point x="159" y="-240" type="line"/>
      <point x="159" y="270" type="line" smooth="yes"/>
      <point x="159" y="382"/>
      <point x="181" y="467"/>
      <point x="221" y="467" type="curve" smooth="yes"/>
      <point x="234" y="467"/>
      <point x="250" y="463"/>
      <point x="262" y="453" type="curve"/>
      <point x="280" y="529" type="line"/>
      <point x="262" y="541"/>
      <point x="244" y="546"/>
      <point x="231" y="546" type="curve" smooth="yes"/>
      <point x="189" y="546"/>
      <point x="164" y="504"/>
      <point x="154" y="440" type="curve"/>
      <point x="150" y="440" type="line"/>
      <point x="143" y="535" type="line"/>
      <point x="35" y="535" type="line"/>
      <point x="35" y="480" type="line"/>
      <point x="94" y="467" type="line"/>
    </contour>
  </outline>
</glyph>
<glyph name="uni027D" format="2">
  <advance width="300"/>
  <unicode hex="027D"/>
  <anchor x="169" y="-240" name="bottom"/>
  <anchor x="151" y="535" name="top"/>
  <outline>
    <contour>
      <point x="169" y="-240" type="curve" smooth="yes"/>
      <point x="189" y="-240"/>
      <point x="205" y="-234"/>
      <point x="216" y="-227" type="curve"/>
      <point x="216" y="-160" type="line"/>
      <point x="208" y="-165"/>
      <point x="200" y="-170"/>
      <point x="188" y="-170" type="curve" smooth="yes"/>
      <point x="169" y="-170"/>
      <point x="159" y="-147"/>
      <point x="159" y="-99" type="curve" smooth="yes"/>
      <point x="159" y="270" type="line" smooth="yes"/>
      <point x="159" y="382"/>
      <point x="181" y="467"/>
      <point x="221" y="467" type="curve" smooth="yes"/>
      <point x="234" y="467"/>
      <point x="250" y="463"/>
      <point x="262" y="453" type="curve"/>
      <point x="280" y="529" type="line"/>
      <point x="262" y="541"/>
      <point x="244" y="546"/>
      <point x="231" y="546" type="curve" smooth="yes"/>
      <point x="189" y="546"/>
      <point x="164" y="504"/>
      <point x="154" y="440" type="curve"/>
      <point x="150" y="440" type="line"/>
      <point x="143" y="535" type="line"/>
      <point x="35" y="535" type="line"/>
      <point x="35" y="480" type="line"/>
      <point x="94" y="467" type="line"/>
      <point x="94" y="-106" type="line" smooth="yes"/>
      <point x="94" y="-201"/>
      <point x="118" y="-240"/>
    </contour>
  </outline>
</glyph>
<glyph name="uni027E" format="2">
  <advance width="300"/>
  <unicode hex="027E"/>
  <anchor x="150" y="0" name="bottom"/>
  <anchor x="181" y="535" name="top"/>
  <outline>
    <contour>
      <point x="88" y="0" type="line"/>
      <point x="157" y="0" type="line"/>
      <point x="157" y="348" type="line" smooth="yes"/>
      <point x="157" y="436"/>
      <point x="180" y="474"/>
      <point x="217" y="474" type="curve" smooth="yes"/>
      <point x="235" y="474"/>
      <point x="247" y="462"/>
      <point x="256" y="452" type="curve"/>
      <point x="267" y="524" type="line"/>
      <point x="255" y="534"/>
      <point x="234" y="545"/>
      <point x="210" y="545" type="curve" smooth="yes"/>
      <point x="126" y="545"/>
      <point x="88" y="477"/>
      <point x="88" y="358" type="curve" smooth="yes"/>
    </contour>
  </outline>
</glyph>
<glyph name="uni0284" format="2">
  <advance width="300"/>
  <unicode hex="0284"/>
  <anchor x="117" y="-240" name="bottom"/>
  <anchor x="184" y="765" name="top"/>
  <outline>
    <contour>
      <point x="36" y="263" type="line"/>
      <point x="264" y="263" type="line"/>
      <point x="264" y="322" type="line"/>
      <point x="36" y="322" type="line"/>
    </contour>
    <component base="uni0283" xOffset="10"/>
  </outline>
</glyph>
<glyph name="eshcurl" format="2">
  <advance width="300"/>
  <unicode hex="0286"/>
  <anchor x="114" y="-239" name="bottom"/>
  <anchor x="202" y="765" name="top"/>
  <outline>
    <contour>
      <point x="100" y="-239" type="curve" smooth="yes"/>
      <point x="164" y="-239"/>
      <point x="188" y="-186"/>
      <point x="188" y="-81" type="curve"/>
      <point x="220" y="-81" type="line"/>
      <point x="220" y="-27" type="line"/>
      <point x="188" y="-27" type="line"/>
      <point x="188" y="568" type="line" smooth="yes"/>
      <point x="188" y="650"/>
      <point x="206" y="694"/>
      <point x="239" y="694" type="curve" smooth="yes"/>
      <point x="253" y="694"/>
      <point x="266" y="688"/>
      <point x="274" y="681" type="curve"/>
      <point x="274" y="752" type="line"/>
      <point x="264" y="759"/>
      <point x="245" y="765"/>
      <point x="224" y="765" type="curve" smooth="yes"/>
      <point x="156" y="765"/>
      <point x="119" y="699"/>
      <point x="119" y="569" type="curve" smooth="yes"/>
      <point x="119" y="-27" type="line"/>
      <point x="94" y="-27" type="line" smooth="yes"/>
      <point x="45" y="-27"/>
      <point x="22" y="-68"/>
      <point x="22" y="-136" type="curve" smooth="yes"/>
      <point x="22" y="-202"/>
      <point x="48" y="-239"/>
    </contour>
    <contour>
      <point x="91" y="-181" type="curve" smooth="yes"/>
      <point x="75" y="-181"/>
      <point x="66" y="-162"/>
      <point x="66" y="-134" type="curve" smooth="yes"/>
      <point x="66" y="-95"/>
      <point x="79" y="-81"/>
      <point x="94" y="-81" type="curve" smooth="yes"/>
      <point x="119" y="-81" type="line"/>
      <point x="119" y="-93" type="line" smooth="yes"/>
      <point x="119" y="-146"/>
      <point x="109" y="-181"/>
    </contour>
  </outline>
</glyph>
<glyph name="uni0288" format="2">
  <advance width="300"/>
  <unicode hex="0288"/>
  <anchor x="158" y="-240" name="bottom"/>
  <anchor x="158" y="677" name="top"/>
  <outline>
    <contour>
      <point x="208" y="-240" type="curve" smooth="yes"/>
      <point x="231" y="-240"/>
      <point x="257" y="-235"/>
      <point x="280" y="-226" type="curve"/>
      <point x="280" y="-158" type="line"/>
      <point x="257" y="-167"/>
      <point x="237" y="-172"/>
      <point x="225" y="-172" type="curve" smooth="yes"/>
      <point x="198" y="-172"/>
      <point x="179" y="-140"/>
      <point x="179" y="-71" type="curve" smooth="yes"/>
      <point x="179" y="468" type="line"/>
      <point x="277" y="468" type="line"/>
      <point x="277" y="535" type="line"/>
      <point x="179" y="535" type="line"/>
      <point x="179" y="677" type="line"/>
      <point x="135" y="677" type="line"/>
      <point x="114" y="538" type="line"/>
      <point x="40" y="516" type="line"/>
      <point x="40" y="468" type="line"/>
      <point x="109" y="468" type="line"/>
      <point x="109" y="-84" type="line" smooth="yes"/>
      <point x="109" y="-200"/>
      <point x="147" y="-240"/>
    </contour>
  </outline>
</glyph>
<glyph name="uni0289" format="2">
  <advance width="300"/>
  <unicode hex="0289"/>
  <anchor x="150" y="0" name="bottom"/>
  <anchor x="150" y="535" name="top"/>
  <anchor x="271" y="10" name="ogonek"/>
  <anchor x="288" y="535" name="topright"/>
  <outline>
    <contour>
      <point x="11" y="256" type="line"/>
      <point x="289" y="256" type="line"/>
      <point x="289" y="314" type="line"/>
      <point x="11" y="314" type="line"/>
    </contour>
    <component base="u" xOffset="10"/>
  </outline>
</glyph>
<glyph name="uni028B" format="2">
  <advance width="300"/>
  <unicode hex="028B"/>
  <anchor x="150" y="0" name="bottom"/>
  <anchor x="150" y="535" name="top"/>
  <outline>
    <contour>
      <point x="151" y="-10" type="curve" smooth="yes"/>
      <point x="229" y="-10"/>
      <point x="265" y="67"/>
      <point x="265" y="186" type="curve" smooth="yes"/>
      <point x="265" y="410" type="line" smooth="yes"/>
      <point x="265" y="505"/>
      <point x="242" y="547"/>
      <point x="192" y="547" type="curve" smooth="yes"/>
      <point x="176" y="547"/>
      <point x="163" y="542"/>
      <point x="151" y="535" type="curve"/>
      <point x="151" y="471" type="line"/>
      <point x="157" y="474"/>
      <point x="164" y="478"/>
      <point x="172" y="478" type="curve" smooth="yes"/>
      <point x="187" y="478"/>
      <point x="195" y="460"/>
      <point x="195" y="409" type="curve" smooth="yes"/>
      <point x="195" y="195" type="line" smooth="yes"/>
      <point x="195" y="99"/>
      <point x="181" y="59"/>
      <point x="151" y="59" type="curve" smooth="yes"/>
      <point x="121" y="59"/>
      <point x="106" y="99"/>
      <point x="106" y="195" type="curve" smooth="yes"/>
      <point x="106" y="536" type="line"/>
      <point x="37" y="536" type="line"/>
      <point x="37" y="186" type="line" smooth="yes"/>
      <point x="37" y="66"/>
      <point x="69" y="-10"/>
    </contour>
  </outline>
</glyph>
<glyph name="uni028F" format="2">
  <advance width="300"/>
  <unicode hex="028F"/>
  <anchor x="150" y="0" name="bottom"/>
  <anchor x="150" y="535" name="top"/>
  <outline>
    <contour>
      <point x="116" y="0" type="line"/>
      <point x="184" y="0" type="line"/>
      <point x="184" y="234" type="line"/>
      <point x="282" y="536" type="line"/>
      <point x="206" y="536" type="line"/>
      <point x="151" y="308" type="line"/>
      <point x="94" y="536" type="line"/>
      <point x="18" y="536" type="line"/>
      <point x="116" y="234" type="line"/>
    </contour>
  </outline>
</glyph>
<glyph name="uni029B" format="2">
  <advance width="300"/>
  <unicode hex="029B"/>
  <anchor x="172" y="0" name="bottom"/>
  <anchor x="167" y="760" name="top"/>
  <outline>
    <contour>
      <point x="169" y="-10" type="curve" smooth="yes"/>
      <point x="204" y="-10"/>
      <point x="237" y="8"/>
      <point x="257" y="22" type="curve"/>
      <point x="257" y="284" type="line"/>
      <point x="154" y="284" type="line"/>
      <point x="154" y="223" type="line"/>
      <point x="198" y="223" type="line"/>
      <point x="198" y="67" type="line"/>
      <point x="191" y="61"/>
      <point x="183" y="57"/>
      <point x="173" y="57" type="curve" smooth="yes"/>
      <point x="126" y="57"/>
      <point x="102" y="128"/>
      <point x="102" y="266" type="curve" smooth="yes"/>
      <point x="102" y="405"/>
      <point x="132" y="479"/>
      <point x="178" y="479" type="curve" smooth="yes"/>
      <point x="200" y="479"/>
      <point x="216" y="472"/>
      <point x="236" y="458" type="curve"/>
      <point x="255" y="521" type="line"/>
      <point x="255" y="627" type="line" smooth="yes"/>
      <point x="255" y="683"/>
      <point x="264" y="700"/>
      <point x="283" y="700" type="curve" smooth="yes"/>
      <point x="291" y="700"/>
      <point x="300" y="697"/>
      <point x="308" y="691" type="curve"/>
      <point x="308" y="759" type="line"/>
      <point x="299" y="764"/>
      <point x="281" y="768"/>
      <point x="269" y="768" type="curve" smooth="yes"/>
      <point x="219" y="768"/>
      <point x="193" y="720"/>
      <point x="193" y="630" type="curve" smooth="yes"/>
      <point x="193" y="539" type="line"/>
      <point x="186" y="543"/>
      <point x="178" y="546"/>
      <point x="169" y="546" type="curve" smooth="yes"/>
      <point x="83" y="546"/>
      <point x="39" y="440"/>
      <point x="39" y="265" type="curve" smooth="yes"/>
      <point x="39" y="83"/>
      <point x="86" y="-10"/>
    </contour>
  </outline>
</glyph>
<glyph name="uni029D" format="2">
  <advance width="300"/>
  <unicode hex="029D"/>
  <anchor x="172" y="-240" name="bottom"/>
  <anchor x="173" y="760" name="top"/>
  <outline>
    <contour>
      <point x="125" y="-239" type="curve" smooth="yes"/>
      <point x="185" y="-239"/>
      <point x="211" y="-187"/>
      <point x="213" y="-81" type="curve"/>
      <point x="241" y="-81" type="line"/>
      <point x="241" y="-28" type="line"/>
      <point x="211" y="-28" type="line"/>
      <point x="211" y="535" type="line"/>
      <point x="57" y="535" type="line"/>
      <point x="57" y="480" type="line"/>
      <point x="142" y="467" type="line"/>
      <point x="142" y="-28" type="line"/>
      <point x="124" y="-28" type="line" smooth="yes"/>
      <point x="77" y="-28"/>
      <point x="48" y="-64"/>
      <point x="48" y="-134" type="curve" smooth="yes"/>
      <point x="48" y="-200"/>
      <point x="71" y="-239"/>
    </contour>
    <contour>
      <point x="114" y="-185" type="curve" smooth="yes"/>
      <point x="100" y="-185"/>
      <point x="92" y="-165"/>
      <point x="92" y="-137" type="curve" smooth="yes"/>
      <point x="92" y="-98"/>
      <point x="103" y="-81"/>
      <point x="121" y="-81" type="curve" smooth="yes"/>
      <point x="141" y="-81" type="line"/>
      <point x="141" y="-90" type="line" smooth="yes"/>
      <point x="141" y="-148"/>
      <point x="131" y="-185"/>
    </contour>
    <contour>
      <point x="173" y="635" type="curve" smooth="yes"/>
      <point x="202" y="635"/>
      <point x="216" y="655"/>
      <point x="216" y="697" type="curve" smooth="yes"/>
      <point x="216" y="740"/>
      <point x="201" y="761"/>
      <point x="173" y="761" type="curve" smooth="yes"/>
      <point x="144" y="761"/>
      <point x="130" y="740"/>
      <point x="130" y="697" type="curve" smooth="yes"/>
      <point x="130" y="656"/>
      <point x="145" y="635"/>
    </contour>
  </outline>
</glyph>
<glyph name="uni029F" format="2">
  <advance width="300"/>
  <unicode hex="029F"/>
  <anchor x="166" y="0" name="bottom"/>
  <anchor x="102" y="535" name="top"/>
  <outline>
    <contour>
      <point x="69" y="0" type="line"/>
      <point x="255" y="0" type="line"/>
      <point x="255" y="67" type="line"/>
      <point x="134" y="67" type="line"/>
      <point x="134" y="536" type="line"/>
      <point x="69" y="536" type="line"/>
    </contour>
  </outline>
</glyph>
<glyph name="dzligcurl" format="2">
  <advance width="300"/>
  <unicode hex="02A5"/>
  <anchor x="147" y="0" name="bottom"/>
  <anchor x="147" y="760" name="top"/>
  <outline>
    <contour>
      <point x="262" y="-86" type="line"/>
      <point x="267" y="-53"/>
      <point x="273" y="-25"/>
      <point x="279" y="0" type="curve"/>
      <point x="321" y="0" type="line" smooth="yes"/>
      <point x="370" y="0"/>
      <point x="413" y="46"/>
      <point x="413" y="119" type="curve" smooth="yes"/>
      <point x="413" y="174"/>
      <point x="387" y="223"/>
      <point x="350" y="223" type="curve" smooth="yes"/>
      <point x="307" y="223"/>
      <point x="282" y="171"/>
      <point x="257" y="64" type="curve"/>
      <point x="225" y="64" type="line"/>
      <point x="355" y="474" type="line"/>
      <point x="355" y="535" type="line"/>
      <point x="143" y="535" type="line"/>
      <point x="143" y="760" type="line"/>
      <point x="74" y="760" type="line"/>
      <point x="74" y="546" type="line" smooth="yes"/>
      <point x="74" y="524"/>
      <point x="77" y="482"/>
      <point x="78" y="462" type="curve"/>
      <point x="74" y="462" type="line"/>
      <point x="58" y="508"/>
      <point x="31" y="545"/>
      <point x="-3" y="545" type="curve" smooth="yes"/>
      <point x="-71" y="545"/>
      <point x="-113" y="450"/>
      <point x="-113" y="266" type="curve" smooth="yes"/>
      <point x="-113" y="83"/>
      <point x="-75" y="-10"/>
      <point x="-5" y="-10" type="curve" smooth="yes"/>
      <point x="34" y="-10"/>
      <point x="60" y="28"/>
      <point x="75" y="76" type="curve"/>
      <point x="79" y="76" type="line"/>
      <point x="85" y="0" type="line"/>
      <point x="233" y="0" type="line"/>
      <point x="229" y="-18"/>
      <point x="224" y="-38"/>
      <point x="220" y="-59" type="curve"/>
    </contour>
    <contour>
      <point x="16" y="59" type="curve" smooth="yes"/>
      <point x="-23" y="59"/>
      <point x="-42" y="133"/>
      <point x="-42" y="264" type="curve" smooth="yes"/>
      <point x="-42" y="395"/>
      <point x="-23" y="477"/>
      <point x="19" y="477" type="curve" smooth="yes"/>
      <point x="58" y="477"/>
      <point x="75" y="402"/>
      <point x="75" y="266" type="curve" smooth="yes"/>
      <point x="75" y="251" type="line" smooth="yes"/>
      <point x="75" y="123"/>
      <point x="54" y="59"/>
    </contour>
    <contour>
      <point x="301" y="64" type="line"/>
      <point x="315" y="129"/>
      <point x="327" y="159"/>
      <point x="343" y="159" type="curve" smooth="yes"/>
      <point x="356" y="159"/>
      <point x="363" y="139"/>
      <point x="363" y="115" type="curve" smooth="yes"/>
      <point x="363" y="85"/>
      <point x="352" y="64"/>
      <point x="329" y="64" type="curve" smooth="yes"/>
    </contour>
    <contour>
      <point x="143" y="56" type="line"/>
      <point x="143" y="471" type="line"/>
      <point x="272" y="471" type="line"/>
    </contour>
  </outline>
</glyph>
<glyph name="uni02A7" format="2">
  <advance width="300"/>
  <unicode hex="02A7"/>
  <anchor x="150" y="-240" name="bottom"/>
  <anchor x="150" y="765" name="top"/>
  <outline>
    <contour>
      <point x="179" y="-240" type="curve" smooth="yes"/>
      <point x="230" y="-240"/>
      <point x="254" y="-200"/>
      <point x="254" y="-104" type="curve" smooth="yes"/>
      <point x="254" y="625" type="line" smooth="yes"/>
      <point x="254" y="679"/>
      <point x="262" y="697"/>
      <point x="278" y="697" type="curve" smooth="yes"/>
      <point x="285" y="697"/>
      <point x="290" y="694"/>
      <point x="296" y="688" type="curve"/>
      <point x="296" y="756" type="line"/>
      <point x="288" y="761"/>
      <point x="277" y="765"/>
      <point x="264" y="765" type="curve" smooth="yes"/>
      <point x="216" y="765"/>
      <point x="183" y="722"/>
      <point x="183" y="627" type="curve" smooth="yes"/>
      <point x="183" y="536" type="line"/>
      <point x="113" y="536" type="line"/>
      <point x="113" y="658" type="line"/>
      <point x="65" y="658" type="line"/>
      <point x="48" y="534" type="line"/>
      <point x="17" y="514" type="line"/>
      <point x="17" y="472" type="line"/>
      <point x="42" y="472" type="line"/>
      <point x="42" y="135" type="line" smooth="yes"/>
      <point x="42" y="39"/>
      <point x="67" y="-10"/>
      <point x="128" y="-10" type="curve" smooth="yes"/>
      <point x="151" y="-10"/>
      <point x="170" y="-4"/>
      <point x="183" y="6" type="curve"/>
      <point x="183" y="-104" type="line" smooth="yes"/>
      <point x="183" y="-154"/>
      <point x="175" y="-172"/>
      <point x="159" y="-172" type="curve" smooth="yes"/>
      <point x="151" y="-172"/>
      <point x="143" y="-166"/>
      <point x="138" y="-160" type="curve"/>
      <point x="138" y="-225" type="line"/>
      <point x="147" y="-234"/>
      <point x="160" y="-240"/>
    </contour>
    <contour>
      <point x="147" y="58" type="curve" smooth="yes"/>
      <point x="123" y="58"/>
      <point x="113" y="87"/>
      <point x="113" y="144" type="curve" smooth="yes"/>
      <point x="113" y="472" type="line"/>
      <point x="183" y="472" type="line"/>
      <point x="183" y="69" type="line"/>
      <point x="173" y="62"/>
      <point x="162" y="58"/>
    </contour>
  </outline>
</glyph>
<glyph name="tcligcurl" format="2">
  <advance width="300"/>
  <unicode hex="02A8"/>
  <anchor x="156" y="0" name="bottom"/>
  <anchor x="156" y="677" name="top"/>
  <outline>
    <contour>
      <point x="66" y="-10" type="curve" smooth="yes"/>
      <point x="205" y="-10"/>
      <point x="238" y="199"/>
      <point x="315" y="199" type="curve" smooth="yes"/>
      <point x="340" y="199"/>
      <point x="352" y="174"/>
      <point x="352" y="136" type="curve" smooth="yes"/>
      <point x="352" y="95"/>
      <point x="334" y="59"/>
      <point x="306" y="59" type="curve" smooth="yes"/>
      <point x="245" y="59"/>
      <point x="222" y="153"/>
      <point x="222" y="277" type="curve" smooth="yes"/>
      <point x="222" y="404"/>
      <point x="252" y="472"/>
      <point x="309" y="472" type="curve" smooth="yes"/>
      <point x="332" y="472"/>
      <point x="356" y="462"/>
      <point x="379" y="441" type="curve"/>
      <point x="402" y="509" type="line"/>
      <point x="373" y="533"/>
      <point x="338" y="545"/>
      <point x="303" y="545" type="curve" smooth="yes"/>
      <point x="204" y="545"/>
      <point x="152" y="460"/>
      <point x="152" y="275" type="curve" smooth="yes"/>
      <point x="152" y="106"/>
      <point x="208" y="-10"/>
      <point x="302" y="-10" type="curve" smooth="yes"/>
      <point x="372" y="-10"/>
      <point x="414" y="43"/>
      <point x="414" y="136" type="curve" smooth="yes"/>
      <point x="414" y="214"/>
      <point x="380" y="269"/>
      <point x="320" y="269" type="curve" smooth="yes"/>
      <point x="209" y="269"/>
      <point x="179" y="59"/>
      <point x="84" y="59" type="curve" smooth="yes"/>
      <point x="51" y="59"/>
      <point x="29" y="101"/>
      <point x="29" y="180" type="curve" smooth="yes"/>
      <point x="29" y="465" type="line"/>
      <point x="127" y="465" type="line"/>
      <point x="127" y="535" type="line"/>
      <point x="29" y="535" type="line"/>
      <point x="29" y="677" type="line"/>
      <point x="-23" y="677" type="line"/>
      <point x="-36" y="538" type="line"/>
      <point x="-114" y="523" type="line"/>
      <point x="-114" y="465" type="line"/>
      <point x="-43" y="465" type="line"/>
      <point x="-43" y="174" type="line" smooth="yes"/>
      <point x="-43" y="35"/>
      <point x="-11" y="-10"/>
    </contour>
  </outline>
</glyph>
<glyph name="uni02AA" format="2">
  <advance width="300"/>
  <unicode hex="02AA"/>
  <anchor x="150" y="0" name="bottom"/>
  <anchor x="150" y="760" name="top"/>
  <outline>
    <contour>
      <point x="177" y="-10" type="curve" smooth="yes"/>
      <point x="238" y="-10"/>
      <point x="276" y="45"/>
      <point x="276" y="143" type="curve" smooth="yes"/>
      <point x="276" y="226"/>
      <point x="253" y="261"/>
      <point x="225" y="305" type="curve" smooth="yes"/>
      <point x="202" y="342"/>
      <point x="187" y="360"/>
      <point x="187" y="405" type="curve" smooth="yes"/>
      <point x="187" y="453"/>
      <point x="198" y="481"/>
      <point x="221" y="481" type="curve" smooth="yes"/>
      <point x="233" y="481"/>
      <point x="245" y="469"/>
      <point x="256" y="451" type="curve"/>
      <point x="272" y="512" type="line"/>
      <point x="256" y="534"/>
      <point x="235" y="546"/>
      <point x="212" y="546" type="curve" smooth="yes"/>
      <point x="156" y="546"/>
      <point x="121" y="493"/>
      <point x="121" y="402" type="curve" smooth="yes"/>
      <point x="121" y="317"/>
      <point x="146" y="281"/>
      <point x="171" y="244" type="curve" smooth="yes"/>
      <point x="195" y="209"/>
      <point x="209" y="192"/>
      <point x="209" y="142" type="curve" smooth="yes"/>
      <point x="209" y="89"/>
      <point x="193" y="59"/>
      <point x="167" y="59" type="curve" smooth="yes"/>
      <point x="141" y="59"/>
      <point x="118" y="79"/>
      <point x="100" y="98" type="curve"/>
      <point x="100" y="760" type="line"/>
      <point x="38" y="760" type="line"/>
      <point x="38" y="0" type="line"/>
      <point x="100" y="0" type="line"/>
      <point x="100" y="26" type="line"/>
      <point x="117" y="9"/>
      <point x="141" y="-10"/>
    </contour>
  </outline>
</glyph>
<glyph name="uni02AB" format="2">
  <advance width="300"/>
  <unicode hex="02AB"/>
  <anchor x="149" y="0" name="bottom"/>
  <anchor x="149" y="760" name="top"/>
  <outline>
    <contour>
      <point x="40" y="0" type="line"/>
      <point x="269" y="0" type="line"/>
      <point x="269" y="65" type="line"/>
      <point x="177" y="65" type="line"/>
      <point x="266" y="481" type="line"/>
      <point x="266" y="536" type="line"/>
      <point x="109" y="536" type="line"/>
      <point x="109" y="760" type="line"/>
      <point x="40" y="760" type="line"/>
    </contour>
    <contour>
      <point x="109" y="60" type="line"/>
      <point x="109" y="471" type="line"/>
      <point x="194" y="471" type="line"/>
    </contour>
  </outline>
</glyph>
<glyph name="uni02AD" format="2">
  <advance width="300"/>
  <unicode hex="02AD"/>
  <anchor x="150" y="0" name="bottom"/>
  <anchor x="150" y="714" name="top"/>
  <outline>
    <contour>
      <point x="42" y="477" type="line"/>
      <point x="101" y="477" type="line"/>
      <point x="101" y="649" type="line"/>
      <point x="196" y="649" type="line"/>
      <point x="196" y="477" type="line"/>
      <point x="255" y="477" type="line"/>
      <point x="255" y="714" type="line"/>
      <point x="42" y="714" type="line"/>
    </contour>
    <contour>
      <point x="42" y="0" type="line"/>
      <point x="101" y="0" type="line"/>
      <point x="101" y="173" type="line"/>
      <point x="196" y="173" type="line"/>
      <point x="196" y="0" type="line"/>
      <point x="255" y="0" type="line"/>
      <point x="255" y="237" type="line"/>
      <point x="42" y="237" type="line"/>
    </contour>
  </outline>
</glyph>
<glyph name="uni02AF" format="2">
  <advance width="300"/>
  <unicode hex="02AF"/>
  <anchor x="147" y="-240" name="bottom"/>
  <anchor x="147" y="535" name="top"/>
  <outline>
    <contour>
      <point x="270" y="-240" type="curve" smooth="yes"/>
      <point x="292" y="-240"/>
      <point x="308" y="-234"/>
      <point x="321" y="-225" type="curve"/>
      <point x="321" y="-160" type="line"/>
      <point x="313" y="-166"/>
      <point x="303" y="-172"/>
      <point x="291" y="-172" type="curve" smooth="yes"/>
      <point x="273" y="-172"/>
      <point x="264" y="-152"/>
      <point x="264" y="-103" type="curve" smooth="yes"/>
      <point x="264" y="535" type="line"/>
      <point x="194" y="535" type="line"/>
      <point x="194" y="254" type="line" smooth="yes"/>
      <point x="194" y="128"/>
      <point x="180" y="58"/>
      <point x="144" y="58" type="curve" smooth="yes"/>
      <point x="111" y="58"/>
      <point x="103" y="105"/>
      <point x="103" y="200" type="curve" smooth="yes"/>
      <point x="103" y="413" type="line" smooth="yes"/>
      <point x="103" y="507"/>
      <point x="76" y="546"/>
      <point x="25" y="546" type="curve" smooth="yes"/>
      <point x="12" y="546"/>
      <point x="0" y="542"/>
      <point x="-8" y="536" type="curve"/>
      <point x="-8" y="470" type="line"/>
      <point x="-3" y="475"/>
      <point x="3" y="478"/>
      <point x="10" y="478" type="curve" smooth="yes"/>
      <point x="28" y="478"/>
      <point x="34" y="460"/>
      <point x="34" y="406" type="curve" smooth="yes"/>
      <point x="34" y="185" type="line" smooth="yes"/>
      <point x="34" y="49"/>
      <point x="66" y="-11"/>
      <point x="121" y="-11" type="curve" smooth="yes"/>
      <point x="159" y="-11"/>
      <point x="184" y="26"/>
      <point x="196" y="76" type="curve"/>
      <point x="200" y="76" type="line"/>
      <point x="196" y="53"/>
      <point x="194" y="30"/>
      <point x="194" y="7" type="curve" smooth="yes"/>
      <point x="194" y="-111" type="line" smooth="yes"/>
      <point x="194" y="-199"/>
      <point x="218" y="-240"/>
    </contour>
  </outline>
</glyph>
<glyph name="uni02BF" format="2">
  <advance width="300"/>
  <unicode hex="02BF"/>
  <outline>
    <contour>
      <point x="185" y="575" type="curve"/>
      <point x="185" y="620" type="line"/>
      <point x="171" y="620"/>
      <point x="159" y="643"/>
      <point x="159" y="685" type="curve" smooth="yes"/>
      <point x="159" y="724"/>
      <point x="169" y="748"/>
      <point x="185" y="748" type="curve"/>
      <point x="185" y="794" type="line"/>
      <point x="145" y="794"/>
      <point x="115" y="753"/>
      <point x="115" y="685" type="curve" smooth="yes"/>
      <point x="115" y="616"/>
      <point x="146" y="575"/>
    </contour>
  </outline>
</glyph>
<glyph name="uni02C0" format="2">
  <advance width="300"/>
  <unicode hex="02C0"/>
  <outline>
    <contour>
      <point x="115" y="514" type="line"/>
      <point x="165" y="514" type="line"/>
      <point x="165" y="558" type="line"/>
      <point x="200" y="577"/>
      <point x="214" y="606"/>
      <point x="214" y="662" type="curve" smooth="yes"/>
      <point x="214" y="722"/>
      <point x="190" y="766"/>
      <point x="143" y="766" type="curve" smooth="yes"/>
      <point x="120" y="766"/>
      <point x="101" y="755"/>
      <point x="87" y="739" type="curve"/>
      <point x="103" y="691" type="line"/>
      <point x="112" y="706"/>
      <point x="122" y="714"/>
      <point x="132" y="714" type="curve" smooth="yes"/>
      <point x="147" y="714"/>
      <point x="155" y="687"/>
      <point x="155" y="660" type="curve" smooth="yes"/>
      <point x="155" y="618"/>
      <point x="142" y="601"/>
      <point x="115" y="590" type="curve"/>
    </contour>
  </outline>
</glyph>
<glyph name="uni02C4" format="2">
  <advance width="300"/>
  <unicode hex="02C4"/>
  <outline>
    <contour>
      <point x="76" y="546" type="line"/>
      <point x="109" y="546" type="line"/>
      <point x="150" y="735" type="line"/>
      <point x="191" y="546" type="line"/>
      <point x="224" y="546" type="line"/>
      <point x="161" y="781" type="line"/>
      <point x="141" y="781" type="line"/>
    </contour>
  </outline>
</glyph>
<glyph name="circumflex" format="2">
  <advance width="300"/>
  <unicode hex="02C6"/>
  <outline>
    <contour>
      <point x="65" y="606" type="line"/>
      <point x="106" y="606" type="line"/>
      <point x="118" y="630"/>
      <point x="134" y="668"/>
      <point x="150" y="703" type="curve"/>
      <point x="166" y="668"/>
      <point x="180" y="633"/>
      <point x="194" y="606" type="curve"/>
      <point x="235" y="606" type="line"/>
      <point x="235" y="616" type="line"/>
      <point x="215" y="658"/>
      <point x="194" y="721"/>
      <point x="181" y="766" type="curve"/>
      <point x="119" y="766" type="line"/>
      <point x="108" y="723"/>
      <point x="82" y="664"/>
      <point x="65" y="616" type="curve"/>
    </contour>
  </outline>
</glyph>
<glyph name="uni02D1" format="2">
  <advance width="300"/>
  <unicode hex="02D1"/>
  <outline>
    <contour>
      <point x="150" y="406" type="line"/>
      <point x="188" y="536" type="line"/>
      <point x="113" y="536" type="line"/>
    </contour>
  </outline>
</glyph>
<glyph name="uni02D7" format="2">
  <advance width="300"/>
  <unicode hex="02D7"/>
  <outline>
    <contour>
      <point x="94" y="348" type="line"/>
      <point x="94" y="300" type="line"/>
      <point x="206" y="300" type="line"/>
      <point x="206" y="348" type="line"/>
    </contour>
  </outline>
</glyph>
